<svg width="26" height="24" viewBox="0 0 26 24" fill="none" xmlns="http://www.w3.org/2000/svg">
<g clip-path="url(#clip0_858_23676)">
<path d="M23.7348 0.1H21.9573C21.2254 0.1 20.598 0.7 20.598 1.4V4.5C20.598 6 20.2843 7.3 19.5524 8.4C18.8205 9.5 17.8795 10.4 16.7293 11C15.4746 11.6 14.0108 11.9 12.4425 11.9C10.7695 11.9 9.41026 11.6 8.15556 11C6.90086 10.4 5.95983 9.5 5.33248 8.4C4.60057 7.3 4.28689 6 4.28689 4.6V1.3C4.28689 0.6 3.65954 0 2.92764 0H1.35926C0.62735 0.1 0 0.6 0 1.3V4.3C0 6.1 0.313675 7.6 0.941026 9C1.56838 10.4 2.40484 11.6 3.55499 12.7C4.70513 13.7 6.06439 14.5 7.52821 15.1C8.36467 15.4 9.3057 15.6 10.3513 15.8V21.8C10.3513 22.2 10.3513 22.6 10.4558 22.9C10.5604 23.2 10.7695 23.5 10.9786 23.7C11.2923 23.9 11.8151 24 12.4425 24C13.0698 24 13.5926 23.9 13.9063 23.7C14.2199 23.5 14.4291 23.3 14.5336 22.9C14.6382 22.6 14.6382 22.2 14.6382 21.9V15.8C15.6838 15.7 16.6248 15.4 17.5658 15.1C19.1342 14.5 20.3889 13.7 21.539 12.7C22.6892 11.7 23.5256 10.5 24.0484 9C24.7803 7.7 25.094 6.1 25.094 4.4V1.3C25.094 0.6 24.4667 0.1 23.7348 0.1Z" fill="#D84B51"/>
<path d="M12.1288 6.60039C13.9189 6.60039 15.3701 5.21247 15.3701 3.50039C15.3701 1.78831 13.9189 0.400391 12.1288 0.400391C10.3386 0.400391 8.88745 1.78831 8.88745 3.50039C8.88745 5.21247 10.3386 6.60039 12.1288 6.60039Z" fill="#272D7E"/>
</g>
<defs>
<clipPath id="clip0_858_23676">
<rect width="25.094" height="24" fill="white"/>
</clipPath>
</defs>
</svg>
