<svg id="Calque_1" data-name="Calque 1" xmlns="http://www.w3.org/2000/svg" viewBox="0 0 156.18 32"><defs><style>.cls-1{fill:#272d7e;}.cls-2{fill:#d84b51;}</style></defs><path class="cls-1" d="M24.51.65A3.43,3.43,0,0,0,22.67.28a3.56,3.56,0,0,0-1.88.37,1.61,1.61,0,0,0-.73,1A5.89,5.89,0,0,0,19.9,3V13.42H5.5V3.05a6.7,6.7,0,0,0-.14-1.4,1.5,1.5,0,0,0-.7-1A3.58,3.58,0,0,0,2.77.28,3.55,3.55,0,0,0,.91.65a1.57,1.57,0,0,0-.75,1A5.39,5.39,0,0,0,0,3V29.23a5.61,5.61,0,0,0,.16,1.38,1.63,1.63,0,0,0,.73,1A3.54,3.54,0,0,0,2.73,32a3.66,3.66,0,0,0,1.88-.36,1.66,1.66,0,0,0,.73-1,6,6,0,0,0,.16-1.37V18.32H19.9V29.23A6.79,6.79,0,0,0,20,30.61a1.53,1.53,0,0,0,.73,1,3.67,3.67,0,0,0,1.86.36,3.67,3.67,0,0,0,1.86-.36,1.59,1.59,0,0,0,.75-1,5.48,5.48,0,0,0,.16-1.37V3.05a5.55,5.55,0,0,0-.16-1.4A1.57,1.57,0,0,0,24.51.65Z"/><path class="cls-1" d="M46.62,1.64A3,3,0,0,0,46,.73a2.59,2.59,0,0,0-.84-.55,2.66,2.66,0,0,0-1-.18,2.73,2.73,0,0,0-1.47.43,2.84,2.84,0,0,0-1.07,1.16l-12.5,26a5.2,5.2,0,0,0-.57,1.7,1.58,1.58,0,0,0,.37,1.21,4.16,4.16,0,0,0,1.34.95,3.21,3.21,0,0,0,2.27.34,3.14,3.14,0,0,0,1.5-1.7l3.13-6.64h14l3.14,6.64a3.25,3.25,0,0,0,1.48,1.77,3,3,0,0,0,2.25-.36,4.77,4.77,0,0,0,1.36-1,1.65,1.65,0,0,0,.39-1.14,3.77,3.77,0,0,0-.48-1.52Zm-7.3,17.17L44.08,8.72l4.77,10.09Z"/><path class="cls-1" d="M88,.67A3.31,3.31,0,0,0,86.15.28a3.45,3.45,0,0,0-1.81.37,1.67,1.67,0,0,0-.78,1,4.33,4.33,0,0,0-.18,1.27V22.64L68.21,1.42a3.79,3.79,0,0,0-1-.84,4.16,4.16,0,0,0-1.89-.3A3.59,3.59,0,0,0,63.5.65a1.65,1.65,0,0,0-.79,1,4.33,4.33,0,0,0-.18,1.27V29.23a5.9,5.9,0,0,0,.15,1.36,1.68,1.68,0,0,0,.73,1,3.25,3.25,0,0,0,1.8.39,3.48,3.48,0,0,0,1.86-.39,1.69,1.69,0,0,0,.75-1A5.53,5.53,0,0,0,68,29.27V9.87l15.4,21.18a2.11,2.11,0,0,0,1,.77A5.45,5.45,0,0,0,86,32a3.6,3.6,0,0,0,1.89-.39,1.85,1.85,0,0,0,.82-1,4.33,4.33,0,0,0,.2-1.34V3.1a5.69,5.69,0,0,0-.16-1.41A1.74,1.74,0,0,0,88,.67Z"/><path class="cls-1" d="M116.37,4.65a14.09,14.09,0,0,0-4.84-3.23A16,16,0,0,0,105.42.28l-8.54,0A3.61,3.61,0,0,0,95,.62a1.72,1.72,0,0,0-.75,1A5.67,5.67,0,0,0,94.11,3V29.23a5,5,0,0,0,.18,1.36,1.7,1.7,0,0,0,.77,1,3.23,3.23,0,0,0,1.77.39h8.45a16.13,16.13,0,0,0,6.21-1.16,14.06,14.06,0,0,0,4.83-3.29,15.11,15.11,0,0,0,3.19-5.09,18.14,18.14,0,0,0,1.13-6.5,17.56,17.56,0,0,0-1.11-6.34A14.47,14.47,0,0,0,116.37,4.65Zm-2.48,16.94a8.88,8.88,0,0,1-3.38,3.62,9.82,9.82,0,0,1-5.09,1.29H99.6V5.78h5.77a9.87,9.87,0,0,1,5.12,1.3,8.7,8.7,0,0,1,3.4,3.63,11.74,11.74,0,0,1,1.21,5.48A11.44,11.44,0,0,1,113.89,21.59Z"/><path class="cls-2" d="M154.55.24h-2.21a1.66,1.66,0,0,0-1.66,1.65V6a9.92,9.92,0,0,1-1.29,5.11,8.75,8.75,0,0,1-3.64,3.41,11.82,11.82,0,0,1-5.47,1.2,11.63,11.63,0,0,1-5.41-1.2,8.81,8.81,0,0,1-3.61-3.39A9.8,9.8,0,0,1,130,6.05V1.89A1.65,1.65,0,0,0,128.31.24h-2.19a1.65,1.65,0,0,0-1.65,1.65v4a16.07,16.07,0,0,0,1.15,6.2,14.12,14.12,0,0,0,3.3,4.84A15.15,15.15,0,0,0,134,20.14a17.12,17.12,0,0,0,3.55.91v8a6.39,6.39,0,0,0,.16,1.46,1.74,1.74,0,0,0,.73,1,4.7,4.7,0,0,0,3.75,0,1.72,1.72,0,0,0,.75-1,5.84,5.84,0,0,0,.16-1.39v-8a16.39,16.39,0,0,0,3.74-.93,14.32,14.32,0,0,0,5-3.16,14.19,14.19,0,0,0,3.23-4.83,16.29,16.29,0,0,0,1.13-6.12l0-4.15A1.66,1.66,0,0,0,154.55.24Z"/><circle class="cls-1" cx="140.34" cy="4.83" r="4.04"/></svg>