<svg width="69" height="129" viewBox="0 0 69 129" fill="none" xmlns="http://www.w3.org/2000/svg">
<path d="M22.5 124.474L22.5 62.8018C22.5 56.3434 27.7356 51.1078 34.194 51.1078C40.6523 51.1078 45.8879 56.3434 45.8879 62.8018L45.8879 124.474L22.5 124.474Z" stroke="#E99A24" stroke-width="9"/>
<mask id="path-2-inside-1_575_17323" fill="white">
<path d="M3 62.4036C1.34314 62.4036 -0.0138431 61.0576 0.133037 59.4073C0.83603 51.5085 4.30181 44.0678 9.97685 38.4161C16.3649 32.0542 25.029 28.4801 34.0631 28.4801C43.0972 28.4801 51.7613 32.0542 58.1494 38.416C63.8244 44.0678 67.2902 51.5085 67.9932 59.4072C68.1401 61.0576 66.7831 62.4036 65.1263 62.4036L61.0503 62.4036C59.3934 62.4036 58.0698 61.0551 57.8614 59.4114C57.1983 54.1791 54.809 49.2805 51.0246 45.5117C46.5261 41.0316 40.4249 38.5148 34.0631 38.5148C27.7013 38.5148 21.6001 41.0317 17.1017 45.5117C13.3173 49.2806 10.928 54.1791 10.2648 59.4114C10.0565 61.0551 8.73287 62.4036 7.07601 62.4036L3 62.4036Z"/>
</mask>
<path d="M3 62.4036C1.34314 62.4036 -0.0138431 61.0576 0.133037 59.4073C0.83603 51.5085 4.30181 44.0678 9.97685 38.4161C16.3649 32.0542 25.029 28.4801 34.0631 28.4801C43.0972 28.4801 51.7613 32.0542 58.1494 38.416C63.8244 44.0678 67.2902 51.5085 67.9932 59.4072C68.1401 61.0576 66.7831 62.4036 65.1263 62.4036L61.0503 62.4036C59.3934 62.4036 58.0698 61.0551 57.8614 59.4114C57.1983 54.1791 54.809 49.2805 51.0246 45.5117C46.5261 41.0316 40.4249 38.5148 34.0631 38.5148C27.7013 38.5148 21.6001 41.0317 17.1017 45.5117C13.3173 49.2806 10.928 54.1791 10.2648 59.4114C10.0565 61.0551 8.73287 62.4036 7.07601 62.4036L3 62.4036Z" fill="#D84B51" stroke="#D84B51" stroke-width="70" mask="url(#path-2-inside-1_575_17323)"/>
<circle cx="33.2733" cy="11.7267" r="11.7267" transform="rotate(90 33.2733 11.7267)" fill="#E99A24"/>
</svg>
