<svg width="69" height="129" viewBox="0 0 69 129" fill="none" xmlns="http://www.w3.org/2000/svg">
<rect x="22.5" y="124.474" width="73.3658" height="23.3879" rx="11.694" transform="rotate(-90 22.5 124.474)" stroke="#272D7E" stroke-width="9"/>
<mask id="path-2-inside-1_575_17322" fill="white">
<path d="M3 62.4036C1.34315 62.4036 -0.0138431 61.0576 0.133037 59.4073C0.83603 51.5085 4.30181 44.0678 9.97685 38.4161C16.3649 32.0542 25.029 28.4801 34.0631 28.4801C43.0972 28.4801 51.7613 32.0542 58.1494 38.416C63.8244 44.0678 67.2902 51.5085 67.9932 59.4072C68.1401 61.0576 66.7831 62.4036 65.1263 62.4036L61.5108 62.4036C59.854 62.4036 58.53 61.0553 58.3256 59.4111C57.6598 54.0568 55.2211 49.0423 51.3502 45.1873C46.7654 40.6213 40.5471 38.0561 34.0631 38.0561C27.5792 38.0561 21.3608 40.6213 16.776 45.1874C12.9052 49.0423 10.4664 54.0569 9.80072 59.4112C9.59629 61.0554 8.27231 62.4036 6.61546 62.4036L3 62.4036Z"/>
</mask>
<path d="M3 62.4036C1.34315 62.4036 -0.0138431 61.0576 0.133037 59.4073C0.83603 51.5085 4.30181 44.0678 9.97685 38.4161C16.3649 32.0542 25.029 28.4801 34.0631 28.4801C43.0972 28.4801 51.7613 32.0542 58.1494 38.416C63.8244 44.0678 67.2902 51.5085 67.9932 59.4072C68.1401 61.0576 66.7831 62.4036 65.1263 62.4036L61.5108 62.4036C59.854 62.4036 58.53 61.0553 58.3256 59.4111C57.6598 54.0568 55.2211 49.0423 51.3502 45.1873C46.7654 40.6213 40.5471 38.0561 34.0631 38.0561C27.5792 38.0561 21.3608 40.6213 16.776 45.1874C12.9052 49.0423 10.4664 54.0569 9.80072 59.4112C9.59629 61.0554 8.27231 62.4036 6.61546 62.4036L3 62.4036Z" fill="#D84B51" stroke="#D84B51" stroke-width="70" mask="url(#path-2-inside-1_575_17322)"/>
<circle cx="34.2733" cy="11.7267" r="11.2267" transform="rotate(90 34.2733 11.7267)" fill="#272D7E" stroke="#272D7E"/>
</svg>
