<svg width="95" height="95" viewBox="0 0 95 95" fill="none" xmlns="http://www.w3.org/2000/svg">
<mask id="path-1-inside-1_342_19711" fill="white">
<path d="M19.8509 62.8892C18.416 63.7177 16.5681 63.2304 15.8673 61.7291C12.4483 54.4037 11.6969 46.0751 13.8056 38.2053C16.1742 29.3655 21.9574 21.8287 29.8829 17.2529C37.8084 12.6771 47.2271 11.4371 56.0668 13.8057C63.9366 15.9144 70.7737 20.7295 75.4081 27.3531C76.358 28.7107 75.856 30.5546 74.4211 31.383L70.6571 33.5562C69.2223 34.3846 67.4016 33.8789 66.4018 32.5577C63.1763 28.2949 58.6069 25.1976 53.389 23.7995C47.1998 22.1411 40.6052 23.0093 35.0561 26.2131C29.5069 29.4169 25.4578 34.6939 23.7994 40.8831C22.4012 46.101 22.7989 51.6069 24.8778 56.5316C25.5221 58.0581 25.0497 59.8877 23.6149 60.7161L19.8509 62.8892Z"/>
</mask>
<path d="M19.8509 62.8892C18.416 63.7177 16.5681 63.2304 15.8673 61.7291C12.4483 54.4037 11.6969 46.0751 13.8056 38.2053C16.1742 29.3655 21.9574 21.8287 29.8829 17.2529C37.8084 12.6771 47.2271 11.4371 56.0668 13.8057C63.9366 15.9144 70.7737 20.7295 75.4081 27.3531C76.358 28.7107 75.856 30.5546 74.4211 31.383L70.6571 33.5562C69.2223 34.3846 67.4016 33.8789 66.4018 32.5577C63.1763 28.2949 58.6069 25.1976 53.389 23.7995C47.1998 22.1411 40.6052 23.0093 35.0561 26.2131C29.5069 29.4169 25.4578 34.6939 23.7994 40.8831C22.4012 46.101 22.7989 51.6069 24.8778 56.5316C25.5221 58.0581 25.0497 59.8877 23.6149 60.7161L19.8509 62.8892Z" fill="#D84B51" stroke="#D84B51" stroke-width="70" mask="url(#path-1-inside-1_342_19711)"/>
</svg>
