<svg width="57" height="60" viewBox="0 0 57 60" fill="none" xmlns="http://www.w3.org/2000/svg">
<mask id="path-1-inside-1_612_3014" fill="white">
<path d="M13.8906 58.3557C12.7963 59.5997 10.8897 59.7295 9.74533 58.5313C4.1618 52.6854 0.784546 45.0353 0.263812 36.9045C-0.321101 27.7716 2.74597 18.7805 8.7903 11.9089C14.8346 5.0374 23.3611 0.848411 32.494 0.263488C40.6247 -0.257247 48.6432 2.11651 55.1536 6.90867C56.488 7.89085 56.6025 9.79847 55.5082 11.0425L52.6376 14.306C51.5433 15.55 49.6566 15.6536 48.2866 14.7218C43.8665 11.7154 38.5462 10.2434 33.1553 10.5886C26.7608 10.9982 20.7909 13.9311 16.5589 18.7423C12.3269 23.5535 10.1794 29.8488 10.589 36.2433C10.9342 41.6341 13.073 46.7233 16.6186 50.7237C17.7176 51.9636 17.8555 53.8482 16.7612 55.0922L13.8906 58.3557Z"/>
</mask>
<path d="M13.8906 58.3557C12.7963 59.5997 10.8897 59.7295 9.74533 58.5313C4.1618 52.6854 0.784546 45.0353 0.263812 36.9045C-0.321101 27.7716 2.74597 18.7805 8.7903 11.9089C14.8346 5.0374 23.3611 0.848411 32.494 0.263488C40.6247 -0.257247 48.6432 2.11651 55.1536 6.90867C56.488 7.89085 56.6025 9.79847 55.5082 11.0425L52.6376 14.306C51.5433 15.55 49.6566 15.6536 48.2866 14.7218C43.8665 11.7154 38.5462 10.2434 33.1553 10.5886C26.7608 10.9982 20.7909 13.9311 16.5589 18.7423C12.3269 23.5535 10.1794 29.8488 10.589 36.2433C10.9342 41.6341 13.073 46.7233 16.6186 50.7237C17.7176 51.9636 17.8555 53.8482 16.7612 55.0922L13.8906 58.3557Z" fill="#D84B51" stroke="#D84B51" stroke-width="70" mask="url(#path-1-inside-1_612_3014)"/>
</svg>
