<svg id="illu-gratuit" xmlns="http://www.w3.org/2000/svg" viewBox="0 0 433 225"><defs><style>.cls-1{fill:none;}.cls-2{fill:#272d7e;}</style></defs><path class="cls-1" d="M45.88,157v-.2h0l.2,0V150.8H45.9l.14-.17-.14.17a1.48,1.48,0,0,0,0-.21H39.8a1.37,1.37,0,0,1,0,.19h-.19c0,2,.09,4.07.14,6.11Z"/><path class="cls-1" d="M.29,142.86V139a.46.46,0,0,0-.07.16A5,5,0,0,0,.29,142.86Z"/><path class="cls-1" d="M.29,155.34v-2.58A3.45,3.45,0,0,0,0,153.93,3,3,0,0,0,.29,155.34Z"/><path class="cls-1" d="M62.1,224.37a1,1,0,0,0-.75.1h1A1.86,1.86,0,0,0,62.1,224.37Z"/><path class="cls-1" d="M163.91,160.92a3.14,3.14,0,0,0,2.71,2.75,3.08,3.08,0,0,0,3.69-2.11c.29-1.49.39-3,.56-4.52-1.52.11-3.05.17-4.56.37A3.08,3.08,0,0,0,163.91,160.92Z"/><path class="cls-1" d="M258.74,58.85a3.19,3.19,0,0,0,3.33-3.17A2.83,2.83,0,0,0,259.42,53a3.26,3.26,0,0,0-3.4,2.57A3.26,3.26,0,0,0,258.74,58.85Z"/><path class="cls-1" d="M252.56,78.2A2.87,2.87,0,0,0,255,74.87c-.12-1.24-1.57-2.17-3.13-2a2.86,2.86,0,0,0-2.53,2.77C249.32,77.16,250.71,78.27,252.56,78.2Z"/><path class="cls-1" d="M108.07,157.24c2.05,0,3.09-.72,3.19-2.51a38.53,38.53,0,0,0-.17-4H111a.29.29,0,0,0,0-.09l-6.18,0v.14h-.13c.07,1.32.09,2.65.23,4C105.09,156.53,106,157.22,108.07,157.24Z"/><path class="cls-1" d="M46.07,157,46,157Z"/><path class="cls-1" d="M278.61,51.46A2.74,2.74,0,0,0,281,49.15c0-1.52-1.48-3.13-2.83-3a3,3,0,0,0-2.33,2.39A2.81,2.81,0,0,0,278.61,51.46Z"/><path class="cls-1" d="M259,66.14a3,3,0,0,0-2.66,2.64,3.12,3.12,0,0,0,2.39,2.91A3.08,3.08,0,0,0,261.89,69,3,3,0,0,0,259,66.14Z"/><path class="cls-1" d="M272,53a2.62,2.62,0,0,0-2.67,2.6,2.58,2.58,0,0,0,2.72,2.52,2.75,2.75,0,0,0,2.39-2.89A2.51,2.51,0,0,0,272,53Z"/><path class="cls-1" d="M285.34,44.87a2,2,0,0,0,2.08-2.39,2.35,2.35,0,0,0-2.73-2.39,2.59,2.59,0,0,0-2.29,2.42A2.87,2.87,0,0,0,285.34,44.87Z"/><path class="cls-1" d="M33.07,163.19a5.27,5.27,0,0,0,6-.24c.19-1.95.38-3.94.57-5.93l-6,.55A6.12,6.12,0,0,0,33.07,163.19Z"/><path class="cls-1" d="M265.1,64.77a2.44,2.44,0,0,0,2.78-2.35,2.68,2.68,0,0,0-2.25-2.94A2.71,2.71,0,0,0,262.89,62,2.3,2.3,0,0,0,265.1,64.77Z"/><path class="cls-1" d="M265.54,52a2.68,2.68,0,0,0,2.83-2.94,2.62,2.62,0,0,0-2.81-2.43,2.69,2.69,0,0,0,0,5.37Z"/><path class="cls-1" d="M272.18,45.73a3.37,3.37,0,0,0,3.17-3.44c-.11-1.32-2-2.32-4.21-2.26-1.17,0-1.94,1.14-1.82,2.65C269.46,44.53,270.61,45.76,272.18,45.73Z"/><path class="cls-1" d="M36,224.43a1,1,0,0,0-.24,0h.71A1.23,1.23,0,0,0,36,224.43Z"/><path class="cls-1" d="M.29,168.09V166a2.77,2.77,0,0,0-.22,1.15A2.33,2.33,0,0,0,.29,168.09Z"/><path class="cls-1" d="M49.14,224.38a2.06,2.06,0,0,0-.57.09H49.7A1.73,1.73,0,0,0,49.14,224.38Z"/><path class="cls-1" d="M.29,180.74v-.88a1,1,0,0,0,0,.25A2.23,2.23,0,0,0,.29,180.74Z"/><path class="cls-1" d="M3.5,170.41a3.3,3.3,0,0,0,2.8-3.18,3,3,0,0,0-2.82-3.09A3.17,3.17,0,0,0,.29,166v2.06A3.77,3.77,0,0,0,3.5,170.41Z"/><path class="cls-1" d="M7.44,144.55c-1.3,1.68-1.45,3.43-.29,4.93,1.39,1.79,3.32,1.47,5.27.7.51-1.8,1-3.55,1.5-5.31C11.76,143.94,9.57,144.26,7.44,144.55Z"/><path class="cls-1" d="M20.28,150.15c3,.74,3,.7,5.76-.47,0-1.63.05-3.41.08-5.2l-.17,0,0,0,0,0v-.19H19.83a.76.76,0,0,0,0,.15h-.15C19.8,146.4,19.25,148.42,20.28,150.15Z"/><path class="cls-1" d="M26.12,144.31l0,.05Z"/><path class="cls-1" d="M26.19,153.33c-.3,2.77.54,3.77,3.44,3.91a15.8,15.8,0,0,0,2.63-.31c.44-2.42.85-4.56-.4-6.64-1,.18-2,.35-3,.5C27,151.07,26.38,151.64,26.19,153.33Z"/><path class="cls-1" d="M3.61,183.16a2.71,2.71,0,0,0,2.49-2.74,3,3,0,0,0-3.27-3.09,3.14,3.14,0,0,0-2.54,2.53v.88A3.16,3.16,0,0,0,3.61,183.16Z"/><path class="cls-1" d="M3.29,157.21a2.72,2.72,0,0,0,3.09-2.78c.11-2.1-1-3.45-2.9-3.61a3.12,3.12,0,0,0-3.19,1.94v2.58A3.26,3.26,0,0,0,3.29,157.21Z"/><path class="cls-1" d="M3.79,144.26c1.72-.12,2.47-.76,2.58-2.56a37.4,37.4,0,0,0-.19-3.77,37.81,37.81,0,0,0-4.47,0A2.24,2.24,0,0,0,.29,139v3.83C.8,143.81,1.87,144.4,3.79,144.26Z"/><path class="cls-1" d="M239.54,151.62a2.3,2.3,0,0,0-2.65,1.91,2.47,2.47,0,0,0,2.33,2.85,2.59,2.59,0,0,0,2.46-2.25A2.43,2.43,0,0,0,239.54,151.62Z"/><path class="cls-1" d="M206.87,175.83a2,2,0,0,0,1.68-2.21,2,2,0,0,0-2.08-1.82,2.22,2.22,0,0,0-2,2.52A2.13,2.13,0,0,0,206.87,175.83Z"/><path class="cls-1" d="M199.9,151.13a2.59,2.59,0,0,0-2.83,2.41,3,3,0,0,0,3.07,3.41,2.93,2.93,0,0,0,2.7-2.68A3.28,3.28,0,0,0,199.9,151.13Z"/><path class="cls-1" d="M199.16,137.78a2.51,2.51,0,0,0-2.3,2.88c.08,2,1.38,3.51,3.06,3.49a3.37,3.37,0,0,0,3.25-3.34C203.06,138.78,201.53,137.62,199.16,137.78Z"/><path class="cls-1" d="M206.7,184.71a2.4,2.4,0,0,0-2.28,1.73,2.21,2.21,0,1,0,4.34.78A2.33,2.33,0,0,0,206.7,184.71Z"/><path class="cls-1" d="M212.78,178.14a2.39,2.39,0,0,0-1.92,2.58,2.17,2.17,0,0,0,2.69,1.63,1.94,1.94,0,0,0,1.61-2.2A2.06,2.06,0,0,0,212.78,178.14Z"/><path class="cls-1" d="M206.69,144.53a2.9,2.9,0,0,0-3.14,2.76,3.15,3.15,0,0,0,2.87,3.13,3.09,3.09,0,0,0,3.11-2.83A2.87,2.87,0,0,0,206.69,144.53Z"/><path class="cls-1" d="M245.67,162.67A2.35,2.35,0,0,0,248,160a7.64,7.64,0,0,0-2.11-1.38c-.87-.25-2,1-2.12,1.9A2.24,2.24,0,0,0,245.67,162.67Z"/><path class="cls-1" d="M200.27,191.21a2.09,2.09,0,0,0-2.42,2,2.24,2.24,0,1,0,4.46.46A2.24,2.24,0,0,0,200.27,191.21Z"/><path class="cls-1" d="M199.54,169.21c1,.37,2.34-.7,2.49-1.9a2.11,2.11,0,0,0-2.12-2.31,1.86,1.86,0,0,0-1.93,1.88A2.19,2.19,0,0,0,199.54,169.21Z"/><path class="cls-1" d="M193.6,176.41a11,11,0,0,0,1.7-2.64c.26-1-.77-2-1.77-2-1.16,0-2.42,1.21-2.05,2.29C191.76,174.85,192.65,175.41,193.6,176.41Z"/><path class="cls-1" d="M193.53,184.58a2.79,2.79,0,0,0-2.45,2.22,2.72,2.72,0,0,0,2.22,2.43,2.56,2.56,0,0,0,2.42-2.19A2.69,2.69,0,0,0,193.53,184.58Z"/><path class="cls-1" d="M193.65,157.9a2.55,2.55,0,0,0-2.82,2.36,2.66,2.66,0,0,0,2.91,2.85,2.35,2.35,0,0,0,2.28-2.32A2.75,2.75,0,0,0,193.65,157.9Z"/><path class="cls-1" d="M186.69,151a3.39,3.39,0,0,0-2.93,3.09,3,3,0,0,0,3.1,2.77,2.86,2.86,0,0,0,2.86-3A3.11,3.11,0,0,0,186.69,151Z"/><path class="cls-1" d="M193.51,144.39a3,3,0,0,0-3.14,3.29,3.31,3.31,0,0,0,3.21,2.83,3.12,3.12,0,0,0,2.77-3.18C196.32,145.39,195.35,144.38,193.51,144.39Z"/><path class="cls-1" d="M213.69,165.43a2,2,0,0,0-2.63,1.68c-.07.93.92,2.26,1.85,2.06s1.53-1,2.63-1.77C214.75,166.52,214.33,165.72,213.69,165.43Z"/><path class="cls-1" d="M200.3,182.31a1.94,1.94,0,0,0,1.87-2,2.25,2.25,0,0,0-2.44-2.09,2.14,2.14,0,0,0-1.82,2.14A2,2,0,0,0,200.3,182.31Z"/><path class="cls-1" d="M234.8,160.62a2.2,2.2,0,0,0-2.21-2.3,1.85,1.85,0,0,0-1.63,2.17,1.9,1.9,0,0,0,1.85,2A2,2,0,0,0,234.8,160.62Z"/><path class="cls-1" d="M232.36,171.78c-.78.33-1.31,1.26-1.73,1.68.12,1.71,1.28,2.6,2.53,2.39a2.07,2.07,0,0,0,1.68-2.19C234.71,172.46,233.42,171.33,232.36,171.78Z"/><path class="cls-1" d="M232.84,144.33c-1.92-.06-3.05.82-3.23,2.5a3.06,3.06,0,0,0,2.86,3.51,3.19,3.19,0,0,0,3.28-2.62A3,3,0,0,0,232.84,144.33Z"/><path class="cls-1" d="M239.37,178.12a2.5,2.5,0,0,0-2.32,2.36c0,1.12,1.24,2.2,3,2.11a7,7,0,0,0,1.49-2.05C241.84,179.39,240.54,178.11,239.37,178.12Z"/><path class="cls-1" d="M245.35,171.68a6.51,6.51,0,0,0-1.54,2c-.38,1.12.94,2.38,2.14,2.33a2.39,2.39,0,0,0,2.12-1.94C248.21,172.88,247.08,171.7,245.35,171.68Z"/><path class="cls-1" d="M226.19,150.93a3.11,3.11,0,0,0-2.82,3.08,3.3,3.3,0,0,0,2.69,2.73c1.4.14,2.8-1.45,2.71-3.09A2.89,2.89,0,0,0,226.19,150.93Z"/><path class="cls-1" d="M128.16,171a2.8,2.8,0,0,0-2.85,2.4,2.34,2.34,0,0,0,2,2.55,2.58,2.58,0,0,0,3.07-2A2.62,2.62,0,0,0,128.16,171Z"/><path class="cls-1" d="M241.34,167.39a1.83,1.83,0,0,0-1.72-2.14,2.26,2.26,0,0,0-2.37,1.65,2.11,2.11,0,0,0,2.08,2.43A1.94,1.94,0,0,0,241.34,167.39Z"/><path class="cls-1" d="M219.7,184.5a2.73,2.73,0,0,0-2.44,2.78,2.83,2.83,0,0,0,2.41,2.28,2.53,2.53,0,0,0,0-5.06Z"/><path class="cls-1" d="M213.69,137.83c-2.26-.07-3.79,1-3.84,2.59a3.76,3.76,0,0,0,3,3.76c1.82.25,3.39-1.47,3.39-3.7A2.37,2.37,0,0,0,213.69,137.83Z"/><path class="cls-1" d="M219.7,158.13a2.79,2.79,0,0,0-2.37,2.37,2.53,2.53,0,0,0,2.33,2.34,2.56,2.56,0,0,0,2.35-2.33A2.61,2.61,0,0,0,219.7,158.13Z"/><path class="cls-1" d="M228.25,167.38c.4-1.1-.88-2.22-2.18-2.13-1.08.08-2.06,1.05-1.74,2a12.13,12.13,0,0,0,1.85,2.57C227.09,168.8,228,168.19,228.25,167.38Z"/><path class="cls-1" d="M226.21,178.14a2.14,2.14,0,0,0-2,2,2,2,0,0,0,1.66,2.28,2.17,2.17,0,1,0,.35-4.3Z"/><path class="cls-1" d="M218.85,144.4a2.56,2.56,0,0,0-2.37,2.32,3.24,3.24,0,0,0,2.37,3.94,3.37,3.37,0,0,0,3.93-2.45,16.31,16.31,0,0,0-.16-3.62A35.15,35.15,0,0,0,218.85,144.4Z"/><path class="cls-1" d="M219.87,171.74a2.24,2.24,0,0,0-2.39,2.14,2.07,2.07,0,0,0,2,2,2.21,2.21,0,0,0,2.36-1.56A2.25,2.25,0,0,0,219.87,171.74Z"/><path class="cls-1" d="M206.2,158.09a2.49,2.49,0,0,0-2,2.53,2.3,2.3,0,0,0,4.59-.05A2.31,2.31,0,0,0,206.2,158.09Z"/><path class="cls-1" d="M147.43,191.18a2.19,2.19,0,0,0-2,2.51,2.12,2.12,0,0,0,2,1.95,2.29,2.29,0,0,0,2.36-2.22A2.41,2.41,0,0,0,147.43,191.18Z"/><path class="cls-1" d="M147.34,182.58a2.3,2.3,0,0,0,2.42-2.07,2.38,2.38,0,0,0-2.1-2.43,2.24,2.24,0,0,0-2.39,2.06A2.35,2.35,0,0,0,147.34,182.58Z"/><path class="cls-1" d="M186.94,178.22c-1.19,0-2.21,1-2.2,2.75a6.24,6.24,0,0,0,2,1.36,1.85,1.85,0,0,0,2.12-2.16A2,2,0,0,0,186.94,178.22Z"/><path class="cls-1" d="M154.23,197.91A2.08,2.08,0,0,0,152,199.6c-.19,1.27.69,2.43,2.44,2.61.43-.44,1.34-1,1.64-1.79A2,2,0,0,0,154.23,197.91Z"/><path class="cls-1" d="M147.58,164.14a2.93,2.93,0,0,0-3.07,2.83,2.87,2.87,0,0,0,3.07,2.81,2.74,2.74,0,0,0,2.78-2.53A2.89,2.89,0,0,0,147.58,164.14Z"/><path class="cls-1" d="M154,184.56a2.44,2.44,0,0,0-2.22,2.4,2.28,2.28,0,1,0,4.55-.11A2.46,2.46,0,0,0,154,184.56Z"/><path class="cls-1" d="M141.32,171.34a2.63,2.63,0,0,0-2.88,2.33,2.26,2.26,0,0,0,2.18,2.38,2.38,2.38,0,1,0,.7-4.71Z"/><path class="cls-1" d="M134.74,204.6c-1-.44-2.39.94-2.42,2.11a2,2,0,0,0,2.57,1.83c.66-.14,1.18-.92,2-1.65C136.05,205.93,135.53,205,134.74,204.6Z"/><path class="cls-1" d="M134.27,195.58a2.28,2.28,0,0,0,2.29-2.29,2,2,0,0,0-2-1.89,2.35,2.35,0,0,0-2.32,1.66A2.42,2.42,0,0,0,134.27,195.58Z"/><path class="cls-1" d="M141.12,184.52a2.39,2.39,0,0,0-2.51,2.14,2.5,2.5,0,0,0,2.11,2.56,2.66,2.66,0,0,0,2.59-2.13A2.79,2.79,0,0,0,141.12,184.52Z"/><path class="cls-1" d="M128.06,157.45c-2,0-3.45,1.25-3.39,3a3.07,3.07,0,0,0,3.29,3.14,3,3,0,0,0,3.06-3.29A2.84,2.84,0,0,0,128.06,157.45Z"/><path class="cls-1" d="M134.2,182.47a2.48,2.48,0,0,0,2.64-1.93,2.37,2.37,0,0,0-2.07-2.47,2.22,2.22,0,1,0-.57,4.4Z"/><path class="cls-1" d="M141,197.9a2.27,2.27,0,0,0-2.16,1.75,2.34,2.34,0,0,0,2.47,2.43c.43-.46,1.32-1,1.64-1.82C143.38,199.19,142.18,197.91,141,197.9Z"/><path class="cls-1" d="M154.07,175.88a2.2,2.2,0,0,0,2.19-2.37,2.27,2.27,0,0,0-2.5-2.08,2.09,2.09,0,0,0-1.89,2.09A2.19,2.19,0,0,0,154.07,175.88Z"/><path class="cls-1" d="M134.39,164.16a3,3,0,0,0-3,2.84,3.18,3.18,0,0,0,3,3,3,3,0,0,0,2.95-2.92A2.78,2.78,0,0,0,134.39,164.16Z"/><path class="cls-1" d="M141.06,157.31c-2.46-.05-3.44.75-3.43,2.81,0,2.29,1.4,3.8,3.42,3.72s3.26-1.63,3.21-4C144.22,158.13,143.25,157.35,141.06,157.31Z"/><path class="cls-1" d="M180.67,171.73c-1-.46-2.38.72-2.54,1.91a2,2,0,0,0,2.22,2.16c.82-.19,1.49-1,2.56-1.78C182,173,181.46,172.08,180.67,171.73Z"/><path class="cls-1" d="M180.51,184.59a2.54,2.54,0,0,0-2.45,2.19,2.41,2.41,0,0,0,2.11,2.48,2.24,2.24,0,0,0,2.38-2.15A2.39,2.39,0,0,0,180.51,184.59Z"/><path class="cls-1" d="M173.5,164.25a2.62,2.62,0,0,0-2.61,2.66,2.68,2.68,0,0,0,3.05,2.74,2.71,2.71,0,0,0,2.35-2.92A2.65,2.65,0,0,0,173.5,164.25Z"/><path class="cls-1" d="M186.43,191.08a2.38,2.38,0,0,0-1.86,2.67,2.53,2.53,0,0,0,2.65,2,2.19,2.19,0,0,0,1.83-2.63A2.49,2.49,0,0,0,186.43,191.08Z"/><path class="cls-1" d="M187.16,164.82a2.35,2.35,0,0,0-2.53,2,2.24,2.24,0,0,0,2,2.47,2,2,0,0,0,2.19-1.73A2.38,2.38,0,0,0,187.16,164.82Z"/><path class="cls-1" d="M153.59,157.34a2.78,2.78,0,0,0-2.73,3.14,3,3,0,0,0,3.29,3.19,3.18,3.18,0,0,0,3.09-3.49C157.12,158.36,155.65,157.22,153.59,157.34Z"/><path class="cls-1" d="M173.75,182.57a2.38,2.38,0,0,0,2.23-2.4,2.36,2.36,0,0,0-2.52-2.07,2.38,2.38,0,0,0-2,2.63A2.45,2.45,0,0,0,173.75,182.57Z"/><path class="cls-1" d="M180.52,157.53a3.17,3.17,0,0,0-3.31,2.61,2.88,2.88,0,0,0,2.64,3.2,3.2,3.2,0,0,0,3.41-2.52A3.47,3.47,0,0,0,180.52,157.53Z"/><path class="cls-1" d="M162.83,180.45a2.26,2.26,0,0,0-2.1-2.39,2.41,2.41,0,0,0-2.25,2.32,2.18,2.18,0,0,0,4.35.07Z"/><path class="cls-1" d="M160.83,191.11a2.37,2.37,0,0,0-2.45,2.08,2.31,2.31,0,0,0,2,2.47,2.55,2.55,0,0,0,2.51-2.09A2.48,2.48,0,0,0,160.83,191.11Z"/><path class="cls-1" d="M160.6,164.23c-1.61,0-2.68,1.39-2.54,3.23a2.27,2.27,0,0,0,2.41,2.17,2.71,2.71,0,1,0,.13-5.4Z"/><path class="cls-1" d="M173.55,191a2.5,2.5,0,0,0-2.14,2.45,2.7,2.7,0,0,0,2.37,2.28,2.27,2.27,0,0,0,2.29-2.69A2.53,2.53,0,0,0,173.55,191Z"/><path class="cls-1" d="M167,171.44a2.36,2.36,0,0,0-2.14,2.5,2.49,2.49,0,0,0,2.61,2.05,2.37,2.37,0,0,0,2.14-2.52A2.45,2.45,0,0,0,167,171.44Z"/><path class="cls-1" d="M167.51,197.91a2.42,2.42,0,0,0-2.61,2,2.35,2.35,0,0,0,2,2.58,2.49,2.49,0,0,0,2.6-2A2.27,2.27,0,0,0,167.51,197.91Z"/><path class="cls-1" d="M166.84,184.72a2.39,2.39,0,0,0-2.08,2.55,2.57,2.57,0,0,0,2.67,2,2.65,2.65,0,0,0,2.08-2.6A2.42,2.42,0,0,0,166.84,184.72Z"/><path class="cls-1" d="M213.09,150.88c-1.44-.09-2.73,1.34-2.8,3.09a2.77,2.77,0,0,0,2.51,2.76,3.09,3.09,0,0,0,3.14-2.76A3.15,3.15,0,0,0,213.09,150.88Z"/><path class="cls-1" d="M350.75,105.1a3.12,3.12,0,0,0-2.57,3.4,2.87,2.87,0,0,0,3,2.36,2.78,2.78,0,0,0,2.5-3.32A3,3,0,0,0,350.75,105.1Z"/><path class="cls-1" d="M325,131.32c-1.77,0-3.23,1.07-3.28,2.52a3.92,3.92,0,0,0,3.47,3.78,2.36,2.36,0,0,0,2.72-2.33C328.06,132.86,327,131.36,325,131.32Z"/><path class="cls-1" d="M245.51,144.74a2.42,2.42,0,0,0-2.18,2.43,2.57,2.57,0,0,0,2.55,2.68,2.35,2.35,0,0,0,2.51-2.08A3,3,0,0,0,245.51,144.74Z"/><path class="cls-1" d="M344.48,112.1a2.71,2.71,0,0,0-2.7,2.6,2.5,2.5,0,0,0,2.4,2.81A2.91,2.91,0,0,0,347,115,2.87,2.87,0,0,0,344.48,112.1Z"/><path class="cls-1" d="M304.74,125.58a2.51,2.51,0,0,0-2.14,2.5,2.26,2.26,0,0,0,2.46,2.08,2.31,2.31,0,0,0,2.12-2.44A2.37,2.37,0,0,0,304.74,125.58Z"/><path class="cls-1" d="M384.24,77.68A2.59,2.59,0,0,0,386.09,75c-.08-1.57-1.22-2.86-2.45-2.78a3.11,3.11,0,0,0-2.52,3.35A3.07,3.07,0,0,0,384.24,77.68Z"/><path class="cls-1" d="M305.05,116.8c.85-.26,1.5-1.15,2-1.56,0-2-1.12-3.31-2.47-3.34a2.38,2.38,0,0,0-2.24,1.81C302.25,115.45,303.69,117.22,305.05,116.8Z"/><path class="cls-1" d="M291.73,138.74a2.5,2.5,0,0,0-2.26,2.83,2.36,2.36,0,0,0,2.7,1.74,2.34,2.34,0,0,0,2-2.48A2.38,2.38,0,0,0,291.73,138.74Z"/><path class="cls-1" d="M298.33,123.47a2.35,2.35,0,0,0,2.26-2.28,2.41,2.41,0,0,0-2.52-2,2.18,2.18,0,0,0-1.94,2.51A2.39,2.39,0,0,0,298.33,123.47Z"/><path class="cls-1" d="M363,83.74c1.36.38,2.86,0,3.19-.95.42-1.2-.34-2-1.19-2.61a10.28,10.28,0,0,0-1.62-.86,6.83,6.83,0,0,0-1.05.73,2.82,2.82,0,0,0-.54.88C361.25,82.31,361.72,83.37,363,83.74Z"/><path class="cls-1" d="M298.61,136.82a2.55,2.55,0,0,0,2.18-2.46,2.69,2.69,0,0,0-2.34-2.35,2.47,2.47,0,0,0-2.35,2.76A2.37,2.37,0,0,0,298.61,136.82Z"/><path class="cls-1" d="M298.16,145.27a2.39,2.39,0,1,0,.37,4.76,2.47,2.47,0,0,0,2.29-2.31A2.5,2.5,0,0,0,298.16,145.27Z"/><path class="cls-1" d="M298.3,158.47a2.63,2.63,0,0,0-2.29,2.81,2.72,2.72,0,0,0,2.68,1.85,2.48,2.48,0,0,0,2-2.5A2.52,2.52,0,0,0,298.3,158.47Z"/><path class="cls-1" d="M371.85,86.09a2.83,2.83,0,0,0-3.34.76c-1.18,1.27-2.2,2.68-3.31,4.05-2,.2-4-.36-5.76,1.48.09.56.13.91.21,1.24.66,2.63.36,3.68-1.26,4.37-1.33.56-2.33,0-3.62-2.12a11.65,11.65,0,0,0-1.39-2.15c-1.77-1.82-3.95-1.45-5.08.79a1.43,1.43,0,0,0-.14.5c-.13,2.11-1.49,3-3.34,3.46a8,8,0,0,0-1.93.81,2.74,2.74,0,0,0,1.56,5.22,2.56,2.56,0,0,0,2.79-1.88c.19-.67.19-1.4.43-2.05a3.18,3.18,0,0,1,2.85-2,3.42,3.42,0,0,1,3.4,1.93c.25.63.21,1.38.4,2a2.87,2.87,0,0,0,2.72,2.08,3.13,3.13,0,0,0,3.34-2,34.31,34.31,0,0,0,.83-3.61l5.39-1.44c.81-2,.55-4.14,2.61-5.43h4c.18-1.24.35-2.24.47-3.25A2.52,2.52,0,0,0,371.85,86.09Z"/><path class="cls-1" d="M357.19,91a2.4,2.4,0,0,0,2.36-2.27c.09-1.25-1-2.18-2.8-2.45a1.79,1.79,0,0,0-1.93,1.9A2.57,2.57,0,0,0,357.19,91Z"/><path class="cls-1" d="M337.84,118.64a2.89,2.89,0,0,0-.37,5.76,3.06,3.06,0,0,0,3.16-2.71A3,3,0,0,0,337.84,118.64Z"/><path class="cls-1" d="M331.08,104a2.45,2.45,0,0,0,2.39-2.22A2.58,2.58,0,0,0,331,99a2.28,2.28,0,0,0-2.31,1.61A2.87,2.87,0,0,0,331.08,104Z"/><path class="cls-1" d="M317.82,138.16a2.57,2.57,0,0,0,.2,5.11,2.62,2.62,0,0,0,2.56-2.6A2.85,2.85,0,0,0,317.82,138.16Z"/><path class="cls-1" d="M324.63,110.54a2.69,2.69,0,0,0,2.36-2.27,2.46,2.46,0,0,0-2-2.55,2.56,2.56,0,0,0-2.68,2.44A2.84,2.84,0,0,0,324.63,110.54Z"/><path class="cls-1" d="M324.84,124a2.78,2.78,0,0,0,2.57-2.7,2.21,2.21,0,0,0-2.26-2.27,2.5,2.5,0,1,0-.31,5Z"/><path class="cls-1" d="M330.84,117.78a3.31,3.31,0,0,0,3.32-3.25,2.91,2.91,0,0,0-2.58-2.75,3.18,3.18,0,0,0-3.32,3.21A2.93,2.93,0,0,0,330.84,117.78Z"/><path class="cls-1" d="M318.53,116.93c.4-.51,1.27-1.17,1.48-2a2.05,2.05,0,0,0-2-2.43,2.43,2.43,0,0,0-2.09,2A2.49,2.49,0,0,0,318.53,116.93Z"/><path class="cls-1" d="M318.25,125.48a2.55,2.55,0,0,0-2.63,2.62,2.66,2.66,0,0,0,2.64,2.66,2.5,2.5,0,0,0,2.62-2.6A2.7,2.7,0,0,0,318.25,125.48Z"/><path class="cls-1" d="M304.61,151.82a2.34,2.34,0,0,0-1.93,2.61,2.26,2.26,0,0,0,2.61,1.91,2.38,2.38,0,0,0,1.93-2.63A2.24,2.24,0,0,0,304.61,151.82Z"/><path class="cls-1" d="M330.56,124.81c-1.77.37-2.7,1.93-2.41,4,.21,1.51,1,2.12,3,2.16a26.63,26.63,0,0,0,3.09-.38,15.36,15.36,0,0,0-.05-3.53A3.21,3.21,0,0,0,330.56,124.81Z"/><path class="cls-1" d="M311.86,131.87a2.63,2.63,0,0,0-2.89,2.38,2.71,2.71,0,0,0,2.55,2.77,2.5,2.5,0,0,0,2.88-2.35A2.8,2.8,0,0,0,311.86,131.87Z"/><path class="cls-1" d="M337.34,110.78a2.58,2.58,0,0,0,2.72-2.56,2.45,2.45,0,0,0-2.52-2.68,3,3,0,0,0-2.82,2.58A2.63,2.63,0,0,0,337.34,110.78Z"/><path class="cls-1" d="M311.24,145.28a2.17,2.17,0,0,0-2.05,2.44,2.43,2.43,0,0,0,2.51,2.13,2.07,2.07,0,0,0,2-2.44A2.28,2.28,0,0,0,311.24,145.28Z"/><path class="cls-1" d="M311.63,123.23a1.84,1.84,0,0,0,1.8-2.06c-.1-1.16-1-2-2.55-1.8a6.38,6.38,0,0,0-1.29,2C309.38,122.42,310.52,123.27,311.63,123.23Z"/><path class="cls-1" d="M305.24,138.55a2.66,2.66,0,0,0-2.77,2.52,2.48,2.48,0,0,0,2.82,2.36,2.18,2.18,0,0,0,2.14-2.44A2.36,2.36,0,0,0,305.24,138.55Z"/><path class="cls-1" d="M371.37,98.49A2.94,2.94,0,0,0,368,101c-.13,1.61.78,3.06,2,3.21a3.13,3.13,0,0,0,3.45-2.48C373.59,100.33,372.51,98.66,371.37,98.49Z"/><path class="cls-1" d="M265.67,165.22a2,2,0,0,0-2.24,1.62,2.28,2.28,0,0,0,2.3,2.66,2,2,0,0,0,1.93-1.91A2,2,0,0,0,265.67,165.22Z"/><path class="cls-1" d="M265.41,151.92a2.33,2.33,0,0,0-2,2.08,2.13,2.13,0,0,0,2.36,2.18,2,2,0,0,0,2-2A2.26,2.26,0,0,0,265.41,151.92Z"/><path class="cls-1" d="M265.45,143.24a2.32,2.32,0,0,0,2.3-2.22,2.37,2.37,0,0,0-2.24-2.29,2.33,2.33,0,0,0-2.31,2.2A2.38,2.38,0,0,0,265.45,143.24Z"/><path class="cls-1" d="M272.11,158.47a2.27,2.27,0,0,0-2.14,2.39,2.38,2.38,0,0,0,2,2.06,2.74,2.74,0,0,0,2.5-2.17A2.49,2.49,0,0,0,272.11,158.47Z"/><path class="cls-1" d="M272,145.25a2.23,2.23,0,1,0,.33,4.44,2.3,2.3,0,0,0,2.21-2.41A2.24,2.24,0,0,0,272,145.25Z"/><path class="cls-1" d="M272.63,136.57c.44-.48,1.36-1.09,1.65-1.92.43-1.2-1.06-2.73-2.39-2.75a2.45,2.45,0,0,0-2.2,2.43A2.83,2.83,0,0,0,272.63,136.57Z"/><path class="cls-1" d="M291.86,151.68a2.34,2.34,0,0,0-2.35,2.2,2.22,2.22,0,0,0,2,2.48,2.44,2.44,0,0,0,2.64-2.44A2.3,2.3,0,0,0,291.86,151.68Z"/><path class="cls-1" d="M252.51,178a2.49,2.49,0,0,0-2.38,2.22,2.6,2.6,0,0,0,2.41,2.75,2.49,2.49,0,0,0,0-5Z"/><path class="cls-1" d="M252.55,151.85a1.83,1.83,0,0,0-2.11,1.7c-.12,1.32.75,2.6,2,2.46.84-.1,1.59-.88,2.15-1.21A2.45,2.45,0,0,0,252.55,151.85Z"/><path class="cls-1" d="M250.48,167.06a2,2,0,1,0,4,.06,1.85,1.85,0,0,0-2-1.91A1.94,1.94,0,0,0,250.48,167.06Z"/><path class="cls-1" d="M278.65,138.71a2.43,2.43,0,0,0-2.29,2.38,2.37,2.37,0,0,0,2.36,2.27A2.25,2.25,0,0,0,281,141,2.5,2.5,0,0,0,278.65,138.71Z"/><path class="cls-1" d="M259.5,145.32a2.22,2.22,0,1,0-.77,4.37,2.2,2.2,0,0,0,2.48-2.09A2.16,2.16,0,0,0,259.5,145.32Z"/><path class="cls-1" d="M256.88,160.6c-.3,1.12,1.1,2.29,2.32,2.19a2.25,2.25,0,0,0,2-2.07,2.4,2.4,0,0,0-2.84-2.17A6.61,6.61,0,0,0,256.88,160.6Z"/><path class="cls-1" d="M252.58,138a2.73,2.73,0,0,0-3,2.79,2.64,2.64,0,0,0,2.67,2.6,2.51,2.51,0,0,0,2.7-2.52A2.65,2.65,0,0,0,252.58,138Z"/><path class="cls-1" d="M259.13,171.59a2.24,2.24,0,0,0-2.37,2.21,2.12,2.12,0,0,0,2.2,2.32,2.2,2.2,0,0,0,2.37-2.19A2.17,2.17,0,0,0,259.13,171.59Z"/><path class="cls-1" d="M258.6,131.11a2.6,2.6,0,0,0-2.79,2.95,3,3,0,0,0,2.84,3.07,3.14,3.14,0,0,0,3.14-3.34A2.89,2.89,0,0,0,258.6,131.11Z"/><path class="cls-1" d="M387.41,80a3.66,3.66,0,0,0,0,3.91,3.16,3.16,0,0,0,3.18,1.28,3,3,0,0,0,2.68-2.72,38.07,38.07,0,0,0-.29-4.39c-1.3.27-2.63.48-3.9.85A3,3,0,0,0,387.41,80Z"/><path class="cls-1" d="M384.49,85.38c-1-.21-2-.29-2.94-.41-1.15-1.79-2.08-3.46-3.22-5-.86-1.13-2.67-.8-3.49.56a6.92,6.92,0,0,0-.55,1.74c1.18,2.6,3.48,3,5.77,3.7.12,1.07.21,2.09.36,3.11a3,3,0,0,0,4.17,2.48,3.63,3.63,0,0,0,2.19-3.77A2.7,2.7,0,0,0,384.49,85.38Z"/><path class="cls-1" d="M396.33,73.19a2.92,2.92,0,0,0-1.62,1.11,33.36,33.36,0,0,0-1.6,3.67,6,6,0,0,0,4.81.18,2.61,2.61,0,1,0-1.59-5Z"/><path class="cls-1" d="M374.71,92.21c-.65,1.94-1.89,3.54,0,5.05a3,3,0,0,0,4.25,0c1-.9,1.56-3.09.81-4.28C378.53,91.06,376.71,91.92,374.71,92.21Z"/><path class="cls-1" d="M278.36,151.88a2.34,2.34,0,0,0-1.74,2.68,2.15,2.15,0,0,0,2.27,1.59,2.18,2.18,0,0,0,2-2.41A2.26,2.26,0,0,0,278.36,151.88Z"/><path class="cls-1" d="M291.51,130.28a2.35,2.35,0,0,0,2.54-2.08,2.39,2.39,0,0,0-2-2.58,2.34,2.34,0,0,0-.5,4.66Z"/><path class="cls-1" d="M285.43,149.66a2.21,2.21,0,0,0,2-2.42,2.16,2.16,0,0,0-2.44-2,2,2,0,0,0-2,2.34A2.28,2.28,0,0,0,285.43,149.66Z"/><path class="cls-1" d="M285.11,158.32a2.43,2.43,0,0,0-2.14,2.5,2.38,2.38,0,0,0,2.37,2.27,2.43,2.43,0,0,0,2.14-2.51A2.34,2.34,0,0,0,285.11,158.32Z"/><path class="cls-1" d="M285.36,136.77a2.25,2.25,0,0,0,2-3c-.32-.8-1.24-1.35-1.69-1.81a2.73,2.73,0,0,0-2.65,2.52A2.46,2.46,0,0,0,285.36,136.77Z"/><path class="cls-1" d="M278.52,164.8a2.54,2.54,0,1,0,.74,5,2.28,2.28,0,0,0,1.91-2.55A2.57,2.57,0,0,0,278.52,164.8Z"/><path class="cls-1" d="M402.65,66.75a6.79,6.79,0,0,0-1.17,2.15,1.83,1.83,0,0,0,2.27,2,2,2,0,0,0,1.81-2.07A2.56,2.56,0,0,0,402.65,66.75Z"/><path class="cls-1" d="M278.71,129.93a2.39,2.39,0,0,0,2.27-2.34,2.76,2.76,0,0,0-2.89-2.92,2.58,2.58,0,0,0-2.29,2.39A2.71,2.71,0,0,0,278.71,129.93Z"/><path class="cls-1" d="M409.08,72.28a3,3,0,0,0-2.26,3.55,3.24,3.24,0,0,0,3.86,2.56,2.93,2.93,0,0,0,2.32-3,14.94,14.94,0,0,0-.87-3.17A14.06,14.06,0,0,0,409.08,72.28Z"/><path class="cls-1" d="M409.66,64.43A2.39,2.39,0,0,0,412,62.17a2.62,2.62,0,0,0-2.16-2.51A2.56,2.56,0,0,0,407.48,62,2.52,2.52,0,0,0,409.66,64.43Z"/><path class="cls-1" d="M363.73,105.48a3,3,0,0,0-2.72,3.13c.08,1.62,1.47,2.6,3.3,2.33,1.64-.24,2.68-1.34,2.55-2.68A3.1,3.1,0,0,0,363.73,105.48Z"/><path class="cls-1" d="M9.59,184.13a2.69,2.69,0,0,0-2.45,2.78,2.59,2.59,0,0,0,2.6,2.61,2.88,2.88,0,0,0,2.7-3.12A2.5,2.5,0,0,0,9.59,184.13Z"/><path class="cls-1" d="M9.79,170.71a2.82,2.82,0,0,0-2.87,2.92,3.06,3.06,0,0,0,2.73,3.15,3.12,3.12,0,0,0,3.19-3.24A3,3,0,0,0,9.79,170.71Z"/><path class="cls-1" d="M9.89,197.66a2.29,2.29,0,0,0-2.52,2,2.23,2.23,0,0,0,2.18,2.37,2.32,2.32,0,0,0,2.53-2A2.34,2.34,0,0,0,9.89,197.66Z"/><path class="cls-1" d="M16.58,218a1.57,1.57,0,0,0-1.88,1.75c.18.66.87,1.19,1.6,2.11.73-.92,1.42-1.44,1.61-2.1C18.17,218.84,17.5,218.2,16.58,218Z"/><path class="cls-1" d="M16.23,203.94a10.89,10.89,0,0,0-1.66,2.74c-.22,1,.89,1.86,1.95,1.75s2.11-1.2,1.76-2A13.12,13.12,0,0,0,16.23,203.94Z"/><path class="cls-1" d="M10.07,211.15a2.08,2.08,0,0,0-2,2.29A1.67,1.67,0,0,0,10,214.81a1.64,1.64,0,0,0,1.49-2.16C11.18,212,10.44,211.53,10.07,211.15Z"/><path class="cls-1" d="M10.29,157.35a3.34,3.34,0,0,0-3.58,3.52,3.2,3.2,0,0,0,6.39,0C13.26,158.71,12.21,157.41,10.29,157.35Z"/><path class="cls-1" d="M3.13,204.41a2.28,2.28,0,0,0-2,2.54,2.18,2.18,0,0,0,2.39,1.56,2.09,2.09,0,0,0,1.71-2.25A2,2,0,0,0,3.13,204.41Z"/><path class="cls-1" d="M3.28,190.73a2.51,2.51,0,0,0-2.54,2.66,2.43,2.43,0,0,0,2.2,2.45,2.62,2.62,0,0,0,2.89-2.33A2.87,2.87,0,0,0,3.28,190.73Z"/><path class="cls-1" d="M16.22,190.8a2.86,2.86,0,0,0-2.45,2.87,2.54,2.54,0,0,0,2.56,2.12,2.22,2.22,0,0,0,2.38-2.21A2.63,2.63,0,0,0,16.22,190.8Z"/><path class="cls-1" d="M3.43,217.85c-1-.16-1.9.72-1.88,2.29a5.22,5.22,0,0,0,1.55,1.21c.95.3,1.92-.75,1.87-1.81A1.66,1.66,0,0,0,3.43,217.85Z"/><path class="cls-1" d="M74.52,224.47h1.9A1.55,1.55,0,0,0,74.52,224.47Z"/><path class="cls-1" d="M29.56,191.05a2.3,2.3,0,0,0-2.42,2.18,2.35,2.35,0,0,0,2.12,2.51,2.49,2.49,0,0,0,2.48-2.21A2.44,2.44,0,0,0,29.56,191.05Z"/><path class="cls-1" d="M36.39,184.27a2.65,2.65,0,0,0-2.84,2.31,2.59,2.59,0,0,0,2.39,2.76,2.4,2.4,0,0,0,2.5-2.05A2.59,2.59,0,0,0,36.39,184.27Z"/><path class="cls-1" d="M29.62,177.24c-1.41-.14-2.82,1.45-2.73,3.06A2.69,2.69,0,0,0,29.42,183a2.88,2.88,0,0,0,2.81-3A3.13,3.13,0,0,0,29.62,177.24Z"/><path class="cls-1" d="M28.71,164.15a2.89,2.89,0,0,0-2.51,3.35,3.18,3.18,0,0,0,3.08,2.94,3,3,0,0,0,3.27-2.66,23.49,23.49,0,0,0-.2-3.49A26.14,26.14,0,0,0,28.71,164.15Z"/><path class="cls-1" d="M29.35,217.42c-.65,1-1.29,1.65-1.39,2.33-.13,1,.68,1.57,1.62,1.51s1.74-.66,1.48-1.66C30.88,218.93,30.15,218.41,29.35,217.42Z"/><path class="cls-1" d="M36.13,198a2.09,2.09,0,0,0-2.06,1.94c-.11,1.09.82,2.33,1.78,2.06a6.87,6.87,0,0,0,2.06-1.39C38.07,199,37.18,198,36.13,198Z"/><path class="cls-1" d="M34.46,212.93a1.39,1.39,0,0,0,1.37,1.78,1.43,1.43,0,0,0,1.75-1.44c0-.68-.68-1.33-1.3-2.42C35.42,211.79,34.65,212.27,34.46,212.93Z"/><path class="cls-1" d="M22.57,184.13a2.87,2.87,0,0,0-2.38,2.93,2.79,2.79,0,0,0,2.93,2.41,2.92,2.92,0,0,0,2.4-2.95A2.81,2.81,0,0,0,22.57,184.13Z"/><path class="cls-1" d="M22.83,211.44c-.7.19-1.26.9-2.22,1.63.95.72,1.51,1.42,2.21,1.61a1.51,1.51,0,0,0,1.87-1.34A1.66,1.66,0,0,0,22.83,211.44Z"/><path class="cls-1" d="M16.84,150.81c-2.35-.26-3.49.55-3.65,2.59-.2,2.52.53,3.66,2.43,3.81,2.49.21,3.77-.53,4-2.28C19.93,152.35,19.06,151.05,16.84,150.81Z"/><path class="cls-1" d="M16.52,164.08c-2.12-.05-3.37,1.09-3.3,3a3.35,3.35,0,0,0,3.31,3.26,3.25,3.25,0,0,0,3.07-2.94A3,3,0,0,0,16.52,164.08Z"/><path class="cls-1" d="M22.34,157.34c-1.85.11-2.67,1.08-2.65,3.12,0,2.41,1.26,3.64,3.51,3.49s3-1.16,2.92-3.49S24.89,157.18,22.34,157.34Z"/><path class="cls-1" d="M22.91,197.88c-1.2-.28-2.2,1-2.08,2.24a2,2,0,0,0,2,1.88c1.26,0,2.23-1,2.07-2.78A6.35,6.35,0,0,0,22.91,197.88Z"/><path class="cls-1" d="M22.9,170.64a2.9,2.9,0,0,0-3,2.88,3.14,3.14,0,0,0,3.32,3.21,3.2,3.2,0,0,0,2.83-3.2A3.14,3.14,0,0,0,22.9,170.64Z"/><path class="cls-1" d="M16.2,177.17a3,3,0,0,0-2.66,3.18,3,3,0,0,0,3,2.81A3.07,3.07,0,0,0,19.29,180,3.2,3.2,0,0,0,16.2,177.17Z"/><path class="cls-1" d="M29.49,204.57c-1,.05-2.14,1.16-1.85,2a3.11,3.11,0,0,0,1.59,1.66c1,.4,2-.55,2.06-1.63A1.92,1.92,0,0,0,29.49,204.57Z"/><path class="cls-1" d="M127.74,184.57a2.44,2.44,0,0,0-2.08,2.54c.1,1.14,1.49,2.35,2.58,1.92.83-.32,1.41-1.26,1.87-1.71C130.07,185.69,128.83,184.48,127.74,184.57Z"/><path class="cls-1" d="M94.78,204.78a1.64,1.64,0,0,0-1.51,1.73c0,1.1.94,1.93,2.42,1.77a5.63,5.63,0,0,0,1.06-1.7C97,205.64,95.79,204.6,94.78,204.78Z"/><path class="cls-1" d="M94.87,164.11a2.89,2.89,0,0,0-2.74,3.11A3.11,3.11,0,0,0,95.29,170a2.91,2.91,0,0,0,2.73-3.1A3,3,0,0,0,94.87,164.11Z"/><path class="cls-1" d="M95.25,177.91a2.48,2.48,0,0,0-2.68,2.51,2.47,2.47,0,0,0,4.92-.14A2.26,2.26,0,0,0,95.25,177.91Z"/><path class="cls-1" d="M95.24,191.49a1.87,1.87,0,0,0-2.08,1.78A2.07,2.07,0,0,0,95,195.38a2.25,2.25,0,0,0,2.12-1.87A1.89,1.89,0,0,0,95.24,191.49Z"/><path class="cls-1" d="M101.7,211.26A2,2,0,0,0,99.64,213a2,2,0,0,0,3.92.2A1.85,1.85,0,0,0,101.7,211.26Z"/><path class="cls-1" d="M101.51,171.06a2.73,2.73,0,0,0-2.5,2.75,2.54,2.54,0,1,0,2.5-2.75Z"/><path class="cls-1" d="M103.52,199.82a1.93,1.93,0,0,0-2.17-1.74,1.9,1.9,0,0,0,.27,3.78A2,2,0,0,0,103.52,199.82Z"/><path class="cls-1" d="M101.52,184.59a2.12,2.12,0,0,0-2,1.94,2.16,2.16,0,1,0,4.29.28A2.17,2.17,0,0,0,101.52,184.59Z"/><path class="cls-1" d="M86,157.54c-1.05,2-1.45,3.78.13,5.42a3.55,3.55,0,0,0,4.33.29c1.94-1.38,1.31-3.32,1-5.71Z"/><path class="cls-1" d="M102.11,157.41a22.38,22.38,0,0,0-3.65.35,22.59,22.59,0,0,0,0,3.56,3.34,3.34,0,0,0,3.46,2.55,3.56,3.56,0,0,0,2.82-3.81A2.63,2.63,0,0,0,102.11,157.41Z"/><path class="cls-1" d="M81.69,164.09a2.69,2.69,0,0,0-2.79,2.53,3.29,3.29,0,0,0,2.88,3.7,3.06,3.06,0,0,0,3.07-2.92A3,3,0,0,0,81.69,164.09Z"/><path class="cls-1" d="M81.87,177.75a2.47,2.47,0,0,0-2.54,2.63A2.7,2.7,0,0,0,82,183a3.11,3.11,0,0,0,2.63-2.76A2.55,2.55,0,0,0,81.87,177.75Z"/><path class="cls-1" d="M88.52,210.93c-.73.88-1.47,1.41-1.65,2.09-.24.92.41,1.62,1.4,1.78S90.51,214,90.2,213C90,212.35,89.26,211.82,88.52,210.93Z"/><path class="cls-1" d="M36.18,170.6A3.05,3.05,0,0,0,33,173.91a3.13,3.13,0,0,0,3.17,2.84,3.08,3.08,0,0,0,0-6.15Z"/><path class="cls-1" d="M80.27,206.93c.21.49,1.09,1.17,1.39,1a12.66,12.66,0,0,0,2.57-1.89c-1.18-.62-1.82-1.2-2.5-1.25A1.57,1.57,0,0,0,80.27,206.93Z"/><path class="cls-1" d="M88.47,184.49a2.45,2.45,0,0,0-2.2,2.47,2.6,2.6,0,0,0,2,2.17A2.53,2.53,0,0,0,90.76,187,2.74,2.74,0,0,0,88.47,184.49Z"/><path class="cls-1" d="M88.56,198.1a1.77,1.77,0,0,0-1.82,2,1.73,1.73,0,0,0,1.51,1.77,1.92,1.92,0,0,0,2.13-1.73A1.87,1.87,0,0,0,88.56,198.1Z"/><path class="cls-1" d="M120.9,182.3c1.16.13,1.85-.51,1.95-1.82s-.41-2.28-1.35-2.41a2.16,2.16,0,0,0-2.37,2.14A1.92,1.92,0,0,0,120.9,182.3Z"/><path class="cls-1" d="M121.57,191.48a1.94,1.94,0,0,0-2.27,1.57c-.16,1.21.94,2.68,2,2.39a6.49,6.49,0,0,0,2-1.4A2,2,0,0,0,121.57,191.48Z"/><path class="cls-1" d="M121.16,204.67c-1-.23-1.84.94-1.78,2a1.91,1.91,0,0,0,2.05,1.8,2.08,2.08,0,0,0,1.78-2.49A6.91,6.91,0,0,0,121.16,204.67Z"/><path class="cls-1" d="M121.5,164.33a2.9,2.9,0,0,0-3,2.82,2.73,2.73,0,0,0,2.61,2.65,2.7,2.7,0,0,0,3-2.79A2.63,2.63,0,0,0,121.5,164.33Z"/><path class="cls-1" d="M108.36,204.73a1.91,1.91,0,0,0-2,1.89,1.72,1.72,0,0,0,1.44,1.8,1.81,1.81,0,0,0,2.18-1.56A1.86,1.86,0,0,0,108.36,204.73Z"/><path class="cls-1" d="M114.41,157.38a3.09,3.09,0,0,0-2.79,3.63A3,3,0,0,0,115,163.5a3,3,0,0,0,2.89-3A3.36,3.36,0,0,0,114.41,157.38Z"/><path class="cls-1" d="M121.31,150.81c-2.17-.07-3.18.93-3.19,3.16s1,3.28,3.13,3.25a3,3,0,0,0,3.3-3.2C124.61,152,123.51,150.87,121.31,150.81Z"/><path class="cls-1" d="M127.72,198a1.88,1.88,0,0,0-1.8,2,2.19,2.19,0,0,0,2.54,1.81,6.24,6.24,0,0,0,1.28-2C129.94,198.83,128.79,198,127.72,198Z"/><path class="cls-1" d="M108.15,178a2.24,2.24,0,0,0-2.34,2.22,2.33,2.33,0,0,0,4.66.11A2.51,2.51,0,0,0,108.15,178Z"/><path class="cls-1" d="M108.33,191.5a2,2,0,0,0-2.11,1.8c0,1,.92,2.26,1.82,2.07a5.94,5.94,0,0,0,2-1.31C110.2,192.46,109.4,191.53,108.33,191.5Z"/><path class="cls-1" d="M107.73,164.33a2.74,2.74,0,1,0,.88,5.41,2.7,2.7,0,0,0,2.27-2.9A2.64,2.64,0,0,0,107.73,164.33Z"/><path class="cls-1" d="M112.49,187c.13,1.1,1.68,2.37,2.64,1.91s1.36-1.32,2.31-2.29c-1.07-.8-1.76-1.64-2.62-1.87C113.74,184.49,112.38,186,112.49,187Z"/><path class="cls-1" d="M114.7,176.08a2.36,2.36,0,0,0,2.46-2.13,2.73,2.73,0,0,0-2.4-2.85,2.7,2.7,0,0,0-2.46,2.79A2.4,2.4,0,0,0,114.7,176.08Z"/><path class="cls-1" d="M114.71,201.82c.9.32,1.86-.83,1.78-1.89a1.87,1.87,0,0,0-1.93-1.87,1.75,1.75,0,0,0-1.51,2.18A3.09,3.09,0,0,0,114.71,201.82Z"/><path class="cls-1" d="M114.42,211a7.34,7.34,0,0,0-1.68,1.87c-.43,1,.78,2.41,1.88,2.53a2.34,2.34,0,0,0,2.14-1.82A2.41,2.41,0,0,0,114.42,211Z"/><path class="cls-1" d="M88.42,170.81a2.82,2.82,0,0,0-.31,5.58,2.79,2.79,0,0,0,3.16-2.63A2.82,2.82,0,0,0,88.42,170.81Z"/><path class="cls-1" d="M60.67,213.3a1.41,1.41,0,0,0,1.77,1.39c.65-.18,1.14-.95,2.07-1.8-1.08-.62-1.72-1.27-2.41-1.32A1.39,1.39,0,0,0,60.67,213.3Z"/><path class="cls-1" d="M62.1,201.93A1.9,1.9,0,0,0,64,199.52c-.24-.66-1-1.13-1.91-2.05a10.74,10.74,0,0,0-1.5,2.77A1.53,1.53,0,0,0,62.1,201.93Z"/><path class="cls-1" d="M55.45,208.27c1,.14,2-.73,2-2.21-.38-.31-.88-1-1.55-1.23-.93-.29-2,.77-2,1.77A1.61,1.61,0,0,0,55.45,208.27Z"/><path class="cls-1" d="M55.93,177.56A2.76,2.76,0,0,0,53.05,180a2.66,2.66,0,0,0,2.43,2.87,2.83,2.83,0,0,0,2.93-2.41A2.81,2.81,0,0,0,55.93,177.56Z"/><path class="cls-1" d="M55.54,191.25a2.1,2.1,0,0,0-2.09,1.89,2.24,2.24,0,0,0,2.06,2.45,2.19,2.19,0,0,0,2.35-2.16A2.17,2.17,0,0,0,55.54,191.25Z"/><path class="cls-1" d="M55.57,164.06a22.9,22.9,0,0,0-2.9.41,16,16,0,0,0-.25,2.58,3.38,3.38,0,0,0,3.77,3.32c1.7-.21,2.74-1.74,2.63-3.89C58.73,164.67,58,164.07,55.57,164.06Z"/><path class="cls-1" d="M68.94,217.9A1.8,1.8,0,0,0,67,219.75a1.91,1.91,0,0,0,1.46,1.84c.86.31,2-.66,2.19-1.62A1.91,1.91,0,0,0,68.94,217.9Z"/><path class="cls-1" d="M67.09,206.29a1.64,1.64,0,0,0,1.83,1.94c.68-.18,1.23-.89,2.18-1.63-.95-.77-1.49-1.51-2.18-1.7C68,204.62,67.29,205.34,67.09,206.29Z"/><path class="cls-1" d="M62.38,170.65a2.86,2.86,0,0,0-2.92,2.4,3,3,0,0,0,2.43,3.42,2.91,2.91,0,0,0,3.2-2.67A2.86,2.86,0,0,0,62.38,170.65Z"/><path class="cls-1" d="M69,195.56a2.26,2.26,0,1,0-2.21-1.7A2.07,2.07,0,0,0,69,195.56Z"/><path class="cls-1" d="M42.84,177.64a2.8,2.8,0,0,0-3,2.21A2.93,2.93,0,0,0,42.5,183a2.66,2.66,0,0,0,2.67-2.55A2.55,2.55,0,0,0,42.84,177.64Z"/><path class="cls-1" d="M68.88,177.8a2.78,2.78,0,0,0-2.72,2.54,2.85,2.85,0,0,0,2.8,2.51,2.53,2.53,0,0,0-.08-5Z"/><path class="cls-1" d="M55.37,217.92A1.69,1.69,0,0,0,54,219.77c.05,1,1.21,2.08,2.08,1.68.66-.3,1.11-1.06,1.45-1.4C57.42,218.5,56.42,217.66,55.37,217.92Z"/><path class="cls-1" d="M42.25,217.91a1.71,1.71,0,0,0-1.41,1.83c0,1,1.14,2,2.07,1.6a5.7,5.7,0,0,0,1.5-1.34C44.31,218.56,43.21,217.65,42.25,217.91Z"/><path class="cls-1" d="M42.42,164.05c-2.05,0-3,.81-3,2.64,0,2.18,1.45,3.8,3.36,3.66a3.43,3.43,0,0,0,3.08-3.48C45.85,164.94,44.75,164,42.42,164.05Z"/><path class="cls-1" d="M42.91,208.33a1.65,1.65,0,0,0,1.38-1.85c-.06-1.07-1.19-2.08-2.09-1.69-.66.29-1.11,1-1.45,1.38C40.88,207.72,41.88,208.57,42.91,208.33Z"/><path class="cls-1" d="M42.67,191.13a2.34,2.34,0,0,0-2.31,2.2,2.49,2.49,0,0,0,2.27,2.3,2.23,2.23,0,0,0,2.27-2.21A2.38,2.38,0,0,0,42.67,191.13Z"/><path class="cls-1" d="M49.26,184.25a2.59,2.59,0,0,0-2.69,2.55,2.77,2.77,0,0,0,2.8,2.49,2.74,2.74,0,0,0,2.39-2.87A2.56,2.56,0,0,0,49.26,184.25Z"/><path class="cls-1" d="M49.29,170.7a2.88,2.88,0,0,0-3.11,2.77,3.43,3.43,0,0,0,2.89,3.18,3.1,3.1,0,0,0,3.06-2.89A2.89,2.89,0,0,0,49.29,170.7Z"/><path class="cls-1" d="M49.47,211.56a1.73,1.73,0,0,0-2.12,1.57c.1.92.69,1.67,1.64,1.56a9.53,9.53,0,0,0,2.43-1.22C50.55,212.58,50.11,211.84,49.47,211.56Z"/><path class="cls-1" d="M51.13,200.06A2,2,0,0,0,49.29,198c-1.1-.07-2.27.79-2,1.81a6.53,6.53,0,0,0,1.32,2.07A2.1,2.1,0,0,0,51.13,200.06Z"/><path class="cls-1" d="M62.2,184.34a2.63,2.63,0,0,0-2.5,2.76,2.51,2.51,0,0,0,5-.55A2.53,2.53,0,0,0,62.2,184.34Z"/><path class="cls-1" d="M75.28,170.76a3,3,0,0,0-2.86,3,3,3,0,0,0,6-.25A3,3,0,0,0,75.28,170.76Z"/><path class="cls-1" d="M81.32,217.86a6,6,0,0,0-1.26,2c-.2,1,1,2,2,1.84a2.19,2.19,0,0,0,1.82-2.14C83.86,218.52,82.91,217.69,81.32,217.86Z"/><path class="cls-1" d="M75.39,198.06a2,2,0,0,0-1.87,2.08,1.85,1.85,0,0,0,1.63,1.76,2,2,0,0,0,2.14-1.79A2,2,0,0,0,75.39,198.06Z"/><path class="cls-1" d="M82.07,195.39c.8-.26,1.4-1.18,1.82-1.57,0-1.66-.78-2.4-2-2.4a1.94,1.94,0,0,0-2.13,1.78C79.76,194.46,81,195.76,82.07,195.39Z"/><path class="cls-1" d="M68.89,164.07c-2-.14-3.07.68-3.2,2.49-.15,2.17.83,3.53,2.7,3.73a3.41,3.41,0,0,0,3.66-2.93C72.23,165.55,71,164.22,68.89,164.07Z"/><path class="cls-1" d="M75.42,184.26A2.5,2.5,0,0,0,73,186.58a2.34,2.34,0,1,0,4.65,0A2.25,2.25,0,0,0,75.42,184.26Z"/><path class="cls-1" d="M75.38,211.54A3,3,0,0,0,73.66,213c-.41.84.7,2,1.76,1.8a5.31,5.31,0,0,0,1.71-.94C77.28,212.39,76.35,211.28,75.38,211.54Z"/><path class="cls-2" d="M170.87,157H171V157l-.1,0A.49.49,0,0,1,170.87,157Z"/><path class="cls-2" d="M241.78,138.57l.12,0-.05-.06Z"/><path class="cls-2" d="M13.73,138.44l0,.1.12,0Z"/><path class="cls-2" d="M203.14,130.43h0v.16l.12,0Z"/><path class="cls-2" d="M177.26,150.72h.15l0-.17Z"/><path class="cls-2" d="M130.68,150.47a1.11,1.11,0,0,0,0,.17h.16Z"/><path class="cls-2" d="M26,144.48l0,0,.17,0v-.17l0,.05Z"/><path class="cls-2" d="M428.25,52.45c1.19-.1,2.39,0,3.41,0a3.39,3.39,0,0,0,.39-4.11,3.75,3.75,0,0,0-2.95-1.93,2.38,2.38,0,0,0-2.77,1.8c-.31,1.29-.51,2.61-.74,3.78l-5.52.93c-.35,1.39-.55,2.59-.95,3.73A2.63,2.63,0,0,1,415.28,58a3.89,3.89,0,0,1-2.18-3.35c-.08-1.57-1.3-2-2.53-2.16a3.21,3.21,0,0,0-3.47,1.82A25.06,25.06,0,0,0,406,58.48l-5.43,1.07c-1.86,6-2.27,6.33-6.93,5.12a26.74,26.74,0,0,0-.66-3.53,2.51,2.51,0,0,0-2.4-1.73,3.34,3.34,0,0,0-3.3,2.79,3.06,3.06,0,0,0,2.09,3.23c.49.16,1.05.08,1.55.21a2.52,2.52,0,0,1,2.12,2.53,3.09,3.09,0,0,1-2.24,3.16A3.28,3.28,0,0,1,387.21,70a14.79,14.79,0,0,1-.31-1.53c-.63-2.09-1.8-3-3.75-2.68a3.19,3.19,0,0,0-2.78,2.67c-1,3.43-1.07,3.42-4.67,3.55a5.27,5.27,0,0,1-1.6-.54l-.42-2.51c-.14-.83-.27-1.66-.42-2.56-1.74-.67-3.25-.77-4.56.43-1.55,1.42-1.22,3.1-.36,5,.92.13,2,.19,2.94.42,1.43.35,1.85,1.55,1.91,2.81a2.52,2.52,0,0,1-.66,1.83,3.49,3.49,0,0,1-5.26-1.29A12.68,12.68,0,0,1,367,74a2.49,2.49,0,0,0-2.29-1.84,2.6,2.6,0,0,0-3,1.5c-.65,1.41-1.19,2.88-1.82,4.4l-5.39,1.58c-.39,2.1-.48,4.15-2.53,5.12a3.65,3.65,0,0,1-4.13-.28c-.11-.5-.23-1.17-.41-1.82a9.8,9.8,0,0,0-.65-2,2.71,2.71,0,0,0-5,2A4.53,4.53,0,0,0,343.62,85a13,13,0,0,0,3.38.85c.15.72.3,1.22.35,1.73a2.55,2.55,0,0,1-.14,1,3.26,3.26,0,0,1-3.51,2.52c-1.57-.09-2.66-.78-2.78-2.52a2.9,2.9,0,0,0-.21-1,3.1,3.1,0,0,0-5.93,1.25,2.91,2.91,0,0,0,2,2.78c.62.28,1.39.22,2,.46a2.51,2.51,0,0,1,1.42,2.58,2.45,2.45,0,0,1-1.56,2.5,2.61,2.61,0,0,1-2.94-.42,8.87,8.87,0,0,1-1.28-2.2c-1-1.89-2-2.61-3.5-2.4s-2.38,1.19-2.81,3.26c-.17.82-.28,1.65-.38,2.24-.47.28-.61.43-.76.45-3.06.27-5.91.57-6.22,4.75-.11,1.39-1.94,1.88-3.45,1.75a2.55,2.55,0,0,1-2.57-2.17c-.1-.51-.06-1.06-.21-1.56a3.2,3.2,0,0,0-3-2.38,3.54,3.54,0,0,0-3.07,2.45,3.25,3.25,0,0,0,1.91,3.82c.64.26,1.39.25,2,.54a2.72,2.72,0,0,1,1.36,3.11c-.21,1.13-.9,2.11-2,2.1a5.07,5.07,0,0,1-2.69-1.24c-.47-.38-.55-1.24-.83-1.87a3.25,3.25,0,0,0-3.08-2.24,3.5,3.5,0,0,0-3.23,2.89c-.21,1.13-.31,2.29-.46,3.44-1.21.09-2.08.14-2.93.23-1.72.19-3.18.94-3.35,2.76-.28,3-2.13,3.7-4.69,3.73a6.53,6.53,0,0,0-1.6.52,28.25,28.25,0,0,1-.93,2.92c-1.13,2.51-2.25,2.77-5.49,1.41l-1.11-4.29c-2.81-.61-2.81-.6-5.39.14-.36,1.72-.75,3.52-1.15,5.41l-5.57.56c-.2,1.12-.34,2.12-.55,3.12-.45,2.09-1.6,3-3.6,3-1.69,0-2.48-.84-2.88-3a10.48,10.48,0,0,0-.35-2,2.13,2.13,0,0,0-1.06-1,3.43,3.43,0,0,0-5,2.71c-.17,1-.27,2-.4,3l-5.6,1.16c-.47,2-.85,3.62-1.24,5.3l-6.65,1.51a3.34,3.34,0,0,1,.3,3.39,3.2,3.2,0,0,1-3.21,2.15,3.42,3.42,0,0,1-2.92-2.51c-.27-1.13-.49-2.28-.75-3.5-1.31-.08-2.34-.23-3.36-.19a2.28,2.28,0,0,0-2.37,2.28,13.49,13.49,0,0,1-.14,1.56c-.4,1.84-.92,2.38-2.76,2.51a17,17,0,0,1-3-.28,7,7,0,0,1-.05-5.88c1.22-.15,2.43-.23,3.61-.46a2.57,2.57,0,0,0,2.13-2,3.55,3.55,0,0,0-1.17-3.78c-1.5-1.21-5-1-5.18,1.91-.06,1.17-.29,2.34-.42,3.28-.63.35-.92.64-1.23.66-4,.28-4.45-.06-5.13-4-.11-.66-.33-1.31-.48-1.9a5.62,5.62,0,0,0-5.76.16c-.08.8-.13,1.65-.26,2.5s-.33,1.64-.45,2.25a4.44,4.44,0,0,1-5.77-.24c-.12-1.85-.26-3.86-.39-5.87l-6,1.08c-.26,1.93-.48,3.61-.74,5.52l-5.81,1c-.22,1.26-.37,2.45-.63,3.62-.44,2-1.25,2.66-3.34,2.43a11.73,11.73,0,0,1-2.82-1c-.11-.89-.19-1.58-.27-2.26-.09-.83-.17-1.66-.27-2.68-1.07-.16-1.91-.32-2.75-.38A3.84,3.84,0,0,0,179,138a2.81,2.81,0,0,0-1.29.82,3.44,3.44,0,0,0,2.22,5.45c1,.14,2,.19,2.94.27,1,5.3.55,6-4,6.23a13.54,13.54,0,0,1-1.42,0c-.23,2-.47,4-.7,6A9,9,0,0,1,171,157V157h-.12c-.17,1.51-.27,3-.56,4.52a3.08,3.08,0,0,1-3.69,2.11,3.14,3.14,0,0,1-2.71-2.75,3.08,3.08,0,0,1,2.4-3.51c1.51-.2,3-.26,4.56-.37a.49.49,0,0,0,0-.12l.1,0c-.17-1.17-.32-2.34-.52-3.5-.34-2-1-2.6-3.16-2.63a18.62,18.62,0,0,0-3.06.46c-.29,1.92-.55,3.59-.81,5.21a6.39,6.39,0,0,1-1.61.69c-3.67.3-4.07-.07-4.55-3.81a15.52,15.52,0,0,0-.62-2.25,7.87,7.87,0,0,0-1.31-.29c-3.93,0-4,.11-4.55,3.94a19.77,19.77,0,0,1-.45,2,7.48,7.48,0,0,1-5.73,0c-.25-1.79-.48-3.48-.71-5.2-2.23-1-4.14-1.15-6,.45-.29,1.7-.56,3.35-.89,5.28-1.31,0-2.34.08-3.35,0-1.81-.17-2.4-.79-2.61-2.61-.15-1.32-.27-2.65-.4-4-2,0-4,.7-5.79-.91-.25-1.65-.5-3.3-.75-5-2.11-.53-3.91-.73-5.65.06-.39,1.95-.74,3.75-1.15,5.83l-6.27.08a38.53,38.53,0,0,1,.17,4c-.1,1.79-1.14,2.53-3.19,2.51s-3-.71-3.17-2.54c-.14-1.31-.16-2.64-.23-4-2-.07-4.07.38-6-.5-.11-.64-.22-1.15-.28-1.65a14.09,14.09,0,0,0-.22-2.08,3.16,3.16,0,0,0-3.75-2.06,3,3,0,0,0-2.5,3.44,2.59,2.59,0,0,0,2.45,2.82c1.16.22,2.32.37,3.54.56.49,2.13.87,3.94-.55,6L92.43,157a15.13,15.13,0,0,1-.52-1.81c-.11-.69,0-1.41-.21-2.08-.4-1.69-1.55-2.41-3.56-2.32a2.64,2.64,0,0,0-2.89,2.42c-.2,1.17-.22,2.36-.33,3.62l-5.83,1c-.34,1.88-.64,3.55-.92,5.06-2,1.41-3.72,1.53-5.68,0-.23-1.53-.48-3.22-.76-5.05-2-.59-3.78-1-5.79.25-.13,1.09-.22,2.3-.43,3.48-.29,1.7-1.08,2.32-2.87,2.39-2.09.09-3.23-.58-3.6-2.24-.29-1.31-.44-2.64-.69-4.17-2.12-.12-4-.85-5.8.73-.06.79-.1,1.66-.19,2.51s-.24,1.67-.37,2.48a5.26,5.26,0,0,1-6-.52c0-1.74-.1-3.73-.15-5.73l-6.11-.14V157l-.13,0c-.19,2-.38,4-.57,5.93a5.27,5.27,0,0,1-6,.24,6.12,6.12,0,0,1,.59-5.62l6-.55v-.13h.12c-.05-2-.09-4.07-.14-6.11-2.56-.13-5.18.39-7.68-.55,0,0,0,0,0,.05h-.05c1.25,2.08.84,4.22.4,6.64a15.8,15.8,0,0,1-2.63.31c-2.9-.14-3.74-1.14-3.44-3.91.19-1.69.81-2.26,2.71-2.54,1-.15,2-.32,3-.5l-.06-.11.15,0c1.17-1.76.69-3.55.29-5.44a13.87,13.87,0,0,0-6.12-.31c0,1.79-.05,3.57-.08,5.2-2.71,1.17-2.71,1.21-5.76.47-1-1.73-.48-3.75-.59-5.69-1.93-.15-3.86-.49-5.73.35a.36.36,0,0,1,0,.09l-.08,0c-.49,1.76-1,3.51-1.5,5.31-1.95.77-3.88,1.09-5.27-.7-1.16-1.5-1-3.25.29-4.93,2.13-.29,4.32-.61,6.48.32l0-.05h0a7,7,0,0,1-.26-6.27L6.88,137.2l-1-5.68c-2.1-.5-3.88-.9-5.55.52v7A2.24,2.24,0,0,1,1.71,138a37.81,37.81,0,0,1,4.47,0,37.4,37.4,0,0,1,.19,3.77c-.11,1.8-.86,2.44-2.58,2.56-1.92.14-3-.45-3.5-1.4v9.9a3.12,3.12,0,0,1,3.19-1.94c1.93.16,3,1.51,2.9,3.61a2.72,2.72,0,0,1-3.09,2.78,3.26,3.26,0,0,1-3-1.87V166a3.17,3.17,0,0,1,3.19-1.89,3,3,0,0,1,2.82,3.09,3.3,3.3,0,0,1-2.8,3.18,3.77,3.77,0,0,1-3.21-2.32v11.77a3.14,3.14,0,0,1,2.54-2.53,3,3,0,0,1,3.27,3.09,2.71,2.71,0,0,1-2.49,2.74,3.16,3.16,0,0,1-3.32-2.42v43.73H35.72a1,1,0,0,1,.24,0,1.23,1.23,0,0,1,.47,0H48.57a2.06,2.06,0,0,1,.57-.09,1.73,1.73,0,0,1,.56.09H61.35a1,1,0,0,1,.75-.1,1.86,1.86,0,0,1,.25.1H74.52a1.55,1.55,0,0,1,1.9,0H87.7a54,54,0,0,1,6.23-1.21c.28,0,.52-.42.76-.62a13.05,13.05,0,0,1-1.47-2.13,1.93,1.93,0,0,1,1-2.62,2,2,0,0,1,2.83,1.47,9.61,9.61,0,0,1-.2,2.54,1.38,1.38,0,0,0,.48.19c3.55,0,7-.07,9.11-3.72a2.05,2.05,0,0,1,2.85-.5c2.9,1.82,5.66,1,8.51-.08,1.46-.56,3-.85,4.51-1.3,1.14-.34,2.25-.74,3.33-1.1,0-.8,0-1.32,0-1.84a2.22,2.22,0,0,1,1.58-2.43,2.19,2.19,0,0,1,2.65,1.12c.45.69.88,1.4,1.36,2.17a16.19,16.19,0,0,0,3.79-.63c1.88-.84,3.53-2.26,5.46-2.94s4.14.71,6.13-1a20.38,20.38,0,0,1-1.14-2.64,2.33,2.33,0,0,1,1.67-2.83,2.12,2.12,0,0,1,2.47,1.45,23.14,23.14,0,0,1,.59,3c3.42-.23,6.51-.47,8.51-3.57a2.36,2.36,0,0,1,3.3-.59c1.86,1.06,3.69.71,5.58.22,2.36-.61,4.75-1.12,7.11-1.75a31.36,31.36,0,0,0,3-1.16c.12-.74.26-1.41.35-2.09a2,2,0,0,1,2-2.05,2.34,2.34,0,0,1,2.52,1.47c.31.77.64,1.54,1,2.36a15.42,15.42,0,0,0,2.26.1c2.24-.28,4.49-.42,5.68-3a2.25,2.25,0,0,1,3.25-.75c2.22,1.44,4.28.87,6.49.11,1.81-.62,3.72-.93,5.56-1.44,1.15-.31,2.26-.74,3.42-1.13a14.61,14.61,0,0,1,.34-2.24c.74-2.2,2.63-2.81,4.49-1.48a2,2,0,0,1,.7.75c.72,1.68,2.16,1.7,3.54,1.34a10.53,10.53,0,0,0,3.78-1.65,7.7,7.7,0,0,1,5.36-1.61,12.22,12.22,0,0,0,2.48-.33,16.27,16.27,0,0,1-.24-3.82,2.81,2.81,0,0,1,1.61-1.81,2.09,2.09,0,0,1,2.63,1.18,22.64,22.64,0,0,1,.86,3.81l6.24-1.09a6.15,6.15,0,0,0,.66-.71c.17-.3.29-.62.46-.92,1.76-3,2.61-3.4,5.2-1.44a4.22,4.22,0,0,0,4.38.58c2.29-.83,4.5-1.9,6.79-2.71a4.56,4.56,0,0,0,3.07-3.13c1.08-3,2.72-3.44,5.67-1.79,1.94,1.08,3.19.56,4.55-1a8.65,8.65,0,0,1-2.06-.93,2.84,2.84,0,1,1,3.18-4.71,4.71,4.71,0,0,1,1.42,2.05c.31.73-.58,1.7.59,2.58,2.6-.39,5.11-.85,6.49-3.95.85-1.9,2.44-2.33,4.44-1.59,1.47.55,2.78,1.16,4.31.37a15.28,15.28,0,0,1-1.81-2.59,2.88,2.88,0,0,1,2.09-4,3,3,0,0,1,3.34,2.57,27.17,27.17,0,0,1,.2,3c2.78-.84,5.54-1,7-3.61,1.18-2.07,2.74-2.36,4.87-1.57,1.51.56,3.11.65,4.08-1.07a14.83,14.83,0,0,1-1.6-2.65,2.38,2.38,0,0,1,1.45-3,2.07,2.07,0,0,1,2.76.73c.59.82,1.11,1.69,1.62,2.47,2.11-.32,3.49-1.14,3.67-3.49a24,24,0,0,1-2.11-1.23,3.24,3.24,0,0,1,1.18-6c1-.22,2-.36,2.81-.51a6.06,6.06,0,0,0,.45-1.3c0-2.27.68-4,3.1-4.89,2.71-1,3.67-3.49,4.34-6.17,4-.29,5.75-2.89,6.49-6.67,3.48-.11,5.7-1.66,6.34-5.16.11-.6,1.21-1.26,2-1.45a27.53,27.53,0,0,1,4-.5,25.33,25.33,0,0,1,.6-3.79,3,3,0,0,1,4.21-1.85,7.68,7.68,0,0,1,1.29.87c1.87,1.29,1.89,1.27,4.12-.94a23.08,23.08,0,0,1-2.2-1.35,3.08,3.08,0,0,1,2-5.34,2.89,2.89,0,0,1,2.9,1.85,29.84,29.84,0,0,1,1.1,3.67c1.88-1,3.8-1.51,4.8-2.74,1.55-1.92,3.55-2.69,5.65-3.51a3.42,3.42,0,0,0,2.51-3,10.22,10.22,0,0,1,.56-1.93,5.23,5.23,0,0,1,1.5-.75c2.49-.26,3.6-1.77,4.11-4.06a14.11,14.11,0,0,1,1.11-2.59l5.26-.47A8,8,0,0,0,387.2,97c.29-4.91,1.69-5.77,6.1-3.81a4.82,4.82,0,0,0,1.82,0c0-.56.11-.93,0-1.14-.28-.44-.79-.73-1-1.18-1.13-2.28-.8-4.15.83-5.07s2.95-.42,4.52,1.4a12.84,12.84,0,0,1,1,1.62,4.27,4.27,0,0,0,4.05-3c-2.59-1.56-2.59-1.56-3.21-2.59-1-1.68-.63-2.92,1.19-3.8a2.35,2.35,0,0,1,3.42,1.21c.48,1,.89,2.12,1.4,3.34a22.06,22.06,0,0,0,2.61-1.34,17.62,17.62,0,0,0,1.9-1.77c.74-.73,1.34-1.93,2.2-2.13,4.18-1,5.29-5.23,8.17-7.57a2.61,2.61,0,0,0,.18-3.41c-.38-.58-1.24-.86-2.19-1.47a39.77,39.77,0,0,1-.91,4,2.68,2.68,0,0,1-3.1,1.33c-1.14-.33-2.56-.53-2.71-2.07a2.37,2.37,0,0,1,.58-1.86,11.08,11.08,0,0,1,3.19-1.59,16.23,16.23,0,0,1,3-.43c.17-.78.33-1.27.38-1.77s-.08-1.06,0-1.56a2.65,2.65,0,0,1,3.88-2.12c.61.26,1,.89,1.62,1.29a5.71,5.71,0,0,0,1.33.41l3.8-2.14c-1.33-.66-2-1.06-2.78-1.38a3.81,3.81,0,0,1-2.19-3.32A2.26,2.26,0,0,1,428.25,52.45ZM3.1,221.35a5.22,5.22,0,0,1-1.55-1.21c0-1.57.84-2.45,1.88-2.29A1.66,1.66,0,0,1,5,219.54C5,220.6,4.05,221.65,3.1,221.35Zm.42-12.84A2.18,2.18,0,0,1,1.13,207a2.28,2.28,0,0,1,2-2.54,2,2,0,0,1,2.1,1.85A2.09,2.09,0,0,1,3.52,208.51Zm-.58-12.67a2.43,2.43,0,0,1-2.2-2.45,2.51,2.51,0,0,1,2.54-2.66,2.87,2.87,0,0,1,2.55,2.78A2.62,2.62,0,0,1,2.94,195.84Zm7,19a1.67,1.67,0,0,1-1.85-1.37,2.08,2.08,0,0,1,2-2.29c.37.38,1.11.84,1.37,1.5A1.64,1.64,0,0,1,10,214.81Zm-.4-12.75a2.23,2.23,0,0,1-2.18-2.37,2.29,2.29,0,0,1,2.52-2,2.34,2.34,0,0,1,2.19,2.39A2.32,2.32,0,0,1,9.55,202.06Zm.19-12.54a2.59,2.59,0,0,1-2.6-2.61,2.69,2.69,0,0,1,2.45-2.78,2.5,2.5,0,0,1,2.85,2.27A2.88,2.88,0,0,1,9.74,189.52Zm-.09-12.74a3.06,3.06,0,0,1-2.73-3.15,2.82,2.82,0,0,1,2.87-2.92,3,3,0,0,1,3.05,2.83A3.12,3.12,0,0,1,9.65,176.78Zm3.45-15.92a3.2,3.2,0,0,1-6.39,0,3.34,3.34,0,0,1,3.58-3.52C12.21,157.41,13.26,158.71,13.1,160.86Zm4.81,58.91c-.19.66-.88,1.18-1.61,2.1-.73-.92-1.42-1.45-1.6-2.11A1.57,1.57,0,0,1,16.58,218C17.5,218.2,18.17,218.84,17.91,219.77Zm-1.39-11.34c-1.06.11-2.17-.74-1.95-1.75a10.89,10.89,0,0,1,1.66-2.74,13.12,13.12,0,0,1,2.05,2.49C18.63,207.23,17.55,208.32,16.52,208.43Zm-.19-12.64a2.54,2.54,0,0,1-2.56-2.12,2.86,2.86,0,0,1,2.45-2.87,2.63,2.63,0,0,1,2.49,2.78A2.22,2.22,0,0,1,16.33,195.79Zm.25-12.63a3,3,0,0,1-3-2.81,3,3,0,0,1,2.66-3.18A3.2,3.2,0,0,1,19.29,180,3.07,3.07,0,0,1,16.58,183.16Zm0-12.78a3.35,3.35,0,0,1-3.31-3.26c-.07-2,1.18-3.09,3.3-3a3,3,0,0,1,3.08,3.36A3.25,3.25,0,0,1,16.53,170.38Zm3.08-15.45c-.22,1.75-1.5,2.49-4,2.28-1.9-.15-2.63-1.29-2.43-3.81.16-2,1.3-2.85,3.65-2.59S19.93,152.35,19.61,154.93Zm5.08,58.41a1.51,1.51,0,0,1-1.87,1.34c-.7-.19-1.26-.89-2.21-1.61,1-.73,1.52-1.44,2.22-1.63A1.66,1.66,0,0,1,24.69,213.34ZM22.85,202a2,2,0,0,1-2-1.88c-.12-1.28.88-2.52,2.08-2.24a6.35,6.35,0,0,1,2,1.34C25.08,201,24.11,202,22.85,202Zm.27-12.53a2.79,2.79,0,0,1-2.93-2.41,2.87,2.87,0,0,1,2.38-2.93,2.81,2.81,0,0,1,2.95,2.39A2.92,2.92,0,0,1,23.12,189.47Zm.07-12.74a3.14,3.14,0,0,1-3.32-3.21,2.9,2.9,0,0,1,3-2.88A3.14,3.14,0,0,1,26,173.53,3.2,3.2,0,0,1,23.19,176.73Zm0-12.78c-2.25.15-3.49-1.08-3.51-3.49,0-2,.8-3,2.65-3.12,2.55-.16,3.73.81,3.78,3.12S25.3,163.82,23.2,164Zm6.38,57.31c-.94.06-1.75-.52-1.62-1.51.1-.68.74-1.29,1.39-2.33.8,1,1.53,1.51,1.71,2.18C31.32,220.6,30.5,221.2,29.58,221.26Zm-.35-13a3.11,3.11,0,0,1-1.59-1.66c-.29-.85.88-2,1.85-2a1.92,1.92,0,0,1,1.8,2C31.25,207.69,30.2,208.64,29.23,208.24Zm0-12.5a2.35,2.35,0,0,1-2.12-2.51,2.3,2.3,0,0,1,2.42-2.18,2.44,2.44,0,0,1,2.18,2.48A2.49,2.49,0,0,1,29.26,195.74ZM29.42,183a2.69,2.69,0,0,1-2.53-2.72c-.09-1.61,1.32-3.2,2.73-3.06A3.13,3.13,0,0,1,32.23,180,2.88,2.88,0,0,1,29.42,183Zm3.13-15.24a3,3,0,0,1-3.27,2.66,3.18,3.18,0,0,1-3.08-2.94,2.89,2.89,0,0,1,2.51-3.35,26.14,26.14,0,0,1,3.64.14A23.49,23.49,0,0,1,32.55,167.78Zm3.28,46.93a1.39,1.39,0,0,1-1.37-1.78c.19-.66,1-1.14,1.82-2.08.62,1.09,1.27,1.74,1.3,2.42A1.43,1.43,0,0,1,35.83,214.71Zm2.08-14.14A6.87,6.87,0,0,1,35.85,202c-1,.27-1.89-1-1.78-2.06A2.09,2.09,0,0,1,36.13,198C37.18,198,38.07,199,37.91,200.57Zm.53-13.28a2.4,2.4,0,0,1-2.5,2.05,2.59,2.59,0,0,1-2.39-2.76,2.65,2.65,0,0,1,2.84-2.31A2.59,2.59,0,0,1,38.44,187.29Zm-2.31-10.54A3.13,3.13,0,0,1,33,173.91a3.05,3.05,0,0,1,3.22-3.31,3.08,3.08,0,0,1,0,6.15Zm6.78,44.59c-.93.4-2-.55-2.07-1.6a1.71,1.71,0,0,1,1.41-1.83c1-.26,2.06.65,2.16,2.09A5.7,5.7,0,0,1,42.91,221.34Zm-2.16-15.17c.34-.34.79-1.09,1.45-1.38.9-.39,2,.62,2.09,1.69a1.65,1.65,0,0,1-1.38,1.85C41.88,208.57,40.88,207.72,40.75,206.17Zm1.88-10.54a2.49,2.49,0,0,1-2.27-2.3,2.34,2.34,0,0,1,2.31-2.2,2.38,2.38,0,0,1,2.23,2.29A2.23,2.23,0,0,1,42.63,195.63ZM42.5,183a2.93,2.93,0,0,1-2.67-3.16,2.8,2.8,0,0,1,3-2.21,2.55,2.55,0,0,1,2.33,2.82A2.66,2.66,0,0,1,42.5,183Zm.28-12.66c-1.91.14-3.4-1.48-3.36-3.66,0-1.83.95-2.63,3-2.64,2.33,0,3.43.89,3.44,2.82A3.43,3.43,0,0,1,42.78,170.35ZM49.29,198a2,2,0,0,1,1.84,2.09,2.1,2.1,0,0,1-2.57,1.79,6.53,6.53,0,0,1-1.32-2.07C47,198.76,48.19,197.9,49.29,198ZM49,214.69c-1,.11-1.54-.64-1.64-1.56a1.73,1.73,0,0,1,2.12-1.57c.64.28,1.08,1,2,1.91A9.53,9.53,0,0,1,49,214.69Zm.38-25.4a2.77,2.77,0,0,1-2.8-2.49,2.59,2.59,0,0,1,2.69-2.55,2.56,2.56,0,0,1,2.5,2.17A2.74,2.74,0,0,1,49.37,189.29Zm-.3-12.64a3.43,3.43,0,0,1-2.89-3.18,3,3,0,0,1,6,.29A3.1,3.1,0,0,1,49.07,176.65Zm7,44.8c-.87.4-2-.63-2.08-1.68a1.69,1.69,0,0,1,1.39-1.85c1.05-.26,2.05.58,2.14,2.13C57.17,220.39,56.72,221.15,56.06,221.45ZM53.93,206.6c0-1,1-2.06,2-1.77.67.2,1.17.92,1.55,1.23-.05,1.48-1,2.35-2,2.21A1.61,1.61,0,0,1,53.93,206.6Zm1.58-11a2.24,2.24,0,0,1-2.06-2.45,2.1,2.1,0,0,1,2.09-1.89,2.17,2.17,0,0,1,2.32,2.18A2.19,2.19,0,0,1,55.51,195.59Zm0-12.73A2.66,2.66,0,0,1,53.05,180a2.76,2.76,0,0,1,2.88-2.43,2.81,2.81,0,0,1,2.48,2.89A2.83,2.83,0,0,1,55.48,182.86Zm.71-12.49a3.38,3.38,0,0,1-3.77-3.32,16,16,0,0,1,.25-2.58,22.9,22.9,0,0,1,2.9-.41c2.41,0,3.16.61,3.25,2.42C58.93,168.63,57.89,170.16,56.19,170.37Zm6.25,44.32a1.41,1.41,0,0,1-1.77-1.39,1.39,1.39,0,0,1,1.43-1.73c.69.05,1.33.7,2.41,1.32C63.58,213.74,63.09,214.51,62.44,214.69Zm-1.87-14.45a10.74,10.74,0,0,1,1.5-2.77c.89.92,1.67,1.39,1.91,2.05a1.9,1.9,0,0,1-1.88,2.41A1.53,1.53,0,0,1,60.57,200.24Zm1.63-10.92a2.6,2.6,0,0,1-2.5-2.22,2.63,2.63,0,0,1,2.5-2.76,2.53,2.53,0,0,1,2.48,2.21A2.59,2.59,0,0,1,62.2,189.32Zm-.31-12.85a3,3,0,0,1-2.43-3.42,2.84,2.84,0,0,1,5.63.75A2.91,2.91,0,0,1,61.89,176.47Zm6.59,14.64a2.24,2.24,0,1,1,.56,4.45,2.07,2.07,0,0,1-2.21-1.7A2.25,2.25,0,0,1,68.48,191.11ZM70.66,220c-.14,1-1.33,1.93-2.19,1.62A1.91,1.91,0,0,1,67,219.75a1.8,1.8,0,0,1,1.93-1.85A1.91,1.91,0,0,1,70.66,220Zm-1.74-11.74a1.64,1.64,0,0,1-1.83-1.94c.2-.95.87-1.67,1.83-1.39.69.19,1.23.93,2.18,1.7C70.15,207.34,69.6,208.05,68.92,208.23Zm0-25.38a2.85,2.85,0,0,1-2.8-2.51,2.78,2.78,0,0,1,2.72-2.54,2.53,2.53,0,0,1,.08,5Zm3.09-15.49a3.41,3.41,0,0,1-3.66,2.93c-1.87-.2-2.85-1.56-2.7-3.73.13-1.81,1.18-2.63,3.2-2.49S72.23,165.55,72.05,167.36Zm5.08,46.49a5.31,5.31,0,0,1-1.71.94c-1.06.19-2.17-1-1.76-1.8a3,3,0,0,1,1.72-1.45C76.35,211.28,77.28,212.39,77.13,213.85Zm-2-11.95a1.85,1.85,0,0,1-1.63-1.76,1.89,1.89,0,1,1,3.77,0A2,2,0,0,1,75.15,201.9Zm-.09-12.69a2.46,2.46,0,0,1-2-2.63,2.5,2.5,0,0,1,2.39-2.32,2.25,2.25,0,0,1,2.26,2.35A2.49,2.49,0,0,1,75.06,189.21Zm.46-12.59a3.28,3.28,0,0,1-3.1-2.85,3,3,0,0,1,6-.25A3.3,3.3,0,0,1,75.52,176.62ZM82,221.72c-.94.15-2.17-.82-2-1.84a6,6,0,0,1,1.26-2c1.59-.17,2.54.66,2.53,1.72A2.19,2.19,0,0,1,82,221.72ZM79.77,193.2a1.94,1.94,0,0,1,2.13-1.78c1.21,0,2,.74,2,2.4-.42.39-1,1.31-1.82,1.57C81,195.76,79.76,194.46,79.77,193.2ZM81.66,208c-.3.12-1.18-.56-1.39-1a1.57,1.57,0,0,1,1.46-2.09c.68,0,1.32.63,2.5,1.25A12.66,12.66,0,0,1,81.66,208ZM82,183a2.7,2.7,0,0,1-2.62-2.63,2.47,2.47,0,0,1,2.54-2.63,2.55,2.55,0,0,1,2.71,2.5A3.11,3.11,0,0,1,82,183Zm-.17-12.69a3.29,3.29,0,0,1-2.88-3.7,2.69,2.69,0,0,1,2.79-2.53,3,3,0,0,1,3.16,3.31A3.06,3.06,0,0,1,81.78,170.32Zm6.49,44.48c-1-.16-1.64-.86-1.4-1.78.18-.68.92-1.21,1.65-2.09.74.89,1.47,1.42,1.68,2.11C90.51,214,89.37,215,88.27,214.8Zm2.11-14.7a1.92,1.92,0,0,1-2.13,1.73,1.73,1.73,0,0,1-1.51-1.77,1.77,1.77,0,0,1,1.82-2A1.87,1.87,0,0,1,90.38,200.1Zm-2.13-11a2.6,2.6,0,0,1-2-2.17,2.45,2.45,0,0,1,2.2-2.47A2.74,2.74,0,0,1,90.76,187,2.53,2.53,0,0,1,88.25,189.13Zm-.14-12.74a2.82,2.82,0,0,1,.31-5.58,2.82,2.82,0,0,1,2.85,2.95A2.79,2.79,0,0,1,88.11,176.39Zm2.39-13.14a3.55,3.55,0,0,1-4.33-.29c-1.58-1.64-1.18-3.43-.13-5.42h5.47C91.81,159.93,92.44,161.87,90.5,163.25Zm6.25,43.33a5.63,5.63,0,0,1-1.06,1.7c-1.48.16-2.41-.67-2.42-1.77a1.64,1.64,0,0,1,1.51-1.73C95.79,204.6,97,205.64,96.75,206.58Zm.35-13.07A2.25,2.25,0,0,1,95,195.38a2.07,2.07,0,0,1-1.82-2.11,2,2,0,0,1,3.94.24Zm-2-10.93a2.53,2.53,0,0,1-2.54-2.16,2.48,2.48,0,0,1,2.68-2.51,2.26,2.26,0,0,1,2.24,2.37A2.52,2.52,0,0,1,95.11,182.58ZM95.29,170a3.11,3.11,0,0,1-3.16-2.74,2.89,2.89,0,0,1,2.74-3.11A3,3,0,0,1,98,166.86,2.91,2.91,0,0,1,95.29,170ZM101.52,215a1.92,1.92,0,0,1-1.88-2,2,2,0,0,1,2.06-1.78,1.85,1.85,0,0,1,1.86,2A1.92,1.92,0,0,1,101.52,215Zm-1.8-15.19a1.89,1.89,0,0,1,1.63-1.76,1.93,1.93,0,0,1,2.17,1.74,2,2,0,0,1-1.9,2A1.89,1.89,0,0,1,99.72,199.84ZM101.5,189a2.26,2.26,0,0,1-2-2.5,2.12,2.12,0,0,1,2-1.94,2.17,2.17,0,0,1,2.26,2.22A2.25,2.25,0,0,1,101.5,189Zm-.18-12.87A2.65,2.65,0,0,1,99,173.81a2.73,2.73,0,0,1,2.5-2.75,2.55,2.55,0,1,1-.19,5.1Zm.63-12.29a3.34,3.34,0,0,1-3.46-2.55,22.59,22.59,0,0,1,0-3.56,22.38,22.38,0,0,1,3.65-.35,2.63,2.63,0,0,1,2.66,2.65A3.56,3.56,0,0,1,102,163.87Zm8.07,43a1.81,1.81,0,0,1-2.18,1.56,1.72,1.72,0,0,1-1.44-1.8,1.91,1.91,0,0,1,2-1.89A1.86,1.86,0,0,1,110,206.86Zm0-12.8a5.94,5.94,0,0,1-2,1.31c-.9.19-1.85-1.1-1.82-2.07a2,2,0,0,1,2.11-1.8C109.4,191.53,110.2,192.46,110,194.06Zm-1.94-11.53a2.35,2.35,0,0,1-2.28-2.33,2.24,2.24,0,0,1,2.34-2.22,2.51,2.51,0,0,1,2.32,2.33A2.36,2.36,0,0,1,108.09,182.53Zm.52-12.79a2.74,2.74,0,1,1-.88-5.41,2.64,2.64,0,0,1,3.15,2.51A2.7,2.7,0,0,1,108.61,169.74Zm8.15,43.86a2.34,2.34,0,0,1-2.14,1.82c-1.1-.12-2.31-1.57-1.88-2.53a7.34,7.34,0,0,1,1.68-1.87A2.41,2.41,0,0,1,116.76,213.6Zm-2.2-15.54a1.87,1.87,0,0,1,1.93,1.87c.08,1.06-.88,2.21-1.78,1.89a3.09,3.09,0,0,1-1.66-1.58A1.75,1.75,0,0,1,114.56,198.06Zm.57-9.12c-1,.46-2.51-.81-2.64-1.91s1.25-2.54,2.33-2.25c.86.23,1.55,1.07,2.62,1.87C116.49,187.62,115.94,188.54,115.13,188.94Zm-2.83-15.05a2.7,2.7,0,0,1,2.46-2.79,2.73,2.73,0,0,1,2.4,2.85,2.36,2.36,0,0,1-2.46,2.13A2.4,2.4,0,0,1,112.3,173.89ZM115,163.5a3,3,0,0,1-3.38-2.49,3.09,3.09,0,0,1,2.79-3.63,3.36,3.36,0,0,1,3.48,3.09A3,3,0,0,1,115,163.5Zm6.43,45a1.91,1.91,0,0,1-2.05-1.8c-.06-1.07.82-2.24,1.78-2a6.91,6.91,0,0,1,2,1.32A2.08,2.08,0,0,1,121.43,208.48ZM123.31,194a6.49,6.49,0,0,1-2,1.4c-1.08.29-2.18-1.18-2-2.39a1.94,1.94,0,0,1,2.27-1.57A2,2,0,0,1,123.31,194Zm-4.18-13.83a2.16,2.16,0,0,1,2.37-2.14c.94.13,1.46,1,1.35,2.41s-.79,2-1.95,1.82A1.92,1.92,0,0,1,119.13,180.21Zm2-10.41a2.73,2.73,0,0,1-2.61-2.65,2.9,2.9,0,0,1,3-2.82,2.63,2.63,0,0,1,2.55,2.68A2.7,2.7,0,0,1,121.08,169.8Zm.17-12.58c-2.14,0-3.15-1-3.13-3.25s1-3.23,3.19-3.16,3.3,1.16,3.24,3.21A3,3,0,0,1,121.25,157.22Zm8.49,42.58a6.24,6.24,0,0,1-1.28,2,2.19,2.19,0,0,1-2.54-1.81,1.88,1.88,0,0,1,1.8-2C128.79,198,129.94,198.83,129.74,199.8ZM128.24,189c-1.09.43-2.48-.78-2.58-1.92a2.44,2.44,0,0,1,2.08-2.54c1.09-.09,2.33,1.12,2.37,2.75C129.65,187.77,129.07,188.71,128.24,189ZM130.33,174a2.58,2.58,0,0,1-3.07,2,2.34,2.34,0,0,1-2-2.55,2.8,2.8,0,0,1,2.85-2.4A2.62,2.62,0,0,1,130.33,174ZM128,163.58a3.07,3.07,0,0,1-3.29-3.14c-.06-1.74,1.37-3,3.39-3a2.84,2.84,0,0,1,3,2.84A3,3,0,0,1,128,163.58Zm6.56,27.82a2,2,0,0,1,2,1.89,2.28,2.28,0,0,1-2.29,2.29,2.42,2.42,0,0,1-2.07-2.52A2.35,2.35,0,0,1,134.52,191.4ZM132.23,180a2.2,2.2,0,0,1,2.54-1.92,2.37,2.37,0,0,1,2.07,2.47,2.48,2.48,0,0,1-2.64,1.93A2.18,2.18,0,0,1,132.23,180Zm2.66,28.55a2,2,0,0,1-2.57-1.83c0-1.17,1.43-2.55,2.42-2.11.79.35,1.31,1.33,2.19,2.29C136.07,207.62,135.55,208.4,134.89,208.54ZM134.33,170a3.18,3.18,0,0,1-3-3,3,3,0,0,1,3-2.84,2.78,2.78,0,0,1,2.89,2.89A3,3,0,0,1,134.33,170ZM143,200.26c-.32.79-1.21,1.36-1.64,1.82a2.34,2.34,0,0,1-2.47-2.43A2.27,2.27,0,0,1,141,197.9C142.18,197.91,143.38,199.19,143,200.26Zm-2.24-11a2.5,2.5,0,0,1-2.11-2.56,2.39,2.39,0,0,1,2.51-2.14,2.79,2.79,0,0,1,2.19,2.57A2.66,2.66,0,0,1,140.72,189.22Zm-.1-13.17a2.26,2.26,0,0,1-2.18-2.38,2.63,2.63,0,0,1,2.88-2.33,2.38,2.38,0,1,1-.7,4.71Zm.43-12.21c-2,.08-3.41-1.43-3.42-3.72,0-2.06,1-2.86,3.43-2.81,2.19,0,3.16.82,3.2,2.54C144.31,162.21,143.06,163.75,141.05,163.84Zm4.22,16.3a2.24,2.24,0,0,1,2.39-2.06,2.38,2.38,0,0,1,2.1,2.43,2.3,2.3,0,0,1-2.42,2.07A2.35,2.35,0,0,1,145.27,180.14Zm2.19,15.5a2.12,2.12,0,0,1-2-1.95,2.19,2.19,0,0,1,2-2.51,2.41,2.41,0,0,1,2.39,2.24A2.29,2.29,0,0,1,147.46,195.64Zm.12-25.86a2.87,2.87,0,0,1-3.07-2.81,2.93,2.93,0,0,1,3.07-2.83,2.89,2.89,0,0,1,2.78,3.11A2.74,2.74,0,0,1,147.58,169.78Zm8.5,30.64c-.3.79-1.21,1.35-1.64,1.79-1.75-.18-2.63-1.34-2.44-2.61a2.08,2.08,0,0,1,2.23-1.69A2,2,0,0,1,156.08,200.42Zm-1.94-11.19a2.37,2.37,0,0,1-2.33-2.27,2.28,2.28,0,1,1,4.55-.11A2.38,2.38,0,0,1,154.14,189.23Zm-2.27-15.71a2.09,2.09,0,0,1,1.89-2.09,2.27,2.27,0,0,1,2.5,2.08,2.2,2.2,0,1,1-4.39,0Zm2.28-9.85a3,3,0,0,1-3.29-3.19,2.78,2.78,0,0,1,2.73-3.14c2.06-.12,3.53,1,3.65,2.84A3.18,3.18,0,0,1,154.15,163.67Zm6.27,32a2.31,2.31,0,0,1-2-2.47,2.37,2.37,0,0,1,2.45-2.08,2.48,2.48,0,0,1,2.1,2.46A2.55,2.55,0,0,1,160.42,195.66Zm-1.94-15.28a2.41,2.41,0,0,1,2.25-2.32,2.26,2.26,0,0,1,2.1,2.39,2.18,2.18,0,0,1-4.35-.07Zm2-10.75a2.27,2.27,0,0,1-2.41-2.17c-.14-1.84.93-3.2,2.54-3.23a2.71,2.71,0,1,1-.13,5.4Zm9,30.83a2.49,2.49,0,0,1-2.6,2,2.35,2.35,0,0,1-2-2.58,2.42,2.42,0,0,1,2.61-2A2.27,2.27,0,0,1,169.46,200.46Zm-2-11.22a2.57,2.57,0,0,1-2.67-2,2.39,2.39,0,0,1,2.08-2.55,2.42,2.42,0,0,1,2.67,1.92A2.65,2.65,0,0,1,167.43,189.24Zm0-13.25a2.49,2.49,0,0,1-2.61-2.05,2.36,2.36,0,0,1,2.14-2.5,2.45,2.45,0,0,1,2.61,2A2.37,2.37,0,0,1,167.44,176Zm6.34,19.77a2.7,2.7,0,0,1-2.37-2.28,2.5,2.5,0,0,1,2.14-2.45,2.53,2.53,0,0,1,2.52,2A2.27,2.27,0,0,1,173.78,195.76Zm-.32-17.66a2.36,2.36,0,0,1,2.52,2.07,2.38,2.38,0,0,1-2.23,2.4,2.45,2.45,0,0,1-2.24-1.84A2.38,2.38,0,0,1,173.46,178.1Zm.48-8.45a2.68,2.68,0,0,1-3.05-2.74,2.62,2.62,0,0,1,2.61-2.66,2.65,2.65,0,0,1,2.79,2.48A2.71,2.71,0,0,1,173.94,169.65Zm6.23,19.61a2.41,2.41,0,0,1-2.11-2.48,2.54,2.54,0,0,1,2.45-2.19,2.39,2.39,0,0,1,2,2.52A2.24,2.24,0,0,1,180.17,189.26Zm.18-13.46a2,2,0,0,1-2.22-2.16c.16-1.19,1.52-2.37,2.54-1.91.79.35,1.31,1.29,2.24,2.29C181.84,174.8,181.17,175.61,180.35,175.8Zm-.5-12.46a2.88,2.88,0,0,1-2.64-3.2,3.17,3.17,0,0,1,3.31-2.61,3.47,3.47,0,0,1,2.74,3.29A3.2,3.2,0,0,1,179.85,163.34Zm7.37,32.37a2.53,2.53,0,0,1-2.65-2,2.38,2.38,0,0,1,1.86-2.67,2.49,2.49,0,0,1,2.62,2A2.19,2.19,0,0,1,187.22,195.71Zm-.55-26.38a2.24,2.24,0,0,1-2-2.47,2.35,2.35,0,0,1,2.53-2,2.38,2.38,0,0,1,1.7,2.78A2,2,0,0,1,186.67,169.33Zm2.19,10.84a1.85,1.85,0,0,1-2.12,2.16,6.24,6.24,0,0,1-2-1.36c0-1.71,1-2.77,2.2-2.75A2,2,0,0,1,188.86,180.17Zm-2-23.28a3,3,0,0,1-3.1-2.77,3.39,3.39,0,0,1,2.93-3.09,3.11,3.11,0,0,1,3,2.88A2.86,2.86,0,0,1,186.86,156.89Zm6.44,32.34a2.72,2.72,0,0,1-2.22-2.43,2.79,2.79,0,0,1,2.45-2.22,2.69,2.69,0,0,1,2.19,2.46A2.56,2.56,0,0,1,193.3,189.23Zm.23-17.45c1,0,2,1,1.77,2a11,11,0,0,1-1.7,2.64c-.95-1-1.84-1.56-2.12-2.34C191.11,173,192.37,171.76,193.53,171.78Zm.21-8.67a2.66,2.66,0,0,1-2.91-2.85,2.55,2.55,0,0,1,2.82-2.36,2.75,2.75,0,0,1,2.37,2.89A2.35,2.35,0,0,1,193.74,163.11Zm-.16-12.6a3.31,3.31,0,0,1-3.21-2.83,3,3,0,0,1,3.14-3.29c1.84,0,2.81,1,2.84,2.94A3.12,3.12,0,0,1,193.58,150.51Zm8.73,43.21a2.24,2.24,0,1,1-4.46-.46,2.09,2.09,0,0,1,2.42-2A2.24,2.24,0,0,1,202.31,193.72Zm-2.58-15.53a2.25,2.25,0,0,1,2.44,2.09,2.13,2.13,0,0,1-4.26.05A2.14,2.14,0,0,1,199.73,178.19ZM198,166.88a1.86,1.86,0,0,1,1.93-1.88,2.11,2.11,0,0,1,2.12,2.31c-.15,1.2-1.48,2.27-2.49,1.9A2.19,2.19,0,0,1,198,166.88Zm2.16-9.93a3,3,0,0,1-3.07-3.41,2.59,2.59,0,0,1,2.83-2.41,3.28,3.28,0,0,1,2.94,3.14A2.93,2.93,0,0,1,200.14,157Zm-.22-12.8c-1.68,0-3-1.46-3.06-3.49a2.51,2.51,0,0,1,2.3-2.88c2.37-.16,3.9,1,4,3A3.37,3.37,0,0,1,199.92,144.15Zm6.26,45a2.37,2.37,0,0,1-1.76-2.76,2.4,2.4,0,0,1,2.28-1.73,2.26,2.26,0,1,1-.52,4.49Zm.29-17.4a2,2,0,0,1,2.08,1.82,2,2,0,0,1-1.68,2.21,2.13,2.13,0,0,1-2.36-1.51A2.22,2.22,0,0,1,206.47,171.8Zm0-8.93a2.43,2.43,0,0,1-2.32-2.25,2.49,2.49,0,0,1,2-2.53,2.31,2.31,0,0,1,2.56,2.48A2.45,2.45,0,0,1,206.49,162.87Zm-.07-12.45a3.15,3.15,0,0,1-2.87-3.13,2.9,2.9,0,0,1,3.14-2.76,2.87,2.87,0,0,1,2.84,3.06A3.09,3.09,0,0,1,206.42,150.42Zm7.13,31.93a2.17,2.17,0,0,1-2.69-1.63,2.39,2.39,0,0,1,1.92-2.58,2.06,2.06,0,0,1,2.38,2A1.94,1.94,0,0,1,213.55,182.35Zm-.64-13.18c-.93.2-1.92-1.13-1.85-2.06a2,2,0,0,1,2.63-1.68c.64.29,1.06,1.09,1.85,2C214.44,168.18,213.74,169,212.91,169.17Zm-.11-12.44a2.77,2.77,0,0,1-2.51-2.76c.07-1.75,1.36-3.18,2.8-3.09a3.15,3.15,0,0,1,2.85,3.09A3.09,3.09,0,0,1,212.8,156.73Zm0-12.55a3.76,3.76,0,0,1-3-3.76c.05-1.62,1.58-2.66,3.84-2.59a2.37,2.37,0,0,1,2.52,2.65C216.21,142.71,214.64,144.43,212.82,144.18Zm6.85,45.38a2.83,2.83,0,0,1-2.41-2.28,2.73,2.73,0,0,1,2.44-2.78,2.53,2.53,0,0,1,0,5.06Zm0-26.72a2.53,2.53,0,0,1-2.33-2.34,2.79,2.79,0,0,1,2.37-2.37,2.61,2.61,0,0,1,2.31,2.38A2.56,2.56,0,0,1,219.66,162.84Zm2.13,11.46a2.21,2.21,0,0,1-2.36,1.56,2.07,2.07,0,0,1-2-2,2.17,2.17,0,1,1,4.31.42Zm1-26.09a3.37,3.37,0,0,1-3.93,2.45,3.24,3.24,0,0,1-2.37-3.94,2.56,2.56,0,0,1,2.37-2.32,35.15,35.15,0,0,1,3.77.19A16.31,16.31,0,0,1,222.78,148.21Zm3.08,34.23a2,2,0,0,1-1.66-2.28,2.14,2.14,0,0,1,2-2,2.17,2.17,0,1,1-.35,4.3Zm.21-17.19c1.3-.09,2.58,1,2.18,2.13-.3.81-1.16,1.42-2.07,2.46a12.13,12.13,0,0,1-1.85-2.57C224,166.3,225,165.33,226.07,165.25Zm0-8.51a3.3,3.3,0,0,1-2.69-2.73,3.11,3.11,0,0,1,2.82-3.08,2.89,2.89,0,0,1,2.58,2.72C228.86,155.29,227.46,156.88,226.06,156.74Zm7.1,19.11c-1.25.21-2.41-.68-2.53-2.39.42-.42,1-1.35,1.73-1.68,1.06-.45,2.35.68,2.48,1.88A2.07,2.07,0,0,1,233.16,175.85ZM231,160.49a1.85,1.85,0,0,1,1.63-2.17,2.2,2.2,0,0,1,2.21,2.3,2,2,0,0,1-2,1.89A1.9,1.9,0,0,1,231,160.49Zm4.79-12.77a3.19,3.19,0,0,1-3.28,2.62,3.06,3.06,0,0,1-2.86-3.51c.18-1.68,1.31-2.56,3.23-2.5A3,3,0,0,1,235.75,147.72Zm5.75,32.82a7,7,0,0,1-1.49,2.05c-1.72.09-3-1-3-2.11a2.5,2.5,0,0,1,2.32-2.36C240.54,178.11,241.84,179.39,241.5,180.54Zm-4.25-13.64a2.26,2.26,0,0,1,2.37-1.65,1.83,1.83,0,0,1,1.72,2.14,1.94,1.94,0,0,1-2,1.94A2.11,2.11,0,0,1,237.25,166.9Zm2-10.52a2.47,2.47,0,0,1-2.33-2.85,2.3,2.3,0,0,1,2.65-1.91,2.43,2.43,0,0,1,2.14,2.51A2.59,2.59,0,0,1,239.22,156.38ZM246,176c-1.2.05-2.52-1.21-2.14-2.33a6.51,6.51,0,0,1,1.54-2c1.73,0,2.86,1.2,2.72,2.35A2.39,2.39,0,0,1,246,176Zm-2.15-15.42c.08-.91,1.25-2.15,2.12-1.9A7.64,7.64,0,0,1,248,160a2.35,2.35,0,0,1-2.36,2.64A2.24,2.24,0,0,1,243.8,160.55Zm2.08-10.7a2.57,2.57,0,0,1-2.55-2.68,2.42,2.42,0,0,1,2.18-2.43,3,3,0,0,1,2.88,3A2.35,2.35,0,0,1,245.88,149.85ZM252.54,183a2.6,2.6,0,0,1-2.41-2.75,2.49,2.49,0,0,1,2.38-2.22,2.49,2.49,0,0,1,0,5Zm-.14-27c-1.21.14-2.08-1.14-2-2.46a1.83,1.83,0,0,1,2.11-1.7,2.45,2.45,0,0,1,2,3C254,155.13,253.24,155.91,252.4,156Zm2.12,11.11a2,2,0,1,1-4-.06,1.94,1.94,0,0,1,2.07-1.85A1.85,1.85,0,0,1,254.52,167.12Zm-2.28-23.76a2.64,2.64,0,0,1-2.67-2.6,2.73,2.73,0,0,1,3-2.79,2.65,2.65,0,0,1,2.36,2.87A2.51,2.51,0,0,1,252.24,143.36Zm6.49,6.33a2.22,2.22,0,1,1,.77-4.37,2.16,2.16,0,0,1,1.71,2.28A2.2,2.2,0,0,1,258.73,149.69Zm2.43,11a2.25,2.25,0,0,1-2,2.07c-1.22.1-2.62-1.07-2.32-2.19a6.61,6.61,0,0,1,1.44-2A2.4,2.4,0,0,1,261.16,160.72Zm-2.2,15.4a2.12,2.12,0,0,1-2.2-2.32,2.24,2.24,0,0,1,2.37-2.21,2.17,2.17,0,0,1,2.2,2.34A2.2,2.2,0,0,1,259,176.12Zm-.31-39a3,3,0,0,1-2.84-3.07,2.6,2.6,0,0,1,2.79-2.95,2.89,2.89,0,0,1,3.19,2.68A3.14,3.14,0,0,1,258.65,137.13Zm6.86,1.6a2.37,2.37,0,0,1,2.24,2.29,2.32,2.32,0,0,1-2.3,2.22,2.38,2.38,0,0,1-2.25-2.31A2.33,2.33,0,0,1,265.51,138.73Zm2.15,28.86a2,2,0,0,1-1.93,1.91,2.28,2.28,0,0,1-2.3-2.66,2,2,0,0,1,2.24-1.62A2,2,0,0,1,267.66,167.59Zm-1.88-11.41a2.13,2.13,0,0,1-2.36-2.18,2.33,2.33,0,0,1,2-2.08,2.26,2.26,0,0,1,2.35,2.26A2,2,0,0,1,265.78,156.18Zm6.11-24.28c1.33,0,2.82,1.55,2.39,2.75-.29.83-1.21,1.44-1.65,1.92a2.83,2.83,0,0,1-2.94-2.24A2.45,2.45,0,0,1,271.89,131.9Zm.06,31a2.38,2.38,0,0,1-2-2.06,2.27,2.27,0,0,1,2.14-2.39,2.49,2.49,0,0,1,2.34,2.28A2.74,2.74,0,0,1,272,162.92Zm.36-13.23a2.23,2.23,0,1,1-.33-4.44,2.24,2.24,0,0,1,2.54,2A2.3,2.3,0,0,1,272.31,149.69Zm6.41-6.33a2.37,2.37,0,0,1-2.36-2.27,2.43,2.43,0,0,1,2.29-2.38A2.5,2.5,0,0,1,281,141,2.25,2.25,0,0,1,278.72,143.36Zm.17,12.79a2.15,2.15,0,0,1-2.27-1.59,2.34,2.34,0,0,1,1.74-2.68,2.26,2.26,0,0,1,2.57,1.86A2.18,2.18,0,0,1,278.89,156.15Zm-3.09-29.09a2.58,2.58,0,0,1,2.29-2.39,2.76,2.76,0,0,1,2.89,2.92,2.39,2.39,0,0,1-2.27,2.34A2.71,2.71,0,0,1,275.8,127.06Zm3.46,42.76a2.55,2.55,0,1,1,1.91-2.55A2.28,2.28,0,0,1,279.26,169.82ZM285.64,132c.45.46,1.37,1,1.69,1.81a2.25,2.25,0,0,1-2,3,2.46,2.46,0,0,1-2.37-2.24A2.73,2.73,0,0,1,285.64,132ZM285,145.25a2.16,2.16,0,0,1,2.44,2,2.21,2.21,0,0,1-2,2.42,2.28,2.28,0,0,1-2.43-2.07A2,2,0,0,1,285,145.25Zm.31,17.84a2.38,2.38,0,0,1-2.37-2.27,2.43,2.43,0,0,1,2.14-2.5,2.34,2.34,0,0,1,2.37,2.26A2.43,2.43,0,0,1,285.34,163.09Zm4.15-35.38a2.33,2.33,0,0,1,2.52-2.09,2.39,2.39,0,0,1,2,2.58,2.29,2.29,0,1,1-4.56-.49Zm2,28.65a2.22,2.22,0,0,1-2-2.48,2.34,2.34,0,0,1,2.35-2.2,2.3,2.3,0,0,1,2.27,2.24A2.44,2.44,0,0,1,291.49,156.36Zm.68-13.05a2.36,2.36,0,0,1-2.7-1.74,2.5,2.5,0,0,1,2.26-2.83,2.38,2.38,0,0,1,2.47,2.09A2.34,2.34,0,0,1,292.17,143.31Zm5.9-24.15a2.41,2.41,0,0,1,2.52,2,2.35,2.35,0,0,1-2.26,2.28,2.39,2.39,0,0,1-2.2-1.8A2.18,2.18,0,0,1,298.07,119.16Zm.38,12.85a2.69,2.69,0,0,1,2.34,2.35,2.55,2.55,0,0,1-2.18,2.46,2.37,2.37,0,0,1-2.51-2A2.47,2.47,0,0,1,298.45,132Zm.24,31.12a2.72,2.72,0,0,1-2.68-1.85,2.63,2.63,0,0,1,2.29-2.81,2.52,2.52,0,0,1,2.43,2.16A2.48,2.48,0,0,1,298.69,163.13Zm-.16-13.1a2.39,2.39,0,1,1-.37-4.76,2.5,2.5,0,0,1,2.66,2.45A2.47,2.47,0,0,1,298.53,150Zm6.53-19.87a2.26,2.26,0,0,1-2.46-2.08,2.51,2.51,0,0,1,2.14-2.5,2.37,2.37,0,0,1,2.44,2.14A2.31,2.31,0,0,1,305.06,130.16Zm-.48-18.26c1.35,0,2.5,1.36,2.47,3.34-.5.41-1.15,1.3-2,1.56-1.36.42-2.8-1.35-2.71-3.09A2.38,2.38,0,0,1,304.58,111.9Zm.71,44.44a2.26,2.26,0,0,1-2.61-1.91,2.34,2.34,0,0,1,1.93-2.61,2.24,2.24,0,0,1,2.61,1.89A2.38,2.38,0,0,1,305.29,156.34Zm0-12.91a2.48,2.48,0,0,1-2.82-2.36,2.66,2.66,0,0,1,2.77-2.52,2.36,2.36,0,0,1,2.19,2.44A2.18,2.18,0,0,1,305.29,143.43Zm4.3-22a6.38,6.38,0,0,1,1.29-2c1.58-.15,2.45.64,2.55,1.8a1.84,1.84,0,0,1-1.8,2.06C310.52,123.27,309.38,122.42,309.59,121.42Zm2.11,28.43a2.43,2.43,0,0,1-2.51-2.13,2.17,2.17,0,0,1,2.05-2.44,2.28,2.28,0,0,1,2.45,2.13A2.07,2.07,0,0,1,311.7,149.85ZM311.52,137a2.71,2.71,0,0,1-2.55-2.77,2.63,2.63,0,0,1,2.89-2.38,2.8,2.8,0,0,1,2.54,2.8A2.5,2.5,0,0,1,311.52,137ZM318,112.5a2.05,2.05,0,0,1,2,2.43c-.21.83-1.08,1.49-1.48,2a2.49,2.49,0,0,1-2.64-2.43A2.43,2.43,0,0,1,318,112.5Zm0,30.77a2.57,2.57,0,0,1-.2-5.11,2.85,2.85,0,0,1,2.76,2.51A2.62,2.62,0,0,1,318,143.27Zm.24-12.51a2.66,2.66,0,0,1-2.64-2.66,2.55,2.55,0,0,1,2.63-2.62,2.7,2.7,0,0,1,2.63,2.68A2.5,2.5,0,0,1,318.26,130.76Zm10.46-30.15A2.28,2.28,0,0,1,331,99a2.58,2.58,0,0,1,2.44,2.74,2.45,2.45,0,0,1-2.39,2.22A2.87,2.87,0,0,1,328.72,100.61Zm2.86,11.17a2.91,2.91,0,0,1,2.58,2.75,3.31,3.31,0,0,1-3.32,3.25,2.93,2.93,0,0,1-2.58-2.79A3.18,3.18,0,0,1,331.58,111.78ZM325,105.72a2.46,2.46,0,0,1,2,2.55,2.69,2.69,0,0,1-2.36,2.27,2.84,2.84,0,0,1-2.31-2.38A2.56,2.56,0,0,1,325,105.72Zm.15,13.29a2.21,2.21,0,0,1,2.26,2.27,2.78,2.78,0,0,1-2.57,2.7,2.5,2.5,0,1,1,.31-5Zm2.74,16.28a2.36,2.36,0,0,1-2.72,2.33,3.92,3.92,0,0,1-3.47-3.78c.05-1.45,1.51-2.56,3.28-2.52C327,131.36,328.06,132.86,327.89,135.29Zm6.35-4.66a26.63,26.63,0,0,1-3.09.38c-2,0-2.79-.65-3-2.16-.29-2.11.64-3.67,2.41-4a3.21,3.21,0,0,1,3.63,2.29A15.36,15.36,0,0,1,334.24,130.63Zm3.3-25.09a2.45,2.45,0,0,1,2.52,2.68,2.58,2.58,0,0,1-2.72,2.56,2.63,2.63,0,0,1-2.62-2.66A3,3,0,0,1,337.54,105.54Zm-.07,18.86a2.89,2.89,0,0,1,.37-5.76,3,3,0,0,1,2.79,3A3.06,3.06,0,0,1,337.47,124.4Zm24.36-43.47a2.82,2.82,0,0,1,.54-.88,6.83,6.83,0,0,1,1.05-.73,10.28,10.28,0,0,1,1.62.86c.85.63,1.61,1.41,1.19,2.61-.33.93-1.83,1.33-3.19.95S361.25,82.31,361.83,80.93Zm-5.08,5.3c1.82.27,2.89,1.2,2.8,2.45A2.4,2.4,0,0,1,357.19,91a2.57,2.57,0,0,1-2.37-2.82A1.79,1.79,0,0,1,356.75,86.23Zm-12.57,31.28a2.5,2.5,0,0,1-2.4-2.81,2.71,2.71,0,0,1,2.7-2.6A2.87,2.87,0,0,1,347,115,2.91,2.91,0,0,1,344.18,117.51Zm7-6.65a2.87,2.87,0,0,1-3-2.36,3.12,3.12,0,0,1,2.57-3.4,3,3,0,0,1,2.92,2.44A2.78,2.78,0,0,1,351.17,110.86Zm13.14.08c-1.83.27-3.22-.71-3.3-2.33a3,3,0,0,1,2.72-3.13,3.1,3.1,0,0,1,3.13,2.78C367,109.6,366,110.7,364.31,110.94Zm5.71-6.72c-1.24-.15-2.15-1.6-2-3.21a2.94,2.94,0,0,1,3.37-2.52c1.14.17,2.22,1.84,2.1,3.25A3.13,3.13,0,0,1,370,104.22Zm3.63-15.31c-.12,1-.29,2-.47,3.25h-4c-2.06,1.29-1.8,3.47-2.61,5.43L361.21,99a34.31,34.31,0,0,1-.83,3.61,3.13,3.13,0,0,1-3.34,2,2.87,2.87,0,0,1-2.72-2.08c-.19-.66-.15-1.41-.4-2a3.42,3.42,0,0,0-3.4-1.93,3.18,3.18,0,0,0-2.85,2c-.24.65-.24,1.38-.43,2.05a2.56,2.56,0,0,1-2.79,1.88,2.74,2.74,0,0,1-1.56-5.22,8,8,0,0,1,1.93-.81c1.85-.46,3.21-1.35,3.34-3.46a1.43,1.43,0,0,1,.14-.5c1.13-2.24,3.31-2.61,5.08-.79a11.65,11.65,0,0,1,1.39,2.15c1.29,2.09,2.29,2.68,3.62,2.12,1.62-.69,1.92-1.74,1.26-4.37-.08-.33-.12-.68-.21-1.24,1.72-1.84,3.79-1.28,5.76-1.48,1.11-1.37,2.13-2.78,3.31-4.05a2.83,2.83,0,0,1,3.34-.76A2.52,2.52,0,0,1,373.65,88.91Zm10-16.74c1.23-.08,2.37,1.21,2.45,2.78a2.59,2.59,0,0,1-1.85,2.73,3.07,3.07,0,0,1-3.12-2.16A3.11,3.11,0,0,1,383.64,72.17Zm-4.73,25.09a3,3,0,0,1-4.25,0c-1.84-1.51-.6-3.11,0-5.05,2-.29,3.82-1.15,5,.77C380.47,94.17,379.9,96.36,378.91,97.26Zm5.68-5.67a3,3,0,0,1-4.17-2.48c-.15-1-.24-2-.36-3.11-2.29-.67-4.59-1.1-5.77-3.7a6.92,6.92,0,0,1,.55-1.74c.82-1.36,2.63-1.69,3.49-.56,1.14,1.51,2.07,3.18,3.22,5,.9.12,1.93.2,2.94.41a2.7,2.7,0,0,1,2.29,2.44A3.63,3.63,0,0,1,384.59,91.59Zm13.33-13.44a6,6,0,0,1-4.81-.18.14.14,0,0,1,0,.06l-.11,0a38.07,38.07,0,0,1,.29,4.39,3,3,0,0,1-2.68,2.72,3.16,3.16,0,0,1-3.18-1.28,3.66,3.66,0,0,1,0-3.91,3,3,0,0,1,1.67-1.07c1.27-.37,2.6-.58,3.9-.85,0,0,0-.09,0-.14l.14.06a33.36,33.36,0,0,1,1.6-3.67,2.7,2.7,0,1,1,3.21,3.85Zm5.83-7.24a1.83,1.83,0,0,1-2.27-2,6.79,6.79,0,0,1,1.17-2.15,2.56,2.56,0,0,1,2.91,2.09A2,2,0,0,1,403.75,70.91Zm6.1-11.25A2.62,2.62,0,0,1,412,62.17a2.39,2.39,0,0,1-2.35,2.26A2.52,2.52,0,0,1,407.48,62,2.56,2.56,0,0,1,409.85,59.66Zm.83,18.73a3.24,3.24,0,0,1-3.86-2.56,3,3,0,0,1,2.26-3.55,14.06,14.06,0,0,1,3.05,0,14.94,14.94,0,0,1,.87,3.17A2.93,2.93,0,0,1,410.68,78.39Z"/><path class="cls-2" d="M39.64,157l.13,0v-.11h-.12Z"/><path class="cls-2" d="M39.76,150.73l-.13-.14v.19h.19Z"/><path class="cls-2" d="M45.87,156.83v.2h.19L46,157Z"/><path class="cls-2" d="M393,78.05l.11,0a.14.14,0,0,0,0-.06l-.14-.06S393,78,393,78.05Z"/><path class="cls-2" d="M19.69,144.32v.14h.15Z"/><path class="cls-2" d="M104.66,150.6a.61.61,0,0,1,0,.14h.13Z"/><path class="cls-2" d="M13.92,144.87l.08,0a.36.36,0,0,0,0-.09h0Z"/><path class="cls-2" d="M31.86,150.29h.05s0,0,0-.05l-.15,0Z"/><path class="cls-2" d="M111.09,150.72a.28.28,0,0,0,0-.09l-.12.09Z"/><polygon class="cls-2" points="110.96 150.72 110.96 150.72 110.96 150.72 110.96 150.72"/><path class="cls-2" d="M281.16,30.72l.08.06a2.25,2.25,0,0,1,.08-.24Z"/><path class="cls-2" d="M288.79,15.83l.13-.09-.11.08Z"/><path class="cls-2" d="M245.35,72.11c-.16,0-.35,0-.51.1a3.37,3.37,0,0,0-2.25,3.7c.08,1.47.86,2.25,2.71,2.63,1,.2,2,.34,3.2.54.3,1.29.52,2.47.85,3.61a3.33,3.33,0,0,0,3.07,2.39,3.17,3.17,0,0,0,3-1.81c.3-.61.24-1.38.49-2,.7-1.8,1.57-2.35,3.63-2.19a13.16,13.16,0,0,1,2.36.63c.43,1.24.74,2.23,1.12,3.2a2.65,2.65,0,0,0,2.9,1.75,2.45,2.45,0,0,0,2.33-1.8A7.41,7.41,0,0,1,271,78.52c.21-.15.22-.59.4-1.12l-2.55-2.09c-1.89,2.86-2.74,3.43-4,2.82a3,3,0,0,1-1.66-3.94c.49-1.49,1.52-1.73,5-1.06a18.36,18.36,0,0,1,.25-3.59,8.39,8.39,0,0,1,1.68-3.69c2.69-2.72,5.73-5.09,8.43-7.79,2.95-3,6.25-5.66,8.06-9.54A11.55,11.55,0,0,1,290,43.94,5.19,5.19,0,0,0,292,39.31a14.11,14.11,0,0,1-2-1.59c-1.41-1.58-.85-3.41,1.27-4a14.88,14.88,0,0,1,3-.22,22.33,22.33,0,0,0,.76-2.11c.94-3.9,2-7.88,1.32-11.86a22.16,22.16,0,0,1-.42-6.17,12.31,12.31,0,0,0-.41-2.71l-6.65,5.07h0c.22,1.17.44,2.33.65,3.41A33.19,33.19,0,0,1,293,20.86a2.47,2.47,0,0,1,.58,3.61,2.59,2.59,0,0,1-4.07.07,7.42,7.42,0,0,1-1.1-2.79c-.3-1.29-1.3-1.54-2.28-1.76a2.28,2.28,0,0,0-2.53,1.37,3.82,3.82,0,0,0,0,4.41,13.13,13.13,0,0,1,2.49.61,3.21,3.21,0,0,1,1.82,4.27c-.68,1.79-2.22,2.5-4.2,1.72a13.79,13.79,0,0,1-2.49-1.59c-.55,1.69.34,3.24.54,4.86a3.16,3.16,0,0,1-6.23.93c-.24-1-.34-2-.48-2.88-4.33-1.08-5.13-.89-6.17,2.57-.61,2-1.52,3-3.53,3.11a2.78,2.78,0,0,0-2.95,2.46c-.24,2.8-1.66,4-4.35,4.2a2.48,2.48,0,0,0-2.25,2.53c-.08,2.64-1.54,3.53-4,3.93-2.12.34-2.57,1.13-2.55,3.29a14.36,14.36,0,0,0,.64,2.89,29.13,29.13,0,0,1,3.35.64,2.88,2.88,0,0,1,2.1,3.19A3,3,0,0,1,252.49,65a11.5,11.5,0,0,1-2.92-.81c-.2-1.25-.3-2.29-.53-3.3a2.28,2.28,0,0,0-2.31-1.77,3,3,0,0,0-3.48,2.42,3,3,0,0,0,2,3.76,20.82,20.82,0,0,0,2.88.71C249.59,70.23,249.21,71,245.35,72.11Zm39.34-32a2.35,2.35,0,0,1,2.73,2.39,2,2,0,0,1-2.08,2.39,2.87,2.87,0,0,1-2.94-2.36A2.59,2.59,0,0,1,284.69,40.09Zm-6.56,6.06c1.35-.13,2.87,1.48,2.83,3a2.74,2.74,0,0,1-2.35,2.31,2.81,2.81,0,0,1-2.81-2.92A3,3,0,0,1,278.13,46.15Zm-6,12a2.58,2.58,0,0,1-2.72-2.52A2.62,2.62,0,0,1,272,53a2.51,2.51,0,0,1,2.44,2.23A2.75,2.75,0,0,1,272.09,58.12ZM271.14,40c2.24-.06,4.1.94,4.21,2.26a3.37,3.37,0,0,1-3.17,3.44c-1.57,0-2.72-1.2-2.86-3C269.2,41.17,270,40.06,271.14,40Zm-5.58,6.63a2.62,2.62,0,0,1,2.81,2.43A2.68,2.68,0,0,1,265.54,52a2.69,2.69,0,0,1,0-5.37ZM262.89,62a2.71,2.71,0,0,1,2.74-2.49,2.68,2.68,0,0,1,2.25,2.94,2.44,2.44,0,0,1-2.78,2.35A2.3,2.3,0,0,1,262.89,62Zm-4.19,9.72a3.12,3.12,0,0,1-2.39-2.91A3,3,0,0,1,259,66.14a3,3,0,0,1,2.92,2.9A3.08,3.08,0,0,1,258.7,71.69ZM256,55.56a3.26,3.26,0,0,1,3.4-2.57,2.83,2.83,0,0,1,2.65,2.69,3.19,3.19,0,0,1-3.33,3.17A3.26,3.26,0,0,1,256,55.56Zm-4.15,17.3c1.56-.16,3,.77,3.13,2a2.87,2.87,0,0,1-2.44,3.33c-1.85.07-3.24-1-3.22-2.57A2.86,2.86,0,0,1,251.87,72.86Z"/><path class="cls-2" d="M288.87,15.69a.52.52,0,0,0-.06.13h0l.1-.08Z"/><path class="cls-2" d="M288.83,11c-.65-2.59.29-3.92,3-4.15.75-.07,1.6.79,2.25-.24-1.71-4.66-1.71-4.66-5.31-5.32-.15,1.68-.3,3.33-.44,4.82a21.74,21.74,0,0,0-3.92,1.81,2.84,2.84,0,0,0,.95,5.14,7.2,7.2,0,0,1,3.55,2.67,4.09,4.09,0,0,0,.68-1.74A16.06,16.06,0,0,0,288.83,11Z"/><path class="cls-2" d="M288.81,15.82l.11-.08h0Z"/><path class="cls-2" d="M13.82,138.56l0-.14h-.06Z"/><path class="cls-2" d="M14.38,131.31c-.29.06-.53.4-.82.63-.78,2.18-.3,4.33.23,6.48L19,137.23C20.79,131.78,18.69,130.39,14.38,131.31Z"/><path class="cls-2" d="M13.73,138.44h0l.09.12Z"/><path class="cls-2" d="M281.75,105.8c-1.58-1.29-3.13-1.06-4.64-.7a2,2,0,0,0-1.17.91c-1.37,2.43-.18,5,2.42,5.48l3.37.59A17.91,17.91,0,0,0,281.75,105.8Z"/><path class="cls-2" d="M281.87,112.1l-.14,0,0,.18Z"/><path class="cls-2" d="M117.59,144a15.48,15.48,0,0,0,.41-2.8c-.11-2.38-1.35-3.46-3.68-3.36-1.91.07-3,1.32-2.87,3.55a11.33,11.33,0,0,0,.84,2.61Z"/><path class="cls-2" d="M29.37,137.74c2.45,0,3.28-.88,3.26-3.57,0-2.28-.86-3.1-3.17-3.08s-3.24.8-3.3,3C26.09,136.76,26.92,137.71,29.37,137.74Z"/><path class="cls-2" d="M241.78,138.56l.07-.08,0-.06A.68.68,0,0,1,241.78,138.56Z"/><path class="cls-2" d="M239.6,131.14a3.26,3.26,0,0,0-3.55,3.48,14,14,0,0,0,.41,2.59c1,.21,1.76.4,2.58.54s2-.28,2.76.67a41.06,41.06,0,0,0,.58-4.91A2.49,2.49,0,0,0,239.6,131.14Z"/><path class="cls-2" d="M34.52,144.15a5.79,5.79,0,0,0,1.55.11c2.35-.16,3.42-1.44,3.24-3.77-.14-1.69-1.24-2.61-3.23-2.67-2.25-.07-3.36.83-3.34,3a13.4,13.4,0,0,0,.6,2.82A5.9,5.9,0,0,0,34.52,144.15Z"/><path class="cls-2" d="M269.73,104.57h5.46c.16-2.38.94-4.32-1-5.71a3.62,3.62,0,0,0-4.33.26C268.41,100.76,268.45,102.54,269.73,104.57Z"/><path class="cls-2" d="M272.11,118a18,18,0,0,0,2.78-.28,25.25,25.25,0,0,0,.49-3.59c0-1.71-.86-2.48-2.59-2.55a8.44,8.44,0,0,0-2.55.29,2,2,0,0,0-1.07,1C267.93,115.5,269.27,117.84,272.11,118Z"/><path class="cls-2" d="M227.54,111.3a2.38,2.38,0,0,0,1.93-2.65c0-2-.71-3.3-2.13-3.67-2.7-.69-4.29.51-4.3,3.34a14.44,14.44,0,0,0,.34,2.26A4.44,4.44,0,0,0,227.54,111.3Z"/><path class="cls-2" d="M25.68,138.41c-2-.65-3.71-1-5.72,0a18.48,18.48,0,0,0-.13,5.89H26A13.89,13.89,0,0,0,25.68,138.41Z"/><path class="cls-2" d="M26,144.48l.11-.12,0-.05H26v.19Z"/><path class="cls-2" d="M19.83,144.32h-.14l.15.15A.76.76,0,0,1,19.83,144.32Z"/><path class="cls-2" d="M26,144.48l.11-.12Z"/><path class="cls-2" d="M190,137.38c0-1.15,0-2.18,0-3.21a1.73,1.73,0,0,0-.16-1c-.52-.62-1.07-1.45-1.77-1.67a3.33,3.33,0,0,0-4.49,3,16.5,16.5,0,0,0,.28,3C185.9,137.66,187.82,138.33,190,137.38Z"/><path class="cls-2" d="M203.27,130.48l-.13,0,.12.13Z"/><path class="cls-2" d="M209.5,130.34c.25-2,.7-3.88-.75-5.48-1.77-.42-3.44-.66-4.9.61a3.21,3.21,0,0,0-.42,1c-.09,1.35-.12,2.69-.16,4A7.17,7.17,0,0,0,209.5,130.34Z"/><path class="cls-2" d="M203.26,130.56l-.12-.13h0Z"/><path class="cls-2" d="M262.3,108.85c.32,1.8,1.73,2.74,3.91,2.63,1.59-.08,2.39-.87,2.48-2.73a24.13,24.13,0,0,0-.24-3c-2.9-.93-3.15-1-4.14-.66A3,3,0,0,0,262.3,108.85Z"/><path class="cls-2" d="M288,97.89a.75.75,0,0,1,0,.16l.12,0Z"/><path class="cls-2" d="M282.08,102.64a5.92,5.92,0,0,0,.68,1.77c1.93.45,3.61.74,5.4-.42a11.73,11.73,0,0,0-.13-5.94c-.65.08-1.29.19-1.95.24C282.27,98.59,281.88,99,282.08,102.64Z"/><path class="cls-2" d="M278.27,98.24a29.41,29.41,0,0,0,3.46-.25,34.53,34.53,0,0,0,.19-3.55c-.12-1.73-.88-2.42-2.57-2.57-2.66-.23-3.81.81-3.83,3.49C275.5,97.29,276.26,98.14,278.27,98.24Z"/><path class="cls-2" d="M51.77,156.84c.93-5.55.59-6-4.34-6-.46,0-.91,0-1.36,0v6.08A9.79,9.79,0,0,0,51.77,156.84Z"/><path class="cls-2" d="M46,157l.06.06v-.16l-.2,0Z"/><path class="cls-2" d="M45.9,150.8h.17v-.21l0,0Z"/><polygon class="cls-2" points="45.87 156.83 45.87 156.83 45.87 156.83 45.87 156.83"/><path class="cls-2" d="M45.87,156.83h0L46,157Z"/><path class="cls-2" d="M177.25,150.73l.19-.17h-.24C177.22,150.62,177.23,150.67,177.25,150.73Z"/><path class="cls-2" d="M176.07,144.65a9.69,9.69,0,0,0-1.9-.3c-2.82.09-4,1.58-3.52,4.43a2.06,2.06,0,0,0,2.12,1.9c1.47,0,2.95-.06,4.43-.11C176.53,148.7,177.83,146.47,176.07,144.65Z"/><path class="cls-2" d="M137.43,149.8a23.43,23.43,0,0,0,0-3.45c-.21-1.41-1.4-2.07-3.15-2s-2.85.77-3.06,2.19-.23,2.64-.32,4C133,150.67,135.17,151.33,137.43,149.8Z"/><path class="cls-2" d="M130.68,150.47l.18.16a.66.66,0,0,1,0-.14Z"/><path class="cls-2" d="M104.8,150.6h-.14l.14.14Z"/><path class="cls-2" d="M111.08,150.63H111a.29.29,0,0,1,0,.09Z"/><path class="cls-2" d="M110.7,144.83c-5.15-.71-5.63-.34-5.87,4.36,0,.47,0,.94,0,1.41l6.18,0A7.89,7.89,0,0,0,110.7,144.83Z"/><polygon class="cls-2" points="110.96 150.72 110.96 150.72 111.08 150.63 110.96 150.72 110.96 150.72"/><path class="cls-2" d="M45.57,146.21c-.27-1.39-1.88-2.05-3.81-1.84a2.27,2.27,0,0,0-2.25,2.34,31.66,31.66,0,0,0,.29,3.88h6.09A31.8,31.8,0,0,0,45.57,146.21Z"/><path class="cls-2" d="M39.8,150.59h-.17l.13.14.06.05A1.37,1.37,0,0,0,39.8,150.59Z"/><path class="cls-2" d="M46,150.63l0,0h-.18a1.48,1.48,0,0,1,0,.21Z"/><path class="cls-2" d="M39.76,150.73l.06.05Z"/><path class="cls-2" d="M46.07,150.59l0,0Z"/><path class="cls-2" d="M42.24,137.7a3.32,3.32,0,0,0,3.58-3,3.17,3.17,0,0,0-2.92-3.59c-2.14-.18-3.51,1.2-3.47,3.49A2.93,2.93,0,0,0,42.24,137.7Z"/><path class="cls-2" d="M265.13,124.49c1,.05,2-.11,3.55-.2,0-1.62,0-2.63,0-3.65a2.24,2.24,0,0,0-.22-1c-.23-.43-.55-1.12-.88-1.15a10.79,10.79,0,0,0-4,0c-1.28.38-1.42,1.79-1.33,3C262.4,123.49,263.21,124.37,265.13,124.49Z"/><path class="cls-2" d="M213.14,124.5c2.17,0,3.14-1.08,3.09-3.29s-1.08-3.25-3.22-3.1a3.05,3.05,0,0,0-3.2,3.33C209.79,123.47,211,124.54,213.14,124.5Z"/><path class="cls-2" d="M281.7,112.26l.18-.08v-.09h0Z"/><path class="cls-2" d="M284.91,118c2.17,0,3.23-.78,3.45-3A15,15,0,0,0,288,112c-2.26-.41-4.21-.75-6.13.23.06,1.17.07,2.36.2,3.54C282.27,117.41,283,118,284.91,118Z"/><path class="cls-2" d="M281.87,112.1h0l-.17.16Z"/><path class="cls-2" d="M218.67,117.89a3.27,3.27,0,0,0,3.88-1.74,4.57,4.57,0,0,0,0-4,7,7,0,0,0-1.37-.49,8.27,8.27,0,0,0-2,0,3.05,3.05,0,0,0-2.71,3.22A3.12,3.12,0,0,0,218.67,117.89Z"/><path class="cls-2" d="M61.6,157.24a21.18,21.18,0,0,0,2.83-.28,3.86,3.86,0,0,0,.92-4,3.23,3.23,0,0,0-3.74-2A3.54,3.54,0,0,0,59,154.79C59,156.4,59.81,157.2,61.6,157.24Z"/><path class="cls-2" d="M148.6,150.62a2.48,2.48,0,0,0,1.68-1,3.49,3.49,0,0,0,0-3.88,3.36,3.36,0,0,0-3.62-1.36c-1.36.22-2.15,1.18-2.27,3a20,20,0,0,0,.32,3.1A29.12,29.12,0,0,0,148.6,150.62Z"/><path class="cls-2" d="M160.47,150.74c.84,0,1.67-.13,3.14-.26a19,19,0,0,0-.07-4,3.1,3.1,0,0,0-1.56-1.86,3.29,3.29,0,0,0-3.8.77c-1.13,1.13-1,2.52-.63,3.86S159.24,150.78,160.47,150.74Z"/><path class="cls-2" d="M245.78,131c2.27.06,3.44-.94,3.39-2.9s-1.27-3.47-3-3.51a3.56,3.56,0,0,0-3.5,3.67A2.88,2.88,0,0,0,245.78,131Z"/><path class="cls-2" d="M232.48,118a3.21,3.21,0,0,0,3.39-3.21c0-1.93-1.25-3.12-3.35-3.18s-2.91.81-3,2.78S230.65,117.86,232.48,118Z"/><path class="cls-2" d="M291.56,111.19a3.12,3.12,0,0,0,3.33-3.18,3,3,0,0,0-2.83-3.1,3.37,3.37,0,0,0-3.54,3C288.31,109.94,289.46,111.18,291.56,111.19Z"/><path class="cls-2" d="M294,97.37a3.31,3.31,0,0,0,.46-3.86,2.78,2.78,0,0,0-3-1.61,2.93,2.93,0,0,0-2.85,2.54c-.2,1.14-.28,2.31-.4,3.47a33.07,33.07,0,0,0,4,.27A3.15,3.15,0,0,0,294,97.37Z"/><path class="cls-2" d="M288,97.89l.16.14s0-.08,0-.12Z"/><path class="cls-2" d="M258.78,118c2.16.08,3.32-.94,3.4-3,.08-2.22-.87-3.33-2.94-3.43s-3.31.94-3.43,3S256.78,118,258.78,118Z"/><path class="cls-2" d="M219.38,131a20,20,0,0,0,2.59-.25,18.79,18.79,0,0,0,.78-2,3.71,3.71,0,0,0,.05-1.52A3.14,3.14,0,0,0,219,124.6c-1.79.28-2.78,1.66-2.7,3.76C216.41,130.13,217.28,130.94,219.38,131Z"/><path class="cls-2" d="M154.09,144.23a3.16,3.16,0,1,0-.51-6.28,3.43,3.43,0,0,0-2.61,3.42A3.07,3.07,0,0,0,154.09,144.23Z"/><path class="cls-2" d="M252.8,124.48a2.84,2.84,0,0,0,2.89-3,3.17,3.17,0,1,0-2.89,3Z"/><path class="cls-2" d="M127.3,144.25c2.4.1,3.82-1.12,3.71-3.18s-1.24-3.07-3.32-3.1-3,1-3.06,3.23C124.62,143.13,125.55,144.18,127.3,144.25Z"/><path class="cls-2" d="M61.42,144.22a3.59,3.59,0,0,0,4-3.13,3.15,3.15,0,0,0-2.73-3.2,3.23,3.23,0,0,0-1.29,6.33Z"/><path class="cls-2" d="M49.11,144.24a3,3,0,0,0,3.2-3.32,3.09,3.09,0,0,0-3.48-3A3,3,0,0,0,46,141.46,2.92,2.92,0,0,0,49.11,144.24Z"/><path class="cls-2" d="M239.23,85.14a3.26,3.26,0,0,0,3.2-3.3,3.15,3.15,0,0,0-2.78-3.14,3.56,3.56,0,0,0-3.55,3A3.34,3.34,0,0,0,239.23,85.14Z"/><path class="cls-2" d="M285.38,91.79a2.78,2.78,0,0,0,2.92-2.88A3.39,3.39,0,0,0,285,85.64a3.11,3.11,0,0,0-2.87,3.57C282.26,90.83,283.5,91.8,285.38,91.79Z"/><path class="cls-2" d="M193.7,131c1.82.12,2.83-.57,3-2,.22-2.23-.92-3.86-2.9-4.14a3.34,3.34,0,0,0-3.45,3.06C190.29,129.6,191.69,130.89,193.7,131Z"/><path class="cls-2" d="M75.28,157.25c2.3.09,3.25-.74,3.28-2.9a3,3,0,0,0-3-3.41,3.38,3.38,0,0,0-3.39,3.14C72,156.11,73.05,157.15,75.28,157.25Z"/><path class="cls-2" d="M225.86,118.09c-1.87,0-2.74.68-2.8,2.3-.09,2.56,1,4,3,4a3.18,3.18,0,1,0-.2-6.33Z"/><path class="cls-2" d="M233,124.65a3.29,3.29,0,0,0-3.41,3.13,2.76,2.76,0,0,0,2.63,3.19c2.12.17,3.64-.92,3.71-2.68A3.37,3.37,0,0,0,233,124.65Z"/><path class="cls-2" d="M166.77,144.15a3.15,3.15,0,0,0,3.59-2.88,3.2,3.2,0,0,0-2.72-3.27,3,3,0,0,0-3.47,3A2.64,2.64,0,0,0,166.77,144.15Z"/><path class="cls-2" d="M252.5,111.42a3.25,3.25,0,0,0,3.17-3.43,3,3,0,0,0-3-2.94,3.35,3.35,0,0,0-3.23,3.41A3.22,3.22,0,0,0,252.5,111.42Z"/><path class="cls-2" d="M141.45,144.23a3,3,0,0,0,2.71-3.22,3.3,3.3,0,0,0-3.54-3,2.87,2.87,0,0,0-2.61,3.25A3,3,0,0,0,141.45,144.23Z"/><path class="cls-2" d="M220.36,104.74a2.73,2.73,0,0,0,2.56-3.26c-.15-1.77-1.09-3-2.36-3a3.65,3.65,0,0,0-3.85,3.41A3.1,3.1,0,0,0,220.36,104.74Z"/><path class="cls-2" d="M101.67,144.23a2.89,2.89,0,0,0,3.1-2.79,3.12,3.12,0,1,0-6.2-.69A3.35,3.35,0,0,0,101.67,144.23Z"/><path class="cls-2" d="M415.57,52.25a25.85,25.85,0,0,0,3.61-.27,14.16,14.16,0,0,0,.37-2.2,19.27,19.27,0,0,0-.24-2.41c-1.35-.87-2.63-1.62-4-.72a5.39,5.39,0,0,0-1.9,2.28A2.4,2.4,0,0,0,415.57,52.25Z"/><path class="cls-2" d="M226.17,98.23c2,0,3.29-1.52,3.26-3.82a2.84,2.84,0,0,0-3.29-2.51,3.19,3.19,0,0,0-3,3.52A2.79,2.79,0,0,0,226.17,98.23Z"/><path class="cls-2" d="M55.65,144.37a3.4,3.4,0,0,0-3.21,3.44,2.86,2.86,0,0,0,3,2.91,2.89,2.89,0,0,0,3.36-3.08C58.85,145.55,57.62,144.28,55.65,144.37Z"/><path class="cls-2" d="M174.25,137.64a3.25,3.25,0,0,0,2.63-3.39,3.16,3.16,0,0,0-3.31-2.7c-1.89.08-3,1.55-2.8,3.62C170.92,136.54,172.65,137.76,174.25,137.64Z"/><path class="cls-2" d="M81.75,144.49a3.17,3.17,0,0,0-3,3,3.31,3.31,0,0,0,3.36,3.21A2.69,2.69,0,0,0,85,147.8,3.32,3.32,0,0,0,81.75,144.49Z"/><path class="cls-2" d="M236.22,121.73a3.08,3.08,0,0,0,3.23,2.65,2.89,2.89,0,0,0,2.79-3,3,3,0,0,0-2.88-3A3.36,3.36,0,0,0,236.22,121.73Z"/><path class="cls-2" d="M258.94,104.73c1.95.06,3.16-.92,3.22-2.61.08-2.06-1.15-3.56-2.93-3.56a3.27,3.27,0,0,0-3.34,3.26A2.9,2.9,0,0,0,258.94,104.73Z"/><path class="cls-2" d="M200.28,124.49c1.88,0,3-1.11,2.95-2.8a3.46,3.46,0,0,0-3.28-3.33,2.77,2.77,0,0,0-2.88,2.93A2.94,2.94,0,0,0,200.28,124.49Z"/><path class="cls-2" d="M232.43,91.73A3.66,3.66,0,0,0,235.88,88a2.74,2.74,0,0,0-3.16-2.6,3.13,3.13,0,0,0-3.13,3.33A2.93,2.93,0,0,0,232.43,91.73Z"/><path class="cls-2" d="M68.74,144.45a2.85,2.85,0,0,0-2.9,3c-.07,1.91.88,3.14,2.53,3.27A3.43,3.43,0,0,0,72,147.2,3.36,3.36,0,0,0,68.74,144.45Z"/><path class="cls-2" d="M239.56,105.05a3.43,3.43,0,0,0-3.41,2.56,3.33,3.33,0,0,0,2.8,3.66,3.26,3.26,0,0,0,3.42-3A3.55,3.55,0,0,0,239.56,105.05Z"/><path class="cls-2" d="M82,137.42a3,3,0,0,0,3-2.9c.14-1.72-.84-2.6-2.91-2.62s-3.18.8-3.31,2.36A3.11,3.11,0,0,0,82,137.42Z"/><path class="cls-2" d="M134.51,137.5a3,3,0,0,0,2.78-3.15,2.88,2.88,0,0,0-3.14-2.73,3.11,3.11,0,0,0-2.82,3.12A3.07,3.07,0,0,0,134.51,137.5Z"/><path class="cls-2" d="M239.34,72a2.74,2.74,0,0,0,3.1-2.76,3,3,0,1,0-5.92-.27A2.73,2.73,0,0,0,239.34,72Z"/><path class="cls-2" d="M266.14,98.23a2.67,2.67,0,0,0,2.48-2.8,3.19,3.19,0,0,0-3.23-3.31,3.09,3.09,0,0,0-2.82,3.16A3.2,3.2,0,0,0,266.14,98.23Z"/><path class="cls-2" d="M232.57,98.46a3.3,3.3,0,0,0-3,3.62,2.84,2.84,0,0,0,3.24,2.64,2.91,2.91,0,0,0,3-2.92C235.79,99.91,234.17,98.27,232.57,98.46Z"/><path class="cls-2" d="M298.51,98.48c-1.71.12-3.51,1.9-3.41,3.35a3.38,3.38,0,0,0,3.24,2.84,3.14,3.14,0,0,0,3-3C301.31,100,299.86,98.38,298.51,98.48Z"/><path class="cls-2" d="M317.9,98.19A3,3,0,0,0,321,95.4c0-1.91-1.46-3.53-3.07-3.36a3.31,3.31,0,0,0-2.83,3.16A3,3,0,0,0,317.9,98.19Z"/><path class="cls-2" d="M75.22,144a3.06,3.06,0,0,0,3.17-2.74A3.09,3.09,0,0,0,75.75,138a3,3,0,0,0-3.44,2.95A3.19,3.19,0,0,0,75.22,144Z"/><path class="cls-2" d="M281.32,30.54l-.16.11s0,.05,0,.08h0Z"/><path class="cls-2" d="M281,27.39a3,3,0,0,0-3.31-.62c-1.38.43-2,1.66-2,3.77,0,1.68,1.22,2.67,2.67,2a16.88,16.88,0,0,0,2.76-1.89C281.37,29.56,282.09,28.47,281,27.39Z"/><path class="cls-2" d="M281.15,30.72h0l.16-.18Z"/><path class="cls-2" d="M95.19,137.41a3.22,3.22,0,0,0,2.93-3.09,3.1,3.1,0,0,0-3.2-2.75,2.68,2.68,0,0,0-2.84,3A3.07,3.07,0,0,0,95.19,137.41Z"/><path class="cls-2" d="M206.82,117.87a3.07,3.07,0,0,0,2.83-3.09,2.88,2.88,0,0,0-3-2.83,3.24,3.24,0,0,0-2.94,2.45A3.55,3.55,0,0,0,206.82,117.87Z"/><path class="cls-2" d="M56.41,137.56c2.1-.58,2.6-2.07,2.24-4.49a9.07,9.07,0,0,0-5.25-.79,3,3,0,0,0-.26,4.24A2.92,2.92,0,0,0,56.41,137.56Z"/><path class="cls-2" d="M154.5,130.73A2.74,2.74,0,0,0,157,128,2.87,2.87,0,0,0,154.1,125a3.16,3.16,0,0,0-2.79,3.11A2.84,2.84,0,0,0,154.5,130.73Z"/><path class="cls-2" d="M272.41,91.58a3,3,0,0,0,2.71-3.21A2.87,2.87,0,0,0,272,85.62a3.09,3.09,0,0,0-2.75,3.21A3,3,0,0,0,272.41,91.58Z"/><path class="cls-2" d="M180.8,130.78a3,3,0,0,0,2.47-2.83,3.18,3.18,0,0,0-3.16-2.8,3.09,3.09,0,0,0-2.73,2.64A3.06,3.06,0,0,0,180.8,130.78Z"/><path class="cls-2" d="M376.24,65.52a3.07,3.07,0,0,0,3.61-2.8,2.71,2.71,0,0,0-2.39-2.85,2.79,2.79,0,0,0-3.23,2.55C374.07,64,374.94,65.38,376.24,65.52Z"/><path class="cls-2" d="M121.33,137.56a3.08,3.08,0,0,0,3-2.89,3,3,0,0,0-2.86-3,2.91,2.91,0,0,0-3.23,3.13A3,3,0,0,0,121.33,137.56Z"/><path class="cls-2" d="M108.34,137.57a3,3,0,0,0,2.8-3.15A3,3,0,0,0,108,131.6a2.87,2.87,0,0,0-2.83,3.09A3.2,3.2,0,0,0,108.34,137.57Z"/><path class="cls-2" d="M246,117.86a3.07,3.07,0,1,0-.31-6.13,2.77,2.77,0,0,0-2.64,2.62A3.37,3.37,0,0,0,246,117.86Z"/><path class="cls-2" d="M88.49,144.17A3.15,3.15,0,0,0,91.35,141,2.88,2.88,0,0,0,88.51,138,3,3,0,0,0,85.64,141,3.13,3.13,0,0,0,88.49,144.17Z"/><path class="cls-2" d="M147.38,137.34a2.85,2.85,0,1,0,.37-5.68,2.78,2.78,0,0,0-3.16,2.63A2.84,2.84,0,0,0,147.38,137.34Z"/><path class="cls-2" d="M261.9,88.51a2.9,2.9,0,1,0-5.8.06,3,3,0,0,0,3.25,2.65A2.68,2.68,0,0,0,261.9,88.51Z"/><path class="cls-2" d="M396.57,58.81A3,3,0,0,0,399.64,56a3.14,3.14,0,0,0-3.12-2.85c-1.39-.06-2.32,1.07-2.32,2.83A2.62,2.62,0,0,0,396.57,58.81Z"/><path class="cls-2" d="M233.09,78.41a2.93,2.93,0,0,0,.1-5.85,3.17,3.17,0,0,0-3.12,2.91A3,3,0,0,0,233.09,78.41Z"/><path class="cls-2" d="M239.62,97.89A3.12,3.12,0,0,0,242.14,95a2.88,2.88,0,0,0-5.76.12A3.25,3.25,0,0,0,239.62,97.89Z"/><path class="cls-2" d="M213.5,111.19a2.73,2.73,0,0,0,2.65-3.11A2.85,2.85,0,0,0,213,105.4a2.74,2.74,0,0,0-2.65,3.1A2.84,2.84,0,0,0,213.5,111.19Z"/><path class="cls-2" d="M295.52,89a2.58,2.58,0,0,0,2.85,2.39,3.07,3.07,0,0,0,2.68-3.31,2.86,2.86,0,0,0-2.92-2.44A3,3,0,0,0,295.52,89Z"/><path class="cls-2" d="M248.69,101.87a2.83,2.83,0,1,0-5.63-.1,2.44,2.44,0,0,0,2.46,2.73A2.7,2.7,0,0,0,248.69,101.87Z"/><path class="cls-2" d="M186.76,124.11a2.79,2.79,0,0,0,3-2.9,3,3,0,0,0-2.78-2.62,2.9,2.9,0,0,0-2.68,2.69A2.81,2.81,0,0,0,186.76,124.11Z"/><path class="cls-2" d="M68.87,137.53a4.13,4.13,0,0,0,2.23-1c1.06-.84,1.14-2,.59-3.48a7.93,7.93,0,0,0-5.6,0c-.55,1.49-.49,2.69.53,3.55A3.71,3.71,0,0,0,68.87,137.53Z"/><path class="cls-2" d="M167.23,130.73a2.74,2.74,0,0,0,2.75-2.49,3,3,0,0,0-2.51-3.28,2.88,2.88,0,0,0-3,2.78A2.76,2.76,0,0,0,167.23,130.73Z"/><path class="cls-2" d="M226.49,84.83a2.74,2.74,0,0,0,2.79-2.49,3,3,0,0,0-2.88-3,2.87,2.87,0,0,0-2.79,2.57C223.38,83.4,224.69,84.73,226.49,84.83Z"/><path class="cls-2" d="M238.83,58.46a22.69,22.69,0,0,0,3.19.28,17.77,17.77,0,0,0,.3-3.41,2.81,2.81,0,0,0-3.08-2.19,2.61,2.61,0,0,0-2.44,2.28A2.4,2.4,0,0,0,238.83,58.46Z"/><path class="cls-2" d="M246.11,85.51a2.8,2.8,0,1,0-.21,5.58,2.57,2.57,0,0,0,2.79-2.36A2.91,2.91,0,0,0,246.11,85.51Z"/><path class="cls-2" d="M161.08,137.26a2.87,2.87,0,0,0-.59-5.7,2.89,2.89,0,0,0-2.73,3.13A3,3,0,0,0,161.08,137.26Z"/><path class="cls-2" d="M304.78,98a2.78,2.78,0,0,0,2.68-3.13,3,3,0,0,0-2.9-2.41,2.66,2.66,0,0,0-2.44,2.81A3.1,3.1,0,0,0,304.78,98Z"/><path class="cls-2" d="M350.53,78.27c.84.07,1.69,0,2.54,0,1.35-2.17.93-3.5-.46-4.63a2.4,2.4,0,0,0-2.86-.34,3,3,0,0,0-1.35,3.12A2.06,2.06,0,0,0,350.53,78.27Z"/><path class="cls-2" d="M252.8,97.87A2.77,2.77,0,0,0,255.14,95a2.8,2.8,0,0,0-2.49-2.79,3,3,0,0,0-3,2.92A3.12,3.12,0,0,0,252.8,97.87Z"/><path class="cls-2" d="M219.73,91.06a2.54,2.54,0,0,0,2.68-2.57A2.58,2.58,0,0,0,220.17,86a2.62,2.62,0,0,0-2.94,2.3A2.58,2.58,0,0,0,219.73,91.06Z"/><path class="cls-2" d="M193.52,117.38a2.54,2.54,0,0,0,2.58-2.68,2.71,2.71,0,0,0-2.77-2.52,2.74,2.74,0,0,0-2.34,2.44A2.68,2.68,0,0,0,193.52,117.38Z"/><path class="cls-2" d="M173.73,124.13a2.69,2.69,0,0,0,2.58-2.64,2.83,2.83,0,0,0-2.93-2.83,2.8,2.8,0,0,0-2.32,2.89A2.84,2.84,0,0,0,173.73,124.13Z"/><path class="cls-2" d="M383.4,58.18a2.41,2.41,0,0,0,2.61-2.5,2.33,2.33,0,0,0-2.16-2.39,2.58,2.58,0,0,0-2.7,2.5A2.55,2.55,0,0,0,383.4,58.18Z"/><path class="cls-2" d="M311.64,91a2.48,2.48,0,0,0,2.43-2.16,2.82,2.82,0,0,0-2.5-2.78,2.38,2.38,0,0,0-2.35,2.21A2.5,2.5,0,0,0,311.64,91Z"/><path class="cls-2" d="M324.72,91a2.21,2.21,0,0,0,2.12-2.48,2.39,2.39,0,0,0-2.73-2.44A2.31,2.31,0,0,0,322,88.58,2.44,2.44,0,0,0,324.72,91Z"/><path class="cls-2" d="M232.87,64.69a2.51,2.51,0,0,0,2.54-2.62,2.56,2.56,0,0,0-3-2.17,2.39,2.39,0,0,0-2,2.61A2.24,2.24,0,0,0,232.87,64.69Z"/><path class="cls-2" d="M358.42,71.45a2,2,0,0,0,1.92-2,3,3,0,0,0-2.69-2.71,2.17,2.17,0,0,0-2.44,2.09C355.18,70.39,356.32,71.32,358.42,71.45Z"/><path class="cls-2" d="M318.09,84.43a2.61,2.61,0,0,0,2.41-2.31,2.69,2.69,0,0,0-2.71-2.59,2.45,2.45,0,0,0-2,2A2.5,2.5,0,0,0,318.09,84.43Z"/><path class="cls-2" d="M199.51,110.62a2.43,2.43,0,1,0,.69-4.8,2.79,2.79,0,0,0-2.64,2.65A2.55,2.55,0,0,0,199.51,110.62Z"/><path class="cls-2" d="M403.48,51.86A2.47,2.47,0,0,0,405.79,49a1.72,1.72,0,0,0-1.6-1.73c-1.55-.13-3.14.9-3.3,1.95A2.59,2.59,0,0,0,403.48,51.86Z"/><path class="cls-2" d="M213,97.51a2.37,2.37,0,1,0,.15-4.71,2.3,2.3,0,0,0-2.35,2.26A2.46,2.46,0,0,0,213,97.51Z"/><path class="cls-2" d="M271.14,25.05A2.34,2.34,0,0,0,274.71,23c0-.17,0-.38-.07-.5-.46-.67-.81-1.58-1.45-1.91-.82-.42-1.63.19-2.07,1a4.55,4.55,0,0,0-.77,1.85A2.11,2.11,0,0,0,271.14,25.05Z"/><path class="cls-2" d="M7.7,130.68a4.57,4.57,0,0,0,1.72.4,5.59,5.59,0,0,0,1.81-.18c.55-.28,1.26-.77,1.36-1.27a1.79,1.79,0,0,0-1-1.46,10.64,10.64,0,0,0-3.55-.41A1.81,1.81,0,0,0,6.8,129,2.15,2.15,0,0,0,7.7,130.68Z"/><path class="cls-2" d="M141.25,130.56c1.22-.09,2.16-1,2.43-2.63-.23-.28-.58-1.11-1-1.16a9.5,9.5,0,0,0-3.44.27c-.35.1-.75,1.14-.64,1.65A2.46,2.46,0,0,0,141.25,130.56Z"/><path class="cls-2" d="M226.24,71a2.18,2.18,0,0,0,2.39-2.11,2.13,2.13,0,0,0-2.2-2.28,2.25,2.25,0,0,0-2.48,2A2.66,2.66,0,0,0,226.24,71Z"/><path class="cls-2" d="M244.5,51.53a2.61,2.61,0,0,0,4-2.34,1.49,1.49,0,0,0-2-1.57,13,13,0,0,0-2.51,1.72C243.34,49.86,243.71,51.08,244.5,51.53Z"/><path class="cls-2" d="M207,99.31a2.34,2.34,0,0,0-2.54,2.09,2.16,2.16,0,0,0,2.08,2.47,2.11,2.11,0,0,0,2.22-1.74A2.46,2.46,0,0,0,207,99.31Z"/><path class="cls-2" d="M277.73,17.78c1,.42,1.9-.34,2.43-1.32s.44-2.19-.51-2.67c-.55-.28-1.5-.48-1.88-.2-.59.44-.84,1.33-1.32,2.16C276.9,16.52,277.15,17.56,277.73,17.78Z"/><path class="cls-2" d="M338.08,77.52c.92,0,1.79-1.16,1.66-2.71a6.56,6.56,0,0,0-1.95-1.45c-1.09-.33-2.19,1.15-1.94,2.39A2.32,2.32,0,0,0,338.08,77.52Z"/><path class="cls-2" d="M279.16,84.64c.66-.12,1.3-.94,1.66-1.6.11-.2-.67-1.14-1.2-1.37a24.16,24.16,0,0,0-3.32-1C275.9,83.67,276.92,85.05,279.16,84.64Z"/><path class="cls-2" d="M331.19,84a8.34,8.34,0,0,0,2.11-1.41,2.56,2.56,0,0,0-2.44-2.65,2,2,0,0,0-1.68,2.22C329.29,83.29,330.25,84.31,331.19,84Z"/><path class="cls-2" d="M364.38,64.68c.8-.26,1.37-1.26,1.78-1.66.06-1.85-.91-2.81-2.25-2.78a2.08,2.08,0,0,0-2.11,1.87C361.74,63.55,363.11,65.09,364.38,64.68Z"/><path class="cls-2" d="M213.1,84a1.81,1.81,0,0,0,2-1.86,2.35,2.35,0,0,0-2.06-2.55,2.29,2.29,0,0,0-2.14,1.93A2.38,2.38,0,0,0,213.1,84Z"/><path class="cls-2" d="M219.33,77.35a2,2,0,0,0,2.4-1.37,2.64,2.64,0,0,0-2.36-2.8,2.11,2.11,0,0,0-1.89,2A2.14,2.14,0,0,0,219.33,77.35Z"/><path class="cls-2" d="M344.28,71a2.2,2.2,0,0,0,2.18-2.39,2,2,0,0,0-2.18-1.71c-1.45.08-2.48,1.1-2.22,2.28A2.2,2.2,0,0,0,344.28,71Z"/><path class="cls-2" d="M306.55,83.43a2.1,2.1,0,0,0,.43-1.8,1.8,1.8,0,0,0-1.61-.75,16.76,16.76,0,0,0-3.16,1.57C304.76,84.53,305.46,84.67,306.55,83.43Z"/><path class="cls-2" d="M206.69,90.6A2.21,2.21,0,0,0,208.52,88a2.17,2.17,0,0,0-2.3-1.6,2,2,0,0,0-1.85,2A2.18,2.18,0,0,0,206.69,90.6Z"/><path class="cls-2" d="M199.74,97.13a2.36,2.36,0,0,0,2.37-2.52c-.36-.36-.84-1.16-1.51-1.4-.94-.33-2.18,1-2.33,2.18A1.67,1.67,0,0,0,199.74,97.13Z"/><path class="cls-2" d="M267.18,31.66a5.85,5.85,0,0,0,.68-2.77,1.5,1.5,0,0,0-1.14-.51,3.27,3.27,0,0,0-2.15,3.18C265.41,32.34,266.5,32.51,267.18,31.66Z"/><path class="cls-2" d="M127.15,130.54a2.63,2.63,0,0,0,1.93-.4,9.6,9.6,0,0,0,1.54-2.3,20.2,20.2,0,0,0-3.48-.21,2,2,0,0,0-1.41,1.14A1.5,1.5,0,0,0,127.15,130.54Z"/><path class="cls-2" d="M182.21,114c-1.79-.47-3,.3-4.06,2.19C181.65,117.73,182.29,117.33,182.21,114Z"/><path class="cls-2" d="M162.69,121.68c-2.16-.19-2.16-.19-3.66,1.18C161.2,124.82,161.69,124.66,162.69,121.68Z"/><path class="cls-2" d="M252.55,45.15c1.7,0,2.31-1.1,1.58-3.39a17.56,17.56,0,0,0-2.35,1.83C251.33,44.08,251.94,45.14,252.55,45.15Z"/><path class="cls-2" d="M293.48,84a1,1,0,0,0,0-.92c-.77-1.41-1.91-1-3-.47-.26.12-.41.47-.61.72.14.29.2.69.43.84C291.42,84.87,292.52,85,293.48,84Z"/><path class="cls-2" d="M279.47,5.73c.59-.71,1.26-1.45,1.81-2.26.11-.15-.22-.86-.35-.86a4,4,0,0,0-1.88.29,1.61,1.61,0,0,0-.69,2.23C278.47,5.36,278.91,5.44,279.47,5.73Z"/><path class="cls-2" d="M25.5,130.19c-2.29-.62-3.68-1.68-5.58,0C21.76,131.32,23.17,131.28,25.5,130.19Z"/><path class="cls-2" d="M116.74,129.11a2.58,2.58,0,0,0-3.52.87C115.48,130.76,115.48,130.76,116.74,129.11Z"/><path class="cls-2" d="M372.05,56.29A1.63,1.63,0,0,0,370.7,56,7.76,7.76,0,0,0,369,57.23c.89.37,1.33.71,1.74.68C371.76,57.83,372.58,56.73,372.05,56.29Z"/><path class="cls-2" d="M193.64,103.34c.9.32,1.94-.88,1.63-1.93-.06-.23-.63-.56-.72-.5-.6.44-1.14,1-1.68,1.44C193.26,102.88,193.4,103.26,193.64,103.34Z"/><path class="cls-2" d="M324.3,77.63a11.38,11.38,0,0,0,2.35-1c-.8-.55-1.28-1.1-1.52-1a9.21,9.21,0,0,0-1.89,1.19C323.59,77.09,324,77.68,324.3,77.63Z"/><path class="cls-2" d="M260.19,38a8.39,8.39,0,0,0,.87-.92s-.31-.36-.61-.69c-.23.5-.44.87-.58,1.27C259.85,37.73,260.08,37.88,260.19,38Z"/><path class="cls-2" d="M422.48,45.43a4.36,4.36,0,0,0,.84-.28c-.11-.12-.24-.34-.32-.33a5.73,5.73,0,0,0-.88.3C422.25,45.24,422.38,45.45,422.48,45.43Z"/><path class="cls-2" d="M351.68,64.15c-.11-.13-.24-.38-.33-.36a4.28,4.28,0,0,0-.89.26l.3.41Z"/></svg>