<svg id="illu-gratuit" xmlns="http://www.w3.org/2000/svg" viewBox="0 0 368 357"><defs><style>.cls-1{fill:none;}.cls-2{fill:#272d7e;}</style></defs><path class="cls-1" d="M340.24,107.93a20.17,20.17,0,0,0-2.88.27c-1.3,1.74-1,3.33-.65,4.91a1.56,1.56,0,0,0,.59.85,4.15,4.15,0,0,0,4.09.21c1.25-.55,1.93-2.45,1.6-4.21C342.76,108.72,341.88,108,340.24,107.93Z"/><path class="cls-1" d="M346.73,129.22a2.43,2.43,0,0,0-2.75,2,2.69,2.69,0,0,0,2.29,3.09,2.81,2.81,0,0,0,2.85-2.64A2.54,2.54,0,0,0,346.73,129.22Z"/><path class="cls-1" d="M340,122.08a2.67,2.67,0,0,0-3,2.39,3,3,0,0,0,2.54,3A2.56,2.56,0,0,0,342.4,125,2.69,2.69,0,0,0,340,122.08Z"/><path class="cls-1" d="M353.16,122.25a2.71,2.71,0,0,0-2.45,2.35,2.47,2.47,0,0,0,2.53,2.74,2.44,2.44,0,0,0,2.49-2.22A2.92,2.92,0,0,0,353.16,122.25Z"/><path class="cls-1" d="M353,108a3.57,3.57,0,0,0-2.95,3.87,3.11,3.11,0,0,0,3.2,2.35,3.15,3.15,0,0,0,3-3.2A3.35,3.35,0,0,0,353,108Z"/><path class="cls-1" d="M346.4,115a3,3,0,0,0-2.87,3.13,3.07,3.07,0,0,0,3.31,2.72,2.93,2.93,0,0,0-.44-5.85Z"/><path class="cls-1" d="M359.75,115.45a2.78,2.78,0,0,0-2.33,2.53,3,3,0,0,0,2.88,2.6,2.59,2.59,0,0,0,2.25-2.55A2.7,2.7,0,0,0,359.75,115.45Z"/><path class="cls-1" d="M332.3,114.66c-1.75,0-2.83,1.24-2.8,3.15a3.44,3.44,0,0,0,3.32,3.47,3.67,3.67,0,0,0,3.48-3.36C336.44,116.07,334.68,114.63,332.3,114.66Z"/><path class="cls-1" d="M319.27,128.77a2.86,2.86,0,0,0-2.64,2.87,2.81,2.81,0,0,0,2.89,2.61,2.77,2.77,0,0,0,2.66-2.82A3,3,0,0,0,319.27,128.77Z"/><path class="cls-1" d="M313.76,121.77a36.55,36.55,0,0,0-4.45,0,29.82,29.82,0,0,0,.43,4.54c.31,1.2,2.29,2,3.53,1.67a3.65,3.65,0,0,0,2.67-3.52A2.87,2.87,0,0,0,313.76,121.77Z"/><path class="cls-1" d="M204,135.17a2.83,2.83,0,0,0-2.71,2.74,3.61,3.61,0,0,0,3,3.23,3.12,3.12,0,0,0,3.05-3A3.87,3.87,0,0,0,204,135.17Z"/><path class="cls-1" d="M332.67,129a2.73,2.73,0,0,0-2.26,2.61,2.51,2.51,0,0,0,2.84,2.5,2.47,2.47,0,0,0,2.31-2.48A3,3,0,0,0,332.67,129Z"/><path class="cls-1" d="M325.92,135.91a2.51,2.51,0,0,0-2.28,2.54A2.62,2.62,0,0,0,326,141a2.55,2.55,0,1,0,0-5.06Z"/><path class="cls-1" d="M312.62,135.85a2.54,2.54,0,1,0,.48,5,2.55,2.55,0,0,0-.48-5Z"/><path class="cls-1" d="M285,135.22a3,3,0,0,0-2.39,3.07,3.11,3.11,0,0,0,3.24,2.8,2.88,2.88,0,0,0,2.32-3.07A3,3,0,0,0,285,135.22Z"/><path class="cls-1" d="M231.13,149.21a2.59,2.59,0,0,0,.56,5.14,2.65,2.65,0,0,0,2.22-2.59A2.62,2.62,0,0,0,231.13,149.21Z"/><path class="cls-1" d="M231,135a3,3,0,0,0-2.8,3.3,3.06,3.06,0,0,0,3,3.18,3.28,3.28,0,0,0,3.47-3.3A3.42,3.42,0,0,0,231,135Z"/><path class="cls-1" d="M224.52,128.32a17.62,17.62,0,0,0-2.26.2,4.45,4.45,0,0,0-.92,4.48,2.84,2.84,0,0,0,2.94,1.94c1.28,0,2.56,0,3.24-1.41C228.85,130.83,227.49,128.45,224.52,128.32Z"/><path class="cls-1" d="M238.11,156.59a2.05,2.05,0,0,0-2.17,2.43,2.16,2.16,0,0,0,2.22,1.9c1.33-.06,2.3-1.19,2.14-3C239.74,157.53,239,156.71,238.11,156.59Z"/><path class="cls-1" d="M244.93,149.27a2.84,2.84,0,0,0-2.49,2.87,2.48,2.48,0,1,0,2.49-2.87Z"/><path class="cls-1" d="M224.88,142.28a2.85,2.85,0,0,0-3.15,2.79,3,3,0,0,0,2.66,2.79A2.88,2.88,0,0,0,227.5,145,2.73,2.73,0,0,0,224.88,142.28Z"/><path class="cls-1" d="M305.8,128.42a2.93,2.93,0,0,0-2.88,3.1,2.9,2.9,0,0,0,3.1,2.83,2.84,2.84,0,0,0,2.64-2.76A3.07,3.07,0,0,0,305.8,128.42Z"/><path class="cls-1" d="M217.71,135.18a3.13,3.13,0,0,0-2.91,3.14,3.28,3.28,0,0,0,3.15,3,3.18,3.18,0,0,0,2.91-3.18A3.23,3.23,0,0,0,217.71,135.18Z"/><path class="cls-1" d="M210.88,142.49a2.63,2.63,0,0,0-2.46,2.8,2.77,2.77,0,0,0,3,2.37,2.94,2.94,0,0,0,2.3-2.53A3,3,0,0,0,210.88,142.49Z"/><path class="cls-1" d="M210.92,156.7c-1-.26-1.91,1-1.8,2.13a2,2,0,0,0,2.11,2c1.1-.07,1.94-1.07,1.8-2.71A7.28,7.28,0,0,0,210.92,156.7Z"/><path class="cls-1" d="M224.62,156.62a6.76,6.76,0,0,0-2.2,1.33,2.54,2.54,0,0,0,1.57,2.9,2.27,2.27,0,0,0,2.79-1.81C227,157.8,225.86,156.37,224.62,156.62Z"/><path class="cls-1" d="M218.53,163.32c-1.78-.07-2.89.91-3,2.16a2.11,2.11,0,0,0,2,2.05,2,2,0,0,0,2.36-2.14C219.72,164.56,218.89,163.84,218.53,163.32Z"/><path class="cls-1" d="M244.94,135.1a3.16,3.16,0,0,0-3.21,2.93,3.76,3.76,0,0,0,3,3.35A2.94,2.94,0,0,0,248,138.7,3.17,3.17,0,0,0,244.94,135.1Z"/><path class="cls-1" d="M218.1,149.48a2.45,2.45,0,0,0-2.66,2,2.55,2.55,0,0,0,2.38,2.88,2.44,2.44,0,0,0,2.43-2.26A2.61,2.61,0,0,0,218.1,149.48Z"/><path class="cls-1" d="M237.93,142a3.07,3.07,0,0,0-2.94,2.61,2.79,2.79,0,0,0,2.25,3.14,3.11,3.11,0,0,0,3.59-2.47A3.26,3.26,0,0,0,237.93,142Z"/><path class="cls-1" d="M252.23,141.94a3.22,3.22,0,0,0-3.57,3.14,2.78,2.78,0,0,0,2.65,2.8,3,3,0,0,0,.92-5.94Z"/><path class="cls-1" d="M292.93,128.39a3.19,3.19,0,1,0-.81,6.29,3.68,3.68,0,0,0,3.42-3.47A2.74,2.74,0,0,0,292.93,128.39Z"/><path class="cls-1" d="M298.67,135.78a2.6,2.6,0,0,0-2.13,3.08,2.93,2.93,0,0,0,2.64,2.13,2.63,2.63,0,0,0,2.41-2.89A2.56,2.56,0,0,0,298.67,135.78Z"/><path class="cls-1" d="M278.36,142.56a2.55,2.55,0,0,0-2.17,3.05,2.59,2.59,0,0,0,2.6,2.14,2.9,2.9,0,0,0,2.53-2.88A2.64,2.64,0,0,0,278.36,142.56Z"/><path class="cls-1" d="M305.94,142.55a2.81,2.81,0,0,0-2.76,2.7,2.9,2.9,0,0,0,2.88,2.61,2.53,2.53,0,0,0,2.41-2.4A2.8,2.8,0,0,0,305.94,142.55Z"/><path class="cls-1" d="M291.88,142.64a2.42,2.42,0,0,0-2.16,2.58,2.73,2.73,0,0,0,2.9,2.52,2.31,2.31,0,0,0,2.13-2.58A2.64,2.64,0,0,0,291.88,142.64Z"/><path class="cls-1" d="M258,149.43a2.41,2.41,0,0,0-2,2.72,2.34,2.34,0,0,0,2.5,2.23,2.46,2.46,0,0,0,2.24-3A2.51,2.51,0,0,0,258,149.43Z"/><path class="cls-1" d="M251.55,128.35a14,14,0,0,0-2,.34,11,11,0,0,0-.82,1.45,4.1,4.1,0,0,0-.3,1.54,3.07,3.07,0,0,0,3.36,3.26,3,3,0,0,0,3.26-3.3,14.89,14.89,0,0,0-.68-3.12C253.29,128.45,252.42,128.32,251.55,128.35Z"/><path class="cls-1" d="M258.72,135a3.1,3.1,0,0,0-3.54,3.15,3,3,0,0,0,2.67,3.4,3.54,3.54,0,0,0,3.91-3.49A3,3,0,0,0,258.72,135Z"/><path class="cls-1" d="M264.79,142.24a2.78,2.78,0,0,0-2.43,3,3,3,0,0,0,3,2.54,3.1,3.1,0,0,0,2.66-3.39A2.74,2.74,0,0,0,264.79,142.24Z"/><path class="cls-1" d="M272.23,135c-2.35,0-3.58,1-3.64,2.92a3.09,3.09,0,0,0,3.17,3.46,3.3,3.3,0,0,0,3.36-3.36A2.65,2.65,0,0,0,272.23,135Z"/><path class="cls-1" d="M272.2,149.41a2.52,2.52,0,0,0-.44,5,2.65,2.65,0,0,0,2.78-2.54A2.69,2.69,0,0,0,272.2,149.41Z"/><path class="cls-1" d="M325.87,121.75a2.66,2.66,0,0,0-2.85,2.59,3.1,3.1,0,0,0,2.91,3.23,3.18,3.18,0,0,0,3.19-3C329.16,123,327.74,121.78,325.87,121.75Z"/><path class="cls-1" d="M359.8,101.3a3.18,3.18,0,0,0-3,3.18,3.33,3.33,0,0,0,3.21,3.06,3,3,0,0,0,2.92-3.22A3,3,0,0,0,359.8,101.3Z"/><path class="cls-1" d="M108.21,312.92a2,2,0,0,0-1,1.56c0,1.54,1,2,2.73,2a11.09,11.09,0,0,0-.08-2.89A1.81,1.81,0,0,0,108.21,312.92Z"/><path class="cls-1" d="M109.66,261.6a6.58,6.58,0,0,0,1.71-1.47c-.44-1.37-1.14-1.77-2.16-1.68a2.07,2.07,0,0,0-1.89,1.65C107.09,261,108.62,262,109.66,261.6Z"/><path class="cls-1" d="M109.36,299.45l-1,1.81a4.51,4.51,0,0,0,1.41.63c.78.05,1.5-.88,1.12-1.4S110.09,299.92,109.36,299.45Z"/><path class="cls-1" d="M109.72,248.85c.41-.39,1.21-.83,1.52-1.5.43-.91-.69-2.33-1.67-2.24a1.7,1.7,0,0,0-1.68,1.73C107.84,247.87,108.25,248.55,109.72,248.85Z"/><path class="cls-1" d="M109.85,285.56c-1-.35-2,.68-2,1.91a1.77,1.77,0,0,0,1.49,1.92c1,.17,2-.82,2-2.48C111,286.58,110.54,285.79,109.85,285.56Z"/><path class="cls-1" d="M109.72,230.81a2.49,2.49,0,0,0-2.64,2.67,2.17,2.17,0,0,0,2,2.14,2.71,2.71,0,0,0,2.71-2.71A2.22,2.22,0,0,0,109.72,230.81Z"/><path class="cls-1" d="M108.44,273.91c.3.51.85,1.19,1.32,1.21s.9-.76,1.77-1.59c-1.1-.37-1.68-.74-2.21-.68C109,272.89,108.35,273.75,108.44,273.91Z"/><path class="cls-1" d="M103,265.9a1.42,1.42,0,0,0-1.87,1.32c.11.62.68,1.65,1,1.64a7.79,7.79,0,0,0,2.46-1.16C103.85,266.84,103.52,266.18,103,265.9Z"/><path class="cls-1" d="M102.9,237.86a2.27,2.27,0,0,0-2.54,2.19,2,2,0,0,0,1.73,2.31,2.49,2.49,0,0,0,2.87-2.48A2,2,0,0,0,102.9,237.86Z"/><path class="cls-1" d="M115.77,305.84a3.1,3.1,0,0,0-1.48,1.93c-.24,1.19,1.32,2.57,2.39,2.11.82-.35,1.39-1.3,1.86-1.77C118.34,306.43,116.87,305.32,115.77,305.84Z"/><path class="cls-1" d="M101,279.53a1.63,1.63,0,0,0,.22,2.4,18,18,0,0,0,2.83,1.33c.86-3.08.76-3.61-.68-4.32A1.75,1.75,0,0,0,101,279.53Z"/><path class="cls-1" d="M102.8,252a1.48,1.48,0,0,0-1.57,1.67c.09.68.84,1.28,1.56,2.29.83-.87,1.6-1.35,1.82-2C105,252.93,104,252,102.8,252Z"/><path class="cls-1" d="M102.24,318.65a2.63,2.63,0,0,0-2.89,2.51,2.85,2.85,0,0,0,3.12,3.41,2.79,2.79,0,0,0,2.72-2.77A3,3,0,0,0,102.24,318.65Z"/><path class="cls-1" d="M102.74,310a2.28,2.28,0,0,0,2.11-2.51,2.37,2.37,0,0,0-2.64-2,2.49,2.49,0,0,0-1.9,2.27A2.38,2.38,0,0,0,102.74,310Z"/><path class="cls-1" d="M101,293.5a1.71,1.71,0,0,0,1.28,2.77,17.07,17.07,0,0,0,3-.13c-.27-3.31-.31-3.3-1.92-5.29A35,35,0,0,0,101,293.5Z"/><path class="cls-1" d="M116.2,332.21a3,3,0,0,0-2.91,2.62,2.68,2.68,0,0,0,2.65,2.77,2.94,2.94,0,0,0,2.94-2.58A2.86,2.86,0,0,0,116.2,332.21Z"/><path class="cls-1" d="M114.82,320.77c-.32,1,.63,2.14,2.11,2.25a5.84,5.84,0,0,0,1.42-1.52c.39-.85-.66-2.1-1.66-2.21S115.1,319.94,114.82,320.77Z"/><path class="cls-1" d="M123.23,271.78c-1.15-.39-2.38,1-2.32,2.31,0,1.08,1.13,2.15,2.17,1.81a12.25,12.25,0,0,0,2.75-2C124.72,273,124.08,272.07,123.23,271.78Z"/><path class="cls-1" d="M120.92,287.61a2.13,2.13,0,0,0,2,2.06,2.42,2.42,0,0,0,2.6-2,2.14,2.14,0,0,0-2.3-2.26A2.07,2.07,0,0,0,120.92,287.61Z"/><path class="cls-1" d="M121,231.61l1.29,3.27c2.31-1.57,2.31-1.57,1.95-4.63Z"/><path class="cls-1" d="M121.17,259.44a2.33,2.33,0,0,0,1.54,2.47c.87.45,1.52-.59,1.88-2.92C122.35,258.23,121.32,258.36,121.17,259.44Z"/><path class="cls-1" d="M123,245.38c-.94-.1-1.86,1-1.51,1.72.26.55,1.09,1.33,1.44,1.23.67-.19,1.18-.94,2.16-1.81C124.11,246,123.59,245.45,123,245.38Z"/><path class="cls-1" d="M116.2,255.27c1,0,1.77-.65,1.62-1.59-.11-.68-.89-1.25-1.63-2.2-.73,1-1.49,1.52-1.6,2.19A1.46,1.46,0,0,0,116.2,255.27Z"/><path class="cls-1" d="M115.91,228.94a2.47,2.47,0,0,0,2.58-2.11,2.77,2.77,0,0,0-2.17-2.64,2.67,2.67,0,0,0-2.59,2.17A2.62,2.62,0,0,0,115.91,228.94Z"/><path class="cls-1" d="M117.86,240a1.76,1.76,0,0,0-1.87-1.54,1.44,1.44,0,0,0-1.29,1.92,7.39,7.39,0,0,0,1.37,1.66A1.81,1.81,0,0,0,117.86,240Z"/><path class="cls-1" d="M115.79,292.13a2.28,2.28,0,0,0-1.74,2.31,2,2,0,0,0,2.64,1.8,7.26,7.26,0,0,0,1.86-1.73C118.31,292.72,117.11,291.88,115.79,292.13Z"/><path class="cls-1" d="M116.19,282.8c.88.06,2.38-1.26,2.08-2.09a12.59,12.59,0,0,0-2-2.73,12.79,12.79,0,0,0-2.1,2.67C113.83,281.4,115.3,282.73,116.19,282.8Z"/><path class="cls-1" d="M116.13,264.89c-.68,1-1.37,1.65-1.48,2.36a1.45,1.45,0,0,0,1.65,1.6c.89-.05,1.78-.69,1.51-1.72C117.63,266.43,116.9,265.87,116.13,264.89Z"/><path class="cls-1" d="M90.25,267.1c.06-.25-.66-1-.91-.92a5.24,5.24,0,0,0-1.51.92L89.06,269C89.64,268.09,90.13,267.64,90.25,267.1Z"/><path class="cls-1" d="M68.18,258.09a2.16,2.16,0,0,0-1.63,2.34c.22,1.56,1.58,2.72,2.93,2.2.8-.31,1.32-1.32,1.73-1.76A2.77,2.77,0,0,0,68.18,258.09Z"/><path class="cls-1" d="M67.27,271.29c-.4.46-1.34,1.08-1.58,1.91-.39,1.31,1,2.67,2.53,2.79a2.35,2.35,0,0,0,2.48-2.2C70.64,272.29,69.5,271.31,67.27,271.29Z"/><path class="cls-1" d="M76.16,265.2c-1.64-.14-2.71.76-2.72,1.8a2.27,2.27,0,0,0,2,2.17c1.09.15,2.35-.8,2.1-1.84A7.17,7.17,0,0,0,76.16,265.2Z"/><path class="cls-1" d="M80,273.05a21.91,21.91,0,0,0-.27,2.45c1.09.09,2.16.44,3,.13a2.62,2.62,0,0,0,1.2-2c0-1.16-.94-1.85-2.09-2S80.23,272.13,80,273.05Z"/><path class="cls-1" d="M81,285.38c-1.29.17-1.83,1.1-1.63,2.81.14,1.23,1,2.19,1.92,2.16a3,3,0,0,0,3-3.05C84.12,285.93,82.79,285.14,81,285.38Z"/><path class="cls-1" d="M75.46,251.17a2.18,2.18,0,0,0-2.28,2.27c.15,1.47,1.4,2.8,2.76,2.53.83-.16,1.5-1.06,2-1.44C77.93,252.48,76.93,251.32,75.46,251.17Z"/><path class="cls-1" d="M61.74,305.41a2.65,2.65,0,0,0-2.52,2.31,2.74,2.74,0,0,0,2.37,2.49,2.5,2.5,0,0,0,2.51-2.27A2.88,2.88,0,0,0,61.74,305.41Z"/><path class="cls-1" d="M84.08,260c-.26-.31-.6-1-1.14-1.24a1.7,1.7,0,0,0-2.29,1.55,2.13,2.13,0,0,0,1,1.57C82.74,262.3,83.86,261.48,84.08,260Z"/><path class="cls-1" d="M15.5,298.89a2.22,2.22,0,0,0-2.87.54,2.34,2.34,0,0,0,.53,3.33c.67.63,2.19.5,1.88,2a18,18,0,0,0,1.7-2.65A2.76,2.76,0,0,0,15.5,298.89Z"/><path class="cls-1" d="M22,291.8a2.07,2.07,0,0,0-2.45-.09,2.18,2.18,0,0,0-.81,2.79,3,3,0,0,0,2.86,2c.64,0,1.28-.09,1.92-.15C23.56,294.64,23.82,292.9,22,291.8Z"/><path class="cls-1" d="M61.36,319.15a2.1,2.1,0,0,0-2.21,2.31,2.07,2.07,0,0,0,2.35,2.18,2.25,2.25,0,1,0-.14-4.49Z"/><path class="cls-1" d="M58.17,283.34l-.05.06Z"/><path class="cls-1" d="M61.51,296.53A2.35,2.35,0,0,0,64,294.27,2.28,2.28,0,0,0,61.58,292a2.34,2.34,0,0,0-2.45,2.26A2.27,2.27,0,0,0,61.51,296.53Z"/><path class="cls-1" d="M62,265a1.64,1.64,0,0,0-2,1.35,3.67,3.67,0,0,0,.35,2.46c.88,1.3,2.28,1.54,4.1.95a12.42,12.42,0,0,0-.36-3.45A3.2,3.2,0,0,0,62,265Z"/><path class="cls-1" d="M95.93,311.83a3.1,3.1,0,0,0-3.08,3,3,3,0,0,0,2.72,2.75,2.61,2.61,0,0,0,2.93-2.34A2.93,2.93,0,0,0,95.93,311.83Z"/><path class="cls-1" d="M98.17,246.23c-.18-.84-1.17-1.49-1.56-1.95-2-.18-3.26.84-3.43,2.36A2.21,2.21,0,0,0,95,248.88C96.65,249.1,98.49,247.72,98.17,246.23Z"/><path class="cls-1" d="M97.82,274.05c-.21-.7-.93-1.25-1.7-2.2-.77.79-1.56,1.25-1.77,1.9-.3.94.46,1.61,1.32,1.92S98.07,274.89,97.82,274.05Z"/><path class="cls-1" d="M96,285.5a1.68,1.68,0,0,0-1.91,1.43c-.22,1,.67,2.61,1.47,2.47a7.06,7.06,0,0,0,2.24-1.24A2.26,2.26,0,0,0,96,285.5Z"/><path class="cls-1" d="M82.44,244.29c-1.55,0-2.47.76-2.57,2.11a2.48,2.48,0,0,0,2.52,2.78,2.73,2.73,0,0,0,2.36-2.52A2.26,2.26,0,0,0,82.44,244.29Z"/><path class="cls-1" d="M104.77,227.48a3,3,0,0,0-.16-3.54,2.51,2.51,0,0,0-2.94-.66c-.67.2-1.32.48-2.06.75-.1,1.14-.2,2.2-.33,3.72a16.84,16.84,0,0,0,2.27,1A2.62,2.62,0,0,0,104.77,227.48Z"/><path class="cls-1" d="M95.68,303.44a2.69,2.69,0,0,0,2.53-2.3,2.48,2.48,0,0,0-2.31-2.45A2.6,2.6,0,0,0,93.38,301,2.57,2.57,0,0,0,95.68,303.44Z"/><path class="cls-1" d="M95.55,262c.92.26,2.47-.88,2.2-1.65s-1-1.23-1.76-2.18c-.75.81-1.49,1.29-1.73,2C93.91,261.08,94.68,261.72,95.55,262Z"/><path class="cls-1" d="M87.57,281.09c.16.52,1,1.28,1.39,1.19a8.25,8.25,0,0,0,2.22-1.62c-.8-.66-1.25-1.27-1.82-1.43A1.45,1.45,0,0,0,87.57,281.09Z"/><path class="cls-1" d="M122.45,221.9a2.46,2.46,0,0,0,2.86-1.76,2.7,2.7,0,0,0-2.25-3.09,2.35,2.35,0,0,0-2.51,1.53A2.73,2.73,0,0,0,122.45,221.9Z"/><path class="cls-1" d="M89,292a2.5,2.5,0,0,0-2.36,2.37A2.34,2.34,0,0,0,89,296.61a2.27,2.27,0,0,0,2.34-2.28A2.54,2.54,0,0,0,89,292Z"/><path class="cls-1" d="M95.38,235.66a2.69,2.69,0,0,0,2.91-2.55,2.36,2.36,0,0,0-2.23-3c-1.78-.18-3,.59-3.24,2.09A2.94,2.94,0,0,0,95.38,235.66Z"/><path class="cls-1" d="M88.68,236.91a2.6,2.6,0,0,0-2.61,2.76,2.7,2.7,0,0,0,2.73,2.7,3,3,0,0,0,2.73-2.75A3.14,3.14,0,0,0,88.68,236.91Z"/><path class="cls-1" d="M88.63,251.16a2.2,2.2,0,0,0-1.8,2.26,2,2,0,0,0,2.49,2c.8-.26,1.39-1.19,1.85-1.62C91,252,89.77,250.89,88.63,251.16Z"/><path class="cls-1" d="M211.4,134.69a3.44,3.44,0,0,0,2.85-3.36,2.76,2.76,0,0,0-3-3,30.54,30.54,0,0,0-3.57.22,26.74,26.74,0,0,0,.16,3.59A3.19,3.19,0,0,0,211.4,134.69Z"/><path class="cls-1" d="M234.8,132c.17,2,1.12,2.86,3,2.93,2.19.08,3.35-.82,3.56-2.94a35,35,0,0,0,0-3.55h-.14a.53.53,0,0,0,0-.13h-6.36a.62.62,0,0,0,0,.13h-.14C234.77,129.63,234.7,130.83,234.8,132Z"/><path class="cls-1" d="M255.48,122a8.2,8.2,0,0,0,.26,5.64c3.2.74,3.2.68,5.79-.42l.62-5.06A9.9,9.9,0,0,0,255.48,122Z"/><path class="cls-1" d="M263.78,128.45a2.27,2.27,0,0,0-1.57,1.18c-1.34,3,.15,5.3,3.43,5.28a9.11,9.11,0,0,0,2.31-.62,11.43,11.43,0,0,0,.41-5.83A41.17,41.17,0,0,0,263.78,128.45Z"/><path class="cls-1" d="M163.44,230.79a3.24,3.24,0,0,0-3.08,3c0,1.16,1.43,2,3.21,2a2.42,2.42,0,0,0,2.43-2.26A2.68,2.68,0,0,0,163.44,230.79Z"/><path class="cls-1" d="M150.41,276.88a3.12,3.12,0,0,0,2-1.44,2.91,2.91,0,0,0-.56-3.47,2.71,2.71,0,0,0-3.36-.92c-.63.31-1.25.65-1.72.9l-1,4.71A30,30,0,0,0,150.41,276.88Z"/><path class="cls-1" d="M157.84,251.5a31.89,31.89,0,0,0-4.29-.94,16.54,16.54,0,0,0,.2,3.35c.7,2.18,2.17,2.68,4.19,1.41a3,3,0,0,0,1.12-1.66A1.83,1.83,0,0,0,157.84,251.5Z"/><path class="cls-1" d="M343.67,107.14c5.31,1.18,6.1.64,6.08-4.11a6.09,6.09,0,0,0-.55-1.6c-2.1-.23-4.12-.53-6.14.17C343.32,103.46,342.73,105.45,343.67,107.14Z"/><path class="cls-1" d="M366.59,122.29a2.84,2.84,0,0,0-2.25,3.08,2.45,2.45,0,0,0,2.69,2,2.17,2.17,0,0,0,.68-.15v-4.71A2.08,2.08,0,0,0,366.59,122.29Z"/><path class="cls-1" d="M369.2,124.37a2.61,2.61,0,0,0-1.49-1.89v4.71A2.4,2.4,0,0,0,369.2,124.37Z"/><path class="cls-1" d="M169.72,209.79a2.85,2.85,0,0,0-2.45,3,3.67,3.67,0,0,0,3.09,3.11c1.36,0,2.84-1.83,2.7-3.39A3.05,3.05,0,0,0,169.72,209.79Z"/><path class="cls-1" d="M369.23,111.24a2.28,2.28,0,0,0-1.52-2.3v4.66A2.7,2.7,0,0,0,369.23,111.24Z"/><path class="cls-1" d="M364.1,111.28a2.89,2.89,0,0,0,2.37,2.54,2.31,2.31,0,0,0,1.24-.22v-4.66a3.34,3.34,0,0,0-.74-.17A2.77,2.77,0,0,0,364.1,111.28Z"/><path class="cls-1" d="M365.86,94.56c-1.69.16-2.55,1.5-2.26,3.56a3.28,3.28,0,0,0,3.42,2.75,3.48,3.48,0,0,0,.69-.17v-6A4.86,4.86,0,0,0,365.86,94.56Z"/><path class="cls-1" d="M123.34,298.63a2.32,2.32,0,0,0-2.49,2.25c-.1,1.58,1.45,2.82,3.29,2.65,1.08-.1,2-1.49,1.87-2.85A2.45,2.45,0,0,0,123.34,298.63Z"/><path class="cls-1" d="M190.23,163.48a2,2,0,0,0-1.9,2.11,1.9,1.9,0,0,0,1.92,2,2,2,0,0,0,2.25-1.72A2.39,2.39,0,0,0,190.23,163.48Z"/><path class="cls-1" d="M197.32,160.78a2,2,0,0,0,2.12-1.87,2.07,2.07,0,0,0-1.77-2.21,2.06,2.06,0,0,0-.35,4.08Z"/><path class="cls-1" d="M190.86,176.87A2.25,2.25,0,1,0,192.7,179,1.9,1.9,0,0,0,190.86,176.87Z"/><path class="cls-1" d="M199.79,144.92a3.07,3.07,0,0,0-3-2.46,2.18,2.18,0,0,0-2.17,2.41,2.79,2.79,0,0,0,2.86,2.5A2.51,2.51,0,0,0,199.79,144.92Z"/><path class="cls-1" d="M195.68,172.4c.17,1.07,1.24,2.11,2.14,1.75s1.41-1.16,2.47-2.1c-1.23-.77-2-1.52-2.84-1.69C196.42,170.14,195.51,171.37,195.68,172.4Z"/><path class="cls-1" d="M204.06,162.72a12.91,12.91,0,0,0-1.79,2.9c-.28,1.09.89,2,2,1.83s2.32-1.27,2-2.1A13,13,0,0,0,204.06,162.72Z"/><path class="cls-1" d="M176.92,189.44c-1.41-.12-2.93,1.46-3,3.09a3,3,0,0,0,2.89,3.13,3.21,3.21,0,0,0,3-3.06A3.17,3.17,0,0,0,176.92,189.44Z"/><path class="cls-1" d="M176.85,203.48a2.52,2.52,0,0,0,.4,5,2.39,2.39,0,0,0,2.39-2.36A2.76,2.76,0,0,0,176.85,203.48Z"/><path class="cls-1" d="M190.58,154.12a2.16,2.16,0,0,0,2.09-2,2.4,2.4,0,0,0-2.1-2.61,2.52,2.52,0,0,0-2.47,2.3A2.55,2.55,0,0,0,190.58,154.12Z"/><path class="cls-1" d="M183.48,161a2.41,2.41,0,0,0,2.63-2.1,2.73,2.73,0,0,0-2.61-2.83,2.69,2.69,0,0,0-2.38,2.49A2.53,2.53,0,0,0,183.48,161Z"/><path class="cls-1" d="M184.14,183.4a2.45,2.45,0,1,0-.17,4.84,2.26,2.26,0,0,0,2.33-2.34A2.22,2.22,0,0,0,184.14,183.4Z"/><path class="cls-1" d="M176.61,182.2a2.94,2.94,0,0,0,3.19-2.8c.18-1.88-1.1-3.25-3.18-3.41a2.37,2.37,0,0,0-2.75,2.46C173.72,180.69,174.69,182,176.61,182.2Z"/><path class="cls-1" d="M184,169.85a2.65,2.65,0,0,0-2.64,2.77,2.46,2.46,0,0,0,2.64,2.15,2.4,2.4,0,0,0,2.34-2.45A2.54,2.54,0,0,0,184,169.85Z"/><path class="cls-1" d="M204.72,149.94a2.21,2.21,0,0,0-2.46,1.63,2.33,2.33,0,0,0,1.6,2.49,2.55,2.55,0,0,0,2.53-2.31A1.83,1.83,0,0,0,204.72,149.94Z"/><path class="cls-1" d="M129.57,215.1a2.18,2.18,0,0,0,2.55-2.09,2.9,2.9,0,0,0-2.55-2.94,2.58,2.58,0,0,0-2.56,2.8A2.51,2.51,0,0,0,129.57,215.1Z"/><path class="cls-1" d="M129.93,238.34c-1,0-2.25,1.19-1.91,2A3.43,3.43,0,0,0,129.7,242c1,.39,2.05-.61,2.12-1.67A2,2,0,0,0,129.93,238.34Z"/><path class="cls-1" d="M133,227.43c.25-1.63-1.26-3.25-3.22-3.45a3,3,0,0,0-3.22,2.78,3,3,0,0,0,2.87,3.12A3.3,3.3,0,0,0,133,227.43Z"/><path class="cls-1" d="M367.71,13l-3.52.79s0,.08.05.13l-.13,0a6.28,6.28,0,0,0,0,5.68l.19,0h0a.84.84,0,0,0-.06.14l3.47.23Z"/><path class="cls-1" d="M349.63,20.06h0a.59.59,0,0,0,0-.13h-6.37a.58.58,0,0,0,0,.14h-.16v6.34h.17c0,.05,0,.11,0,.17h6.3v-.21h.19l0-6.32Z"/><path class="cls-2" d="M247.43,122.33l.14,0a.32.32,0,0,1,0-.09Z"/><path class="cls-2" d="M174.4,168.33h.13a.68.68,0,0,1,0-.14Z"/><path class="cls-2" d="M181.15,143.16c0-.07,0-.15,0-.22a.26.26,0,0,0-.05.09Z"/><path class="cls-2" d="M180.94,134.72l-.14.12h.14a1.36,1.36,0,0,1,0-.17Z"/><path class="cls-2" d="M280.8,128.89l.16,0-.06,0Z"/><path class="cls-2" d="M295.47,121.89V122l.12,0Z"/><path class="cls-2" d="M145.79,276.66h-.18c0,.06,0,.12,0,.18l.11,0Z"/><path class="cls-2" d="M207.7,128.56v-.13h-.14a.76.76,0,0,0,0,.15Z"/><path class="cls-2" d="M234.85,128.39l-.07-.06v.12h.14Z"/><path class="cls-2" d="M367,127.34a2.45,2.45,0,0,1-2.69-2,2.84,2.84,0,0,1,2.25-3.08,2.08,2.08,0,0,1,1.12.19V113.6a2.31,2.31,0,0,1-1.24.22,2.89,2.89,0,0,1-2.37-2.54,2.77,2.77,0,0,1,2.87-2.51,3.34,3.34,0,0,1,.74.17V100.7a3.48,3.48,0,0,1-.69.17,3.28,3.28,0,0,1-3.42-2.75c-.29-2.06.57-3.4,2.26-3.56a4.86,4.86,0,0,1,1.85.16V87.4a7.68,7.68,0,0,1-4-.4,37,37,0,0,0-.35-3.79,3.17,3.17,0,0,0-1-1.79,3.53,3.53,0,0,0-5.67,2.42,12.43,12.43,0,0,0,.57,3.18L363,88c.73,6,.41,6.41-4.81,6.36-.31,0-.62-.32-1.19-.64-.28-1.7-.59-3.6-.92-5.64a17,17,0,0,0-3.3-.47c-2,.11-2.84,1.07-2.93,3.12-.11,2.42.59,3.31,2.89,3.68,1.18.19,2.36.35,3.58.53.25,2.31.59,4.25-.85,6-1.8.27-3.56.7-5.37-.6-.19-1.69-.39-3.43-.62-5.45a33.4,33.4,0,0,0-3.79-.32,2.25,2.25,0,0,0-2.49,2.28c-.15,1.54-.22,3.09-.32,4.64l.17,0a.41.41,0,0,0,0,.11c2-.7,4-.4,6.14-.17a6.09,6.09,0,0,1,.55,1.6c0,4.75-.77,5.29-6.08,4.11-.94-1.69-.35-3.68-.61-5.54a1.06,1.06,0,0,0-.19.06c0-.07,0-.13,0-.19-2.06-.29-4.14-.78-6.08.67-.32,1.75-.64,3.49-1,5.32l-5.6.88c-.45,2-.88,3.83-1.34,5.89-.95.13-1.82.24-2.68.39-1,.16-2.07.36-3.17.56-.2,1.61-.27,3-.58,4.43-.26,1.17-1.91,1.94-3.56,1.9a2.48,2.48,0,0,1-2.48-1.72,34.92,34.92,0,0,1-.77-4.07,4.75,4.75,0,0,0-5.79-.17c-.41,1.81-.84,3.68-1.27,5.56l-5.73.89c-.22,1.31-.35,2.53-.62,3.73a3,3,0,0,1-3.55,2.51,2.92,2.92,0,0,1-3-2.59c-.18-1.21-.18-2.44-.26-3.67a8.89,8.89,0,0,0-6.25.26c-.11,1-.16,1.83-.31,2.69-.42,2.58-.89,3-3.34,3.34-1.54.19-3.07.4-4.61.6,2,1.22,1.55,3.12.7,4.55-1.36,2.25-3.57,1.66-5.81,1-.36-1.92-.71-3.77-1-5.49a4.85,4.85,0,0,0-1.18-.49c-1.7-.08-3.4-.11-5.11-.15v.18h-.17a11.43,11.43,0,0,1-.41,5.83,9.11,9.11,0,0,1-2.31.62c-3.28,0-4.77-2.26-3.43-5.28a2.27,2.27,0,0,1,1.57-1.18,41.17,41.17,0,0,1,4.58,0c0-.07,0-.13,0-.19h.19c0-.83,0-1.65,0-2.47-.21-4-.53-4.3-4.34-4.2a7.56,7.56,0,0,0-1.89.46,1.37,1.37,0,0,1,0,.19,1,1,0,0,0-.16-.06l-.62,5.06c-2.59,1.1-2.59,1.16-5.79.42a8.2,8.2,0,0,1-.26-5.64,9.9,9.9,0,0,1,6.67.16v-.09l.13,0c-.26-2-.53-4.1-.81-6.28a15.79,15.79,0,0,0-1.84-.92,5,5,0,0,0-1.59-.2c-1.73,0-2.56.71-2.87,2.5-.23,1.35-.39,2.7-.57,3.92l-7,1.22a6.79,6.79,0,0,1,.54,1.9c0,3-.75,3.83-3.65,4.06-1,.08-2,.12-3.06.18a35,35,0,0,1,0,3.55c-.21,2.12-1.37,3-3.56,2.94-1.88-.07-2.83-.95-3-2.93-.1-1.18,0-2.38,0-3.56l-6.09-.48c-1.32-5.84-1.32-5.83-6.42-6.75-.31,0-.56-.41-1-.75a30.74,30.74,0,0,0-.33-3.58,3,3,0,0,0-1.06-1.71,3.88,3.88,0,0,0-4.49.39c-1.23,1.11-1.18,2.55-.89,4s1.37,2,2.77,2a7.51,7.51,0,0,1,2.12.26,2.14,2.14,0,0,1,1.22,1,4.58,4.58,0,0,1-.28,4.61c-.84,1.21-2.23,1-3.46.77-1.63-.25-2.24-1-2.52-2.92-.15-1-.24-2-.37-3.14-1-.2-1.66-.4-2.35-.47-2.71-.27-4.18,1.31-4,3.76a26,26,0,0,1-.09,3h.14v.13a30.54,30.54,0,0,1,3.57-.22,2.76,2.76,0,0,1,3,3,3.44,3.44,0,0,1-2.85,3.36,3.19,3.19,0,0,1-3.54-2.54,26.74,26.74,0,0,1-.16-3.59h-.15a.76.76,0,0,1,0-.15c-2.08,0-4.19-.5-6.14.43-1,1.85,0,4.18-2,5.79l-5,.85c-.18,1.48-.27,2.72-.5,3.93a2.32,2.32,0,0,1-2.6,2.18,23.55,23.55,0,0,1-3.66-.71c-.25-2-.47-3.71-.72-5.64l-5.95-.4a18.12,18.12,0,0,0,.17,8.09c.5-1.18,1.57-1.22,2.62-1.19,2,.05,3,.69,3.31,2.08a3.36,3.36,0,0,1-2.27,4.28,31.08,31.08,0,0,1-3.64.85c-.45,1.75-.58,3.61-1.38,5.12-1.06,2-3.64.84-5.19,1.61-.81,3.14-.81,3.14,0,6.07,1,.2,2,.36,3,.63a2.77,2.77,0,0,1,2.14,2.76,2.82,2.82,0,0,1-2.21,3.22,11.11,11.11,0,0,1-3,0c-.28,1.72-.53,3.45-.86,5.16a2.39,2.39,0,0,1-2.1,2.15,8.59,8.59,0,0,0-2.64.43A4,4,0,0,0,167.2,178a3.35,3.35,0,0,0,2.16,4.33,27.07,27.07,0,0,0,3.49.67c1.21,4.49.76,5.33-3.17,6.24-2,.45-2.51.93-2.69,2.79a22.5,22.5,0,0,0,.21,3.28,42.29,42.29,0,0,1,4.3,1.13,2.81,2.81,0,0,1,1.77,3c-.08,1.79-1.56,3.1-3.72,3.12a2.23,2.23,0,0,1-2.45-1.69c-.24-1.05-.15-2.18-.47-3.2a2.57,2.57,0,0,0-1.38-1.46,3.84,3.84,0,0,0-4.78,2.4c-.49,1.83.95,3.74,3.17,4.17,1,.2,2.19-.43,3.16.9a13,13,0,0,1-.45,5.62l-4.68.6c-1.32,1.51-1.82,2.94-1,4.65.62,1.33,1.77,1.55,3.07,1.8a3,3,0,0,1,2.65,2.89,3.39,3.39,0,0,1-2.27,3.32,13.87,13.87,0,0,1-3.23.22,22.13,22.13,0,0,1-.66-2.21c-.15-.71,0-1.53-.28-2.13a4.25,4.25,0,0,0-1.72-1.9c-1.16-.56-3.27.7-4,2.1a3.19,3.19,0,0,0,1.34,3.73,37.4,37.4,0,0,0,3.93,1.28c.87,4.62.87,4.62-3.23,6.39a3.92,3.92,0,0,0-2.5,3.77,3.16,3.16,0,0,0,2.85,2.82,3.07,3.07,0,0,1,.53.07c2,.73,2.93,1.87,2.78,3.4a3.72,3.72,0,0,1-3.18,3.18c-1,.24-2,.38-2.92.54-.32,2.07-.59,3.82-.86,5.62-.91.27-1.57.49-2.24.68a15.89,15.89,0,0,0-2.07.6,2.88,2.88,0,0,0-1.63,3.57c.48,2.19,2.07,2.58,4,2.9a2.85,2.85,0,0,1,2,4.14,3.33,3.33,0,0,1-2.67,2.39c-1,.12-2.05.26-3.16.41-.31,1.89-.57,3.45-.85,5.19l-3,1.2a5.11,5.11,0,0,0-2.81,4.15c0,1.32,1.4,2.3,3.63,2.47a4.44,4.44,0,0,0,1.44-.31c0-.06,0-.12,0-.18h.18l1-4.71c.47-.25,1.09-.59,1.72-.9a2.71,2.71,0,0,1,3.36.92,2.91,2.91,0,0,1,.56,3.47,3.12,3.12,0,0,1-2,1.44,30,30,0,0,1-4.62-.22l0,.13-.11,0c.58,2.32,1.16,4.65,1.76,7.08l5.74.77c.45-.7,1-1.14,1-1.6a8.9,8.9,0,0,1,2.77-6.13,7.4,7.4,0,0,0,1.87-7.05c-.58,0-1.12-.08-1.65-.17a4.21,4.21,0,0,1-1-.31,2.38,2.38,0,0,1-1.57-3A2.27,2.27,0,0,1,157,264.8a30.6,30.6,0,0,1,3.47.77c.23-.51.5-.84.49-1.16a18,18,0,0,1,1.73-8.8c1.09-2.23,1.34-4.72-.79-7-1.56-1.68-1.12-3.22,1-4.29a4.63,4.63,0,0,0,2.8-3,21.91,21.91,0,0,1,4-7.62,4.13,4.13,0,0,0,.92-4.08,11.16,11.16,0,0,1-1.73-1.13,2.59,2.59,0,0,1-.93-2.89,2.74,2.74,0,0,1,3.08-1.63c1,.13,2,.42,3.16.69a10,10,0,0,0,.6-2.84c-.44-3.57-.54-3.69,2.32-4.71a4.12,4.12,0,0,0,2.35-2c1.56-2.63,3.18-5.23,4.64-7.9a47.38,47.38,0,0,0,1.93-4.51c-.81-.29-1.29-.45-1.76-.63a7.74,7.74,0,0,1-1.93-.82,2.54,2.54,0,0,1,2.74-4.26,16.82,16.82,0,0,1,2.42,1.84c1.61-3,1.57-2.94.87-5.24a10.81,10.81,0,0,1-.19-2.15,12,12,0,0,0,6-6.12c2.41-5.31,6-9.38,12.15-10.51a3,3,0,0,0,2.49-2.44c.74-2.45,1.81-2.7,3.94-1.36a15.25,15.25,0,0,1,1.76,1.6c4.36-1.83,8.67-3.58,12.91-5.49.72-.32,1.16-1.3,1.71-2s1.07-1.34,1.77-2.22c2.35,1.52,4.76,2.12,7.23,1a39.69,39.69,0,0,1,8.82-2.45,10.18,10.18,0,0,0,2.3-1c0-.59-.08-.95-.09-1.31a2.4,2.4,0,0,1,2.07-2.71,2.43,2.43,0,0,1,2.66,1.41c.33.59.56,1.23.77,1.7a13.07,13.07,0,0,0,9.82-3.3c1.84.22,3.31.71,4.65.5a91.14,91.14,0,0,0,13.66-2.94,15,15,0,0,1,.21-2.32,2.6,2.6,0,0,1,2.21-2.1,2.51,2.51,0,0,1,2.64,1.46c.34.6.65,1.21.9,1.7a11.87,11.87,0,0,0,10.08-3.84c2.25,1.82,4.53,1.32,6.84.71s4.9-1.18,7.34-1.77a5,5,0,0,0,3.9-3.24c.89-2.2,2.59-2.62,4.26-1a4.47,4.47,0,0,0,4.93,1.07c3.57-1.17,7.09-2.5,10.58-3.75a16.42,16.42,0,0,1,.31-2.31c.85-2.88,3.13-3.41,5.17-1.2.58.63,1,1.37,1.69,2.24,1.72-.51,3.54-.59,4.72-1.5,2.58-2,5.46-2.42,8.49-2.66.26,0,.47-.49.83-.89a12.8,12.8,0,0,1-.51-2.37,2.52,2.52,0,0,1,1.88-2.89,2.72,2.72,0,0,1,3.19,1.4,15.12,15.12,0,0,1,.91,2.44,10.59,10.59,0,0,0,4.31-.47v-5.33A2.17,2.17,0,0,1,367,127.34Zm-208,126.32a3,3,0,0,1-1.12,1.66c-2,1.27-3.49.77-4.19-1.41a16.54,16.54,0,0,1-.2-3.35,31.89,31.89,0,0,1,4.29.94A1.83,1.83,0,0,1,159.06,253.66Zm4.51-17.85c-1.78,0-3.2-.85-3.21-2a3.24,3.24,0,0,1,3.08-3,2.68,2.68,0,0,1,2.56,2.76A2.42,2.42,0,0,1,163.57,235.81Zm6.79-19.95a3.67,3.67,0,0,1-3.09-3.11,2.85,2.85,0,0,1,2.45-3,3.05,3.05,0,0,1,3.34,2.68C173.2,214,171.72,215.88,170.36,215.86Zm3.51-37.41a2.37,2.37,0,0,1,2.75-2.46c2.08.16,3.36,1.53,3.18,3.41a2.94,2.94,0,0,1-3.19,2.8C174.69,182,173.72,180.69,173.87,178.45Zm3.38,30.05a2.52,2.52,0,0,1-.4-5,2.76,2.76,0,0,1,2.79,2.66A2.39,2.39,0,0,1,177.25,208.5Zm-.43-12.84a3,3,0,0,1-2.89-3.13c.06-1.63,1.58-3.21,3-3.09a3.17,3.17,0,0,1,2.94,3.16A3.21,3.21,0,0,1,176.82,195.66Zm6.68-39.6a2.73,2.73,0,0,1,2.61,2.83,2.41,2.41,0,0,1-2.63,2.1,2.53,2.53,0,0,1-2.36-2.44A2.69,2.69,0,0,1,183.5,156.06Zm2.79,16.26a2.4,2.4,0,0,1-2.34,2.45,2.46,2.46,0,0,1-2.64-2.15,2.65,2.65,0,0,1,2.64-2.77A2.54,2.54,0,0,1,186.29,172.32ZM184,188.24a2.45,2.45,0,1,1,.17-4.84,2.22,2.22,0,0,1,2.16,2.5A2.26,2.26,0,0,1,184,188.24Zm4.13-36.45a2.52,2.52,0,0,1,2.47-2.3,2.4,2.4,0,0,1,2.1,2.61,2.16,2.16,0,0,1-2.09,2A2.55,2.55,0,0,1,188.1,151.79Zm4.4,14.13a2,2,0,0,1-2.25,1.72,1.9,1.9,0,0,1-1.92-2,2,2,0,0,1,1.9-2.11A2.39,2.39,0,0,1,192.5,165.92Zm-2.05,15.42a2.25,2.25,0,1,1,.41-4.47A1.9,1.9,0,0,1,192.7,179,2.28,2.28,0,0,1,190.45,181.34Zm4.21-36.47a2.18,2.18,0,0,1,2.17-2.41,3.07,3.07,0,0,1,3,2.46,2.51,2.51,0,0,1-2.27,2.45A2.79,2.79,0,0,1,194.66,144.87Zm3,11.83a2.07,2.07,0,0,1,1.77,2.21,2,2,0,0,1-2.12,1.87,2.06,2.06,0,0,1,.35-4.08Zm.15,17.45c-.9.36-2-.68-2.14-1.75s.74-2.26,1.77-2c.87.17,1.61.92,2.84,1.69C199.23,173,198.63,173.83,197.82,174.15Zm6.5-6.7c-1.16.17-2.33-.74-2-1.83a12.91,12.91,0,0,1,1.79-2.9,13,13,0,0,1,2.22,2.63C206.64,166.18,205.48,167.28,204.32,167.45Zm-.46-13.39a2.33,2.33,0,0,1-1.6-2.49,2.21,2.21,0,0,1,2.46-1.63,1.83,1.83,0,0,1,1.67,1.81A2.55,2.55,0,0,1,203.86,154.06Zm.43-12.92a3.61,3.61,0,0,1-3-3.23,2.83,2.83,0,0,1,2.71-2.74,3.87,3.87,0,0,1,3.39,2.93A3.12,3.12,0,0,1,204.29,141.14Zm6.94,19.65a2,2,0,0,1-2.11-2c-.11-1.14.8-2.39,1.8-2.13a7.28,7.28,0,0,1,2.11,1.38C213.17,159.72,212.33,160.72,211.23,160.79Zm.14-13.13a2.77,2.77,0,0,1-3-2.37,2.63,2.63,0,0,1,2.46-2.8,3,3,0,0,1,2.79,2.64A2.94,2.94,0,0,1,211.37,147.66Zm6.13,19.87a2.11,2.11,0,0,1-2-2.05c.1-1.25,1.21-2.23,3-2.16.36.52,1.19,1.24,1.33,2.07A2,2,0,0,1,217.5,167.53Zm.32-13.18a2.55,2.55,0,0,1-2.38-2.88,2.45,2.45,0,0,1,2.66-2,2.61,2.61,0,0,1,2.15,2.61A2.44,2.44,0,0,1,217.82,154.35Zm.13-13a3.28,3.28,0,0,1-3.15-3,3.13,3.13,0,0,1,2.91-3.14,3.23,3.23,0,0,1,3.15,2.94A3.18,3.18,0,0,1,218,141.3ZM226.78,159a2.27,2.27,0,0,1-2.79,1.81,2.54,2.54,0,0,1-1.57-2.9,6.76,6.76,0,0,1,2.2-1.33C225.86,156.37,227,157.8,226.78,159Zm-2.39-11.18a3,3,0,0,1-2.66-2.79,2.85,2.85,0,0,1,3.15-2.79A2.73,2.73,0,0,1,227.5,145,2.88,2.88,0,0,1,224.39,147.86Zm3.13-14.33c-.68,1.38-2,1.41-3.24,1.41a2.84,2.84,0,0,1-2.94-1.94,4.45,4.45,0,0,1,.92-4.48,17.62,17.62,0,0,1,2.26-.2C227.49,128.45,228.85,130.83,227.52,133.53Zm4.17,20.82a2.59,2.59,0,0,1-.56-5.14,2.62,2.62,0,0,1,2.78,2.55A2.65,2.65,0,0,1,231.69,154.35Zm-.52-12.84a3.06,3.06,0,0,1-3-3.18A3,3,0,0,1,231,135a3.42,3.42,0,0,1,3.65,3.18A3.28,3.28,0,0,1,231.17,141.51Zm7,19.41a2.16,2.16,0,0,1-2.22-1.9,2.05,2.05,0,0,1,2.17-2.43c.87.12,1.63.94,2.19,1.29C240.46,159.73,239.49,160.86,238.16,160.92Zm-.92-13.19a2.79,2.79,0,0,1-2.25-3.14,3.07,3.07,0,0,1,2.94-2.61,3.26,3.26,0,0,1,2.9,3.28A3.11,3.11,0,0,1,237.24,147.73Zm7.68,6.64a2.51,2.51,0,0,1-2.48-2.23,2.84,2.84,0,0,1,2.49-2.87,2.55,2.55,0,0,1,0,5.1ZM248,138.7a2.94,2.94,0,0,1-3.35,2.68,3.76,3.76,0,0,1-3-3.35,3.17,3.17,0,1,1,6.31.67Zm3.27,9.18a2.78,2.78,0,0,1-2.65-2.8,3.22,3.22,0,0,1,3.57-3.14,3,3,0,0,1-.92,5.94Zm.44-12.94a3.07,3.07,0,0,1-3.36-3.26,4.1,4.1,0,0,1,.3-1.54,11,11,0,0,1,.82-1.45,14,14,0,0,1,2-.34c.87,0,1.74.1,2.78.17a14.89,14.89,0,0,1,.68,3.12A3,3,0,0,1,251.75,134.94Zm6.79,19.44a2.34,2.34,0,0,1-2.5-2.23,2.41,2.41,0,0,1,2-2.72,2.51,2.51,0,0,1,2.77,1.93A2.46,2.46,0,0,1,258.54,154.38Zm-.69-12.8a3,3,0,0,1-2.67-3.4,3.1,3.1,0,0,1,3.54-3.15,3,3,0,0,1,3,3.06A3.54,3.54,0,0,1,257.85,141.58Zm7.47,6.16a3,3,0,0,1-3-2.54,2.78,2.78,0,0,1,2.43-3,2.74,2.74,0,0,1,3.19,2.11A3.1,3.1,0,0,1,265.32,147.74Zm6.44,6.69a2.52,2.52,0,0,1,.44-5,2.69,2.69,0,0,1,2.34,2.48A2.65,2.65,0,0,1,271.76,154.43Zm0-13a3.09,3.09,0,0,1-3.17-3.46c.06-2,1.29-3,3.64-2.92a2.65,2.65,0,0,1,2.89,3A3.3,3.3,0,0,1,271.76,141.39Zm7,6.36a2.59,2.59,0,0,1-2.6-2.14,2.55,2.55,0,0,1,2.17-3.05,2.64,2.64,0,0,1,3,2.31A2.9,2.9,0,0,1,278.79,147.75Zm7.06-6.66a3.11,3.11,0,0,1-3.24-2.8,3,3,0,0,1,2.39-3.07,3,3,0,0,1,3.17,2.8A2.88,2.88,0,0,1,285.85,141.09Zm6.77,6.65a2.73,2.73,0,0,1-2.9-2.52,2.42,2.42,0,0,1,2.16-2.58,2.64,2.64,0,0,1,2.87,2.52A2.31,2.31,0,0,1,292.62,147.74Zm-.5-13.06a3.19,3.19,0,1,1,.81-6.29,2.74,2.74,0,0,1,2.61,2.82A3.68,3.68,0,0,1,292.12,134.68Zm7.06,6.31a2.93,2.93,0,0,1-2.64-2.13,2.6,2.6,0,0,1,2.13-3.08,2.56,2.56,0,0,1,2.92,2.32A2.63,2.63,0,0,1,299.18,141Zm6.88,6.87a2.9,2.9,0,0,1-2.88-2.61,2.65,2.65,0,1,1,5.29.21A2.53,2.53,0,0,1,306.06,147.86Zm0-13.51a2.9,2.9,0,0,1-3.1-2.83,2.93,2.93,0,0,1,2.88-3.1,3.07,3.07,0,0,1,2.86,3.17A2.84,2.84,0,0,1,306,134.35Zm7.08,6.53a2.54,2.54,0,1,1-.48-5,2.55,2.55,0,0,1,.48,5Zm.17-12.94c-1.24.32-3.22-.47-3.53-1.67a29.82,29.82,0,0,1-.43-4.54,36.55,36.55,0,0,1,4.45,0,2.87,2.87,0,0,1,2.18,2.65A3.65,3.65,0,0,1,313.27,127.94Zm6.25,6.31a2.81,2.81,0,0,1-2.89-2.61,2.86,2.86,0,0,1,2.64-2.87,3,3,0,0,1,2.91,2.66A2.77,2.77,0,0,1,319.52,134.25ZM326,141a2.62,2.62,0,0,1-2.32-2.52,2.51,2.51,0,0,1,2.28-2.54,2.55,2.55,0,1,1,0,5.06Zm0-13.4a3.1,3.1,0,0,1-2.91-3.23,2.66,2.66,0,0,1,2.85-2.59c1.87,0,3.29,1.27,3.25,2.85A3.18,3.18,0,0,1,325.93,127.57Zm7.32,6.54a2.51,2.51,0,0,1-2.84-2.5,2.73,2.73,0,0,1,2.26-2.61,3,3,0,0,1,2.89,2.63A2.47,2.47,0,0,1,333.25,134.11Zm-.43-12.83a3.44,3.44,0,0,1-3.32-3.47c0-1.91,1.05-3.13,2.8-3.15,2.38,0,4.14,1.41,4,3.26A3.67,3.67,0,0,1,332.82,121.28Zm6.69,6.15a3,3,0,0,1-2.54-3,2.73,2.73,0,0,1,5.43.53A2.56,2.56,0,0,1,339.51,127.43Zm1.88-13.26a4.15,4.15,0,0,1-4.09-.21,1.56,1.56,0,0,1-.59-.85c-.37-1.58-.65-3.17.65-4.91a20.17,20.17,0,0,1,2.88-.27c1.64.06,2.52.79,2.75,2C343.32,111.72,342.64,113.62,341.39,114.17Zm4.88,20.14a2.69,2.69,0,0,1-2.29-3.09,2.43,2.43,0,0,1,2.75-2,2.54,2.54,0,0,1,2.39,2.45A2.81,2.81,0,0,1,346.27,134.31Zm.57-13.46a3.07,3.07,0,0,1-3.31-2.72A3,3,0,0,1,346.4,115a2.93,2.93,0,0,1,.44,5.85Zm6.4,6.49a2.47,2.47,0,0,1-2.53-2.74,2.71,2.71,0,0,1,2.45-2.35,2.92,2.92,0,0,1,2.57,2.87A2.44,2.44,0,0,1,353.24,127.34Zm0-13.12a3.11,3.11,0,0,1-3.2-2.35A3.57,3.57,0,0,1,353,108a3.35,3.35,0,0,1,3.23,3A3.15,3.15,0,0,1,353.21,114.22Zm7.09,6.36a3,3,0,0,1-2.88-2.6,2.78,2.78,0,0,1,2.33-2.53,2.7,2.7,0,0,1,2.8,2.58A2.59,2.59,0,0,1,360.3,120.58Zm-.3-13a3.33,3.33,0,0,1-3.21-3.06,3.18,3.18,0,0,1,3-3.18,3,3,0,0,1,3.12,3A3,3,0,0,1,360,107.54Z"/><path class="cls-2" d="M262.15,122.2a1,1,0,0,1,.16.06,1.37,1.37,0,0,0,0-.19l-.13,0Z"/><path class="cls-2" d="M268.36,128.46h.17v-.18h-.19C268.35,128.33,268.35,128.39,268.36,128.46Z"/><path class="cls-2" d="M343.06,101.6a.41.41,0,0,1,0-.11l-.17,0c0,.06,0,.12,0,.19A1.06,1.06,0,0,1,343.06,101.6Z"/><path class="cls-2" d="M241.4,128.45v-.13l-.14.13Z"/><path class="cls-2" d="M127.55,282.39c-.23-2.85-.28-2.9.8-4,.88-.87,1.9-1.6,2.85-2.41,1.76-1.52,1.7-3-.19-4.42-.28-.21-.68-.27-1-.49-3-2.32-3.26-4.42-.7-7.16.24-.26.58-.43.84-.68q3.93-4-.88-7.4c-.29-.21-.65-.31-.94-.52a1.85,1.85,0,0,1-.73-2.37,3.54,3.54,0,0,1,2-1.52,8.41,8.41,0,0,1,2.69.15c.67-1.83,1.2-3.55,1.93-5.18a11.28,11.28,0,0,1,1.93-3.18c3-3.2,3.08-3.16,1.39-7.14a10.14,10.14,0,0,0-.53-1,17.39,17.39,0,0,1-2.5-.76,1.76,1.76,0,0,1-.47-3.07,3.87,3.87,0,0,1,1.82-.93,15,15,0,0,1,2.7,0c.9-2.51,1.45-4.7-.38-6.94l-4.73-.75a8.37,8.37,0,0,1,.29-5.93,11,11,0,0,1,1.61-.39c2-.16,3.56-1,3.78-3.13.19-1.82-.9-2.93-2.58-3.68a7.62,7.62,0,0,1-2.46-2,2.41,2.41,0,0,1,.59-3.71,12.27,12.27,0,0,1,2.52-.76l3-.94c-.79-2.47.29-4.92-1.26-6.94-1.86,1.25-3.66.88-5.58,0-.24-1.76-.45-3.33-.64-4.72a4.08,4.08,0,0,0-4.75-.63,3,3,0,0,0-1.57,3.16c.06,1.56.68,2.51,2,2.83s2.75.56,4,.8c1,5.89.35,6.59-4.81,5.89-.3,0-.56-.41-1-.77-.06-.72-.1-1.6-.22-2.48s-.31-1.69-.43-2.38c-2-1.24-3.87-1.24-5.26.18s-1.3,3.25-.28,5.18c.76.19,1.6.45,2.47.6s2.06.26,3,.38c.6,5.45.41,5.67-5.59,6.94-1.52,6.26-2.2,6.76-7.29,5a29,29,0,0,0-.38-3,3.16,3.16,0,0,0-3.65-2.42,3.37,3.37,0,0,0-2.74,2.93,3.19,3.19,0,0,0,2.07,3.4,39.75,39.75,0,0,0,4,.7,20.66,20.66,0,0,1,0,3.8,3,3,0,0,1-3.29,2.22c-1.67,0-2.49-.74-2.9-2.53-.2-.86-.31-1.74-.42-2.43-1.43-1-2.65-1.74-4.2-1a3.81,3.81,0,0,0-2.08,3.53c-.06.69-.19,1.38-.28,2-5.72,1.42-5.72,1.42-7.27,7.07-1.62.41-3.85.34-4.89,1.41-1.2,1.24-1.37,3.49-2,5.3-5.14,1.11-5.14,1.11-6.48,6.07,0,.15-.23.27-.35.4s-.25.3-.41.34c-4.69,1.21-4.68,1.2-5.91,6,0,.16-.22.29-.53.68l-4.78,1.16c-.32.66-.76,1.14-.76,1.62,0,3.48-2,4.74-5.12,4.92-.47,0-.92.49-1.23.66s-.37.47-.37.62c-.05,4-2.36,5.3-6,5.22-.29,0-.59.34-1,.62a9.46,9.46,0,0,1-.35,2.49,6.42,6.42,0,0,1-1.69,2.63c-1.94,1.58-4.15.69-4.79-1.78-.18-.69-.1-1.6-.53-2a6.27,6.27,0,0,0-2.62-1.63c-1.06-.31-2.43.82-2.9,2-.76,1.94.34,3.84,2.56,4.39.82.2,1.66.34,2.33.48.56,2.63.56,3.6,0,4.45a3,3,0,0,1-3.25,1.42,2.48,2.48,0,0,1-2.3-1.93,5.19,5.19,0,0,0-.9-2.47,4,4,0,0,0-2.74-1.31,4,4,0,0,0-2.46,1.82c-1,1.68-.11,3.56,1.82,4.21a13.85,13.85,0,0,1,2.09.49,2.74,2.74,0,0,1,1.41,2.72,2.81,2.81,0,0,1-2.19,2.72,2.63,2.63,0,0,1-3-.78,18.14,18.14,0,0,1-1.23-2.92,3.34,3.34,0,0,0-5.73-.6,4.15,4.15,0,0,0-.13,4.78c1,.34,2.23.64,3.36,1.14a2.23,2.23,0,0,1,1.31,2.68,3.43,3.43,0,0,1-1.39,2.07,2.17,2.17,0,0,1-2.79-1,27.14,27.14,0,0,1-1.77-3.65c-4.79-.7-5.25-.41-6.13,3.67a11.8,11.8,0,0,1-.52,1.63c-2,.87-4,1.21-5.09,2.37s-1.43,3.14-1.89,4.27c-1.9.87-3.68,1.19-4.67,2.25-1.15,1.24-1.61,3.12-2.31,4.6-1.34,1.32-3.9,0-4.54,2.37,2.87,3.41,3.73,3.43,6.48.27A7.51,7.51,0,0,1,7,305.09c4.92,1.76,4.92,1.76,8-.24,0,0,0,0,0,0l0,0a.18.18,0,0,0,0-.07c.31-1.52-1.21-1.39-1.88-2a2.34,2.34,0,0,1-.53-3.33,2.22,2.22,0,0,1,2.87-.54,2.76,2.76,0,0,1,1.24,3.24,18,18,0,0,1-1.7,2.65v.05c3.6-2,7.29-4,8.57-8.37l-.15.05c0-.06,0-.11,0-.17-.64.06-1.28.14-1.92.15a3,3,0,0,1-2.86-2,2.18,2.18,0,0,1,.81-2.79,2.07,2.07,0,0,1,2.45.09c1.87,1.1,1.61,2.84,1.52,4.54l.19,0a.78.78,0,0,1-.05.14,9.47,9.47,0,0,0,5.72-4.3,4.4,4.4,0,0,1,2.29-2.09c3.49-.79,5.91-3.31,8.88-4.91s5.28-3.6,6.49-6.59a24.08,24.08,0,0,0,4.37-1c1.86-.79,1.2-2.76,1.59-4.26a2.36,2.36,0,0,1,3.43-1.51c1.37.67,3,1,3,3.25,0,1.7,1.81,1.9,3.14,2.47a3,3,0,0,1-.81,5.77,35.07,35.07,0,0,1-3.56.19c0,.3.08.6.11.9.38,3.28.3,6.18-4,6.84a2.77,2.77,0,0,0-2.07,2.87,3.23,3.23,0,0,0,2.26,3.33,7.66,7.66,0,0,1,2.45,1c1.88,1.45,1.61,5.13-.88,5.69a11.19,11.19,0,0,0-2.09.51,3.13,3.13,0,0,0-1.9,3.52c.27,1.47.8,2.82,2.59,3a3.55,3.55,0,0,1,2.82,1.3c1.55,2.14.74,4.56-1.9,5.47-3.49,1.21-3.78,1.75-2.82,5.45.08.31.43.54.76.93l3.94.71a5.85,5.85,0,0,1,.37,5.95,32.45,32.45,0,0,0-3.54,1,2.92,2.92,0,0,0-1.69,3.11,2.55,2.55,0,0,0,2.31,2.58,11.4,11.4,0,0,0,3-.43c.23-.75.4-1.26.52-1.78a16,16,0,0,1,.3-1.59,2.36,2.36,0,0,1,2.46-1.7A2.85,2.85,0,0,1,64,334.36a2.3,2.3,0,0,1-1.12,2.77,21.17,21.17,0,0,1-3.41,1.34c-1.52,4.93-1.44,5.13,2.68,6.87.16.07.41.06.5.17A8.9,8.9,0,0,1,64.44,348a2.73,2.73,0,0,1-1.62,3.13c-.77.42-1.73.49-2.53.87A2.25,2.25,0,0,0,59,354.71a3.44,3.44,0,0,0,1.67,1.93,3.64,3.64,0,0,0,4.41-1c.85-.92,1.41-2.32,2.43-2.81a5.7,5.7,0,0,0,3.42-4.5c.3-1.84,1.88-3.52.76-5.7a12.3,12.3,0,0,1-2,.95c-1.49.45-2.66-.19-2.9-1.47s.63-2.19,2.23-2.44c.65-.1,1.38.53,2.15-.44-.78-2.88-.37-6.36-3-8.74-1.46-1.32-1.52-2.61-1-4.33,1.07-3.45,1.91-6.91-.2-10.37-.75-1.23-.27-2.43,1-3.18.62-.36,1.22-.73,2.09-1.25,0-1.94,0-3.91,0-5.88A2.82,2.82,0,0,0,68.42,303c-2.19-1.34-2.36-2.19-.64-3.64a4,4,0,0,0,1.64-4.21c-.51-2.2-.15-4.58-2.11-6.51-1.33-1.31,0-3.15,2-3.12a5.58,5.58,0,0,1,1,.24,2.56,2.56,0,0,0,.53.09c2.32-.05,3.24-1.31,2.81-3.84-.5-2.94.41-3.76,3.55-3.14a10.32,10.32,0,0,1,1.48.59c0,1.55.11,3-.92,4.2a2.26,2.26,0,0,0-.6,2.45c1.21,3.15,2.28,6.36,3.61,9.45a5.35,5.35,0,0,0,2.29,2.14,4.46,4.46,0,0,1,2.42,4.45,18.52,18.52,0,0,0,.33,2.63c1.35.08,2.42.09,3.47.21a2.76,2.76,0,0,1,2.43,1.87,2.94,2.94,0,0,1-1,3.4A30.93,30.93,0,0,1,88.17,312c-.09,2.83,2.06,4.2,3.31,6.12a40.25,40.25,0,0,1,2.76,6.11c4.56,1.13,4.55,1.13,5.08,5.14a16.42,16.42,0,0,0,.48,1.76c1.94.28,3.83.63,5.7-.3a29.4,29.4,0,0,1,1-3.65,2.79,2.79,0,0,1,3.22-1.4,2.68,2.68,0,0,1,.33,5.16c-1.15.47-2.36.76-3.43,1.1-.85,4.26-.54,5.18,3,6.22,1.9.56,2.76,1.53,2.91,3.32s-.52,2.71-2.94,3.77a13.37,13.37,0,0,0-1.37.84c.25,1.95,1.15,3,3.06,3.06,3-3.27,3-3.27,8.22-3.49.59-2.78,1.24-5.55,1.72-8.35a5.16,5.16,0,0,0-.33-2.63c-.9-2.3.09-4.6-.13-6.9a2.39,2.39,0,0,1,2-2.29l2.43-.69c.81-2.62,1.85-5,.38-7.61a19.67,19.67,0,0,1-3.59-.71,2.14,2.14,0,0,1-1.07-1.68c0-.78.41-2,1-2.24a26.37,26.37,0,0,1,4.46-1.31c0-1,0-1.91,0-2.8s.17-1.75.26-2.63c.74-.48,1.33-.88,1.94-1.24a5.14,5.14,0,0,0,2.75-4.39c.05-1.93-1.47-2.48-2.9-3.37-2.4-1.49-2.07-4.36.5-5.56a19.77,19.77,0,0,1,3.62-.94C133.48,285.86,130.35,284.17,127.55,282.39ZM60.37,268.82a3.67,3.67,0,0,1-.35-2.46A1.64,1.64,0,0,1,62,265a3.2,3.2,0,0,1,2.1,1.31,12.42,12.42,0,0,1,.36,3.45C62.65,270.36,61.25,270.12,60.37,268.82ZM61.58,292A2.28,2.28,0,0,1,64,294.27a2.35,2.35,0,0,1-2.44,2.26,2.27,2.27,0,0,1-2.38-2.29A2.34,2.34,0,0,1,61.58,292Zm-.08,31.66a2.07,2.07,0,0,1-2.35-2.18,2.1,2.1,0,0,1,2.21-2.31,2.25,2.25,0,1,1,.14,4.49Zm.09-13.43a2.74,2.74,0,0,1-2.37-2.49,2.65,2.65,0,0,1,2.52-2.31,2.88,2.88,0,0,1,2.36,2.53A2.5,2.5,0,0,1,61.59,310.21ZM68.22,276c-1.51-.12-2.92-1.48-2.53-2.79.24-.83,1.18-1.45,1.58-1.91,2.23,0,3.37,1,3.43,2.5A2.35,2.35,0,0,1,68.22,276Zm1.26-13.36c-1.35.52-2.71-.64-2.93-2.2a2.16,2.16,0,0,1,1.63-2.34,2.77,2.77,0,0,1,3,2.78C70.8,261.31,70.28,262.32,69.48,262.63Zm5.94,6.54a2.27,2.27,0,0,1-2-2.17c0-1,1.08-1.94,2.72-1.8a7.17,7.17,0,0,1,1.36,2.13C77.77,268.37,76.51,269.32,75.42,269.17Zm.52-13.2c-1.36.27-2.61-1.06-2.76-2.53a2.18,2.18,0,0,1,2.28-2.27c1.47.15,2.47,1.31,2.48,3.36C77.44,254.91,76.77,255.81,75.94,256Zm5.9,15.6c1.15.17,2.11.86,2.09,2a2.62,2.62,0,0,1-1.2,2c-.83.31-1.9,0-3-.13a21.91,21.91,0,0,1,.27-2.45C80.23,272.13,80.76,271.41,81.84,271.57Zm-1.19-11.3a1.7,1.7,0,0,1,2.29-1.55c.54.22.88.93,1.14,1.24-.22,1.52-1.34,2.34-2.38,1.88A2.13,2.13,0,0,1,80.65,260.27Zm.67,30.08c-.93,0-1.78-.93-1.92-2.16-.2-1.71.34-2.64,1.63-2.81,1.76-.24,3.09.55,3.25,1.92A3,3,0,0,1,81.32,290.35Zm1.07-41.17a2.48,2.48,0,0,1-2.52-2.78c.1-1.35,1-2.1,2.57-2.11a2.26,2.26,0,0,1,2.31,2.37A2.73,2.73,0,0,1,82.39,249.18ZM89,296.61a2.34,2.34,0,0,1-2.39-2.28A2.5,2.5,0,0,1,89,292a2.54,2.54,0,0,1,2.37,2.37A2.27,2.27,0,0,1,89,296.61Zm.38-17.38c.57.16,1,.77,1.82,1.43A8.25,8.25,0,0,1,89,282.28c-.35.09-1.23-.67-1.39-1.19A1.45,1.45,0,0,1,89.36,279.23ZM87.83,267.1a5.24,5.24,0,0,1,1.51-.92c.25-.06,1,.67.91.92-.12.54-.61,1-1.19,1.85Zm1.49-11.71a2,2,0,0,1-2.49-2,2.2,2.2,0,0,1,1.8-2.26c1.14-.27,2.36.8,2.54,2.61C90.71,254.2,90.12,255.13,89.32,255.39Zm-.52-13a2.7,2.7,0,0,1-2.73-2.7,2.6,2.6,0,0,1,2.61-2.76,3.14,3.14,0,0,1,2.85,2.71A3,3,0,0,1,88.8,242.37Zm4-10.19c.26-1.5,1.46-2.27,3.24-2.09a2.36,2.36,0,0,1,2.23,3,2.69,2.69,0,0,1-2.91,2.55A2.94,2.94,0,0,1,92.82,232.18Zm2.85,43.49c-.86-.31-1.62-1-1.32-1.92.21-.65,1-1.11,1.77-1.9.77.95,1.49,1.5,1.7,2.2S96.56,276,95.67,275.67Zm2.15,12.49a7.06,7.06,0,0,1-2.24,1.24c-.8.14-1.69-1.5-1.47-2.47A1.68,1.68,0,0,1,96,285.5,2.26,2.26,0,0,1,97.82,288.16ZM94.26,260.1c.24-.66,1-1.14,1.73-2,.8,1,1.52,1.48,1.76,2.18s-1.28,1.91-2.2,1.65S93.91,261.08,94.26,260.1ZM95,248.88a2.21,2.21,0,0,1-1.81-2.24c.17-1.52,1.41-2.54,3.43-2.36.39.46,1.38,1.11,1.56,1.95C98.49,247.72,96.65,249.1,95,248.88Zm.91,49.81a2.48,2.48,0,0,1,2.31,2.45,2.69,2.69,0,0,1-2.53,2.3,2.57,2.57,0,0,1-2.3-2.48A2.6,2.6,0,0,1,95.9,298.69Zm-.33,18.85a3,3,0,0,1-2.72-2.75,3.1,3.1,0,0,1,3.08-3,2.93,2.93,0,0,1,2.57,3.37A2.61,2.61,0,0,1,95.57,317.54Zm3.71-89.79c.13-1.52.23-2.58.33-3.72.74-.27,1.39-.55,2.06-.75a2.51,2.51,0,0,1,2.94.66,3,3,0,0,1,.16,3.54,2.62,2.62,0,0,1-3.22,1.28A16.84,16.84,0,0,1,99.28,227.75Zm2.85,41.11c-.34,0-.91-1-1-1.64A1.42,1.42,0,0,1,103,265.9c.54.28.87.94,1.61,1.8A7.79,7.79,0,0,1,102.13,268.86Zm1.87,14.4a18,18,0,0,1-2.83-1.33,1.63,1.63,0,0,1-.22-2.4,1.75,1.75,0,0,1,2.37-.59C104.76,279.65,104.86,280.18,104,283.26ZM102.79,256c-.72-1-1.47-1.61-1.56-2.29A1.48,1.48,0,0,1,102.8,252c1.19,0,2.17.9,1.81,1.95C104.39,254.64,103.62,255.12,102.79,256Zm-.7-13.63a2,2,0,0,1-1.73-2.31,2.27,2.27,0,0,1,2.54-2.19,2,2,0,0,1,2.06,2A2.49,2.49,0,0,1,102.09,242.36Zm.12,63.15a2.37,2.37,0,0,1,2.64,2,2.28,2.28,0,0,1-2.11,2.51,2.38,2.38,0,0,1-2.43-2.24A2.49,2.49,0,0,1,102.21,305.51Zm.26,19.06a2.85,2.85,0,0,1-3.12-3.41,2.63,2.63,0,0,1,2.89-2.51,3,3,0,0,1,3,3.15A2.79,2.79,0,0,1,102.47,324.57Zm-.2-28.3A1.71,1.71,0,0,1,101,293.5a35,35,0,0,1,2.41-2.65c1.61,2,1.65,2,1.92,5.29A17.07,17.07,0,0,1,102.27,296.27Zm7.67,20.22c-1.69,0-2.75-.47-2.73-2a2,2,0,0,1,1-1.56,1.81,1.81,0,0,1,1.65.68A11.09,11.09,0,0,1,109.94,316.49Zm-.73-58c1-.09,1.72.31,2.16,1.68a6.58,6.58,0,0,1-1.71,1.47c-1,.42-2.57-.64-2.34-1.5A2.07,2.07,0,0,1,109.21,258.45Zm-1.32-11.61a1.7,1.7,0,0,1,1.68-1.73c1-.09,2.1,1.33,1.67,2.24-.31.67-1.11,1.11-1.52,1.5C108.25,248.55,107.84,247.87,107.89,246.84Zm1.9,55a4.51,4.51,0,0,1-1.41-.63l1-1.81c.73.47,1.28.66,1.55,1S110.57,301.94,109.79,301.89Zm-.41-12.5a1.77,1.77,0,0,1-1.49-1.92c0-1.23.92-2.26,2-1.91.69.23,1.19,1,1.54,1.35C111.33,288.57,110.39,289.56,109.38,289.39Zm.38-14.27c-.47,0-1-.7-1.32-1.21-.09-.16.53-1,.88-1.06.53-.06,1.11.31,2.21.68C110.66,274.36,110.2,275.13,109.76,275.12Zm-.71-39.5a2.17,2.17,0,0,1-2-2.14,2.49,2.49,0,0,1,2.64-2.67,2.22,2.22,0,0,1,2,2.1A2.71,2.71,0,0,1,109.05,235.62Zm7.63,74.26c-1.07.46-2.63-.92-2.39-2.11a3.1,3.1,0,0,1,1.48-1.93c1.1-.52,2.57.59,2.77,2.27C118.07,308.58,117.5,309.53,116.68,309.88Zm1.67,11.62a5.84,5.84,0,0,1-1.42,1.52c-1.48-.11-2.43-1.3-2.11-2.25s.78-1.59,1.87-1.48S118.74,320.65,118.35,321.5Zm-1.66-25.26a2,2,0,0,1-2.64-1.8,2.28,2.28,0,0,1,1.74-2.31c1.32-.25,2.52.59,2.76,2.38A7.26,7.26,0,0,1,116.69,296.24Zm-.5-44.76c.74,1,1.52,1.52,1.63,2.2.15.94-.67,1.59-1.62,1.59a1.46,1.46,0,0,1-1.61-1.6C114.7,253,115.46,252.43,116.19,251.48Zm-.2-13a1.76,1.76,0,0,1,1.87,1.54,1.81,1.81,0,0,1-1.79,2,7.39,7.39,0,0,1-1.37-1.66A1.44,1.44,0,0,1,116,238.45Zm.31,30.4a1.45,1.45,0,0,1-1.65-1.6c.11-.71.8-1.33,1.48-2.36.77,1,1.5,1.54,1.68,2.24C118.08,268.16,117.19,268.8,116.3,268.85Zm-.08,9.13a12.59,12.59,0,0,1,2,2.73c.3.83-1.2,2.15-2.08,2.09s-2.36-1.4-2.07-2.15A12.79,12.79,0,0,1,116.22,278Zm.1-53.79a2.77,2.77,0,0,1,2.17,2.64,2.47,2.47,0,0,1-2.58,2.11,2.62,2.62,0,0,1-2.18-2.58A2.67,2.67,0,0,1,116.32,224.19Zm-.38,113.41a2.68,2.68,0,0,1-2.65-2.77,3,3,0,0,1,2.91-2.62,2.86,2.86,0,0,1,2.68,2.81A2.94,2.94,0,0,1,115.94,337.6Zm7.14-61.7c-1,.34-2.12-.73-2.17-1.81-.06-1.32,1.17-2.7,2.32-2.31.85.29,1.49,1.2,2.6,2.15A12.25,12.25,0,0,1,123.08,275.9Zm2.42,11.74a2.42,2.42,0,0,1-2.6,2,2.13,2.13,0,0,1-2-2.06,2.07,2.07,0,0,1,2.28-2.23A2.14,2.14,0,0,1,125.5,287.64ZM123,248.33c-.35.1-1.18-.68-1.44-1.23-.35-.75.57-1.82,1.51-1.72.57.07,1.09.57,2.09,1.14C124.13,247.39,123.62,248.14,123,248.33ZM124.59,259c-.36,2.33-1,3.37-1.88,2.92a2.33,2.33,0,0,1-1.54-2.47C121.32,258.36,122.35,258.23,124.59,259Zm-2.3-24.11L121,231.61l3.24-1.36C124.6,233.31,124.6,233.31,122.29,234.88Zm-1.74-16.3a2.35,2.35,0,0,1,2.51-1.53,2.7,2.7,0,0,1,2.25,3.09,2.46,2.46,0,0,1-2.86,1.76A2.73,2.73,0,0,1,120.55,218.58Zm3.59,84.95c-1.84.17-3.39-1.07-3.29-2.65a2.32,2.32,0,0,1,2.49-2.25,2.45,2.45,0,0,1,2.67,2.05C126.13,302,125.22,303.43,124.14,303.53ZM129.7,242a3.43,3.43,0,0,1-1.68-1.68c-.34-.82.87-2,1.91-2a2,2,0,0,1,1.89,2C131.75,241.42,130.65,242.42,129.7,242Zm-.13-32a2.9,2.9,0,0,1,2.55,2.94,2.18,2.18,0,0,1-2.55,2.09,2.51,2.51,0,0,1-2.56-2.23A2.58,2.58,0,0,1,129.57,210.07Zm-3.06,16.69a3,3,0,0,1,3.22-2.78c2,.2,3.47,1.82,3.22,3.45a3.3,3.3,0,0,1-3.57,2.45A3,3,0,0,1,126.51,226.76Z"/><path class="cls-2" d="M15,304.85l0,0v-.05A.18.18,0,0,1,15,304.85Z"/><path class="cls-2" d="M23.47,296.34c0,.06,0,.11,0,.17l.15-.05a.78.78,0,0,0,.05-.14Z"/><path class="cls-2" d="M58.12,283.4l-.12.12h.2l0-.18Z"/><path class="cls-2" d="M138.87,195l.08.11h0Z"/><path class="cls-2" d="M364.11,13.91a11.1,11.1,0,0,0-8.36.05,11.5,11.5,0,0,1,.73,2.85c0,2.07-.77,2.83-2.72,3-1.32.13-2.65.15-4,.21l0,6.32c2,.06,4.13.66,6.22-.44.38-1.89.76-3.76,1.16-5.72l6.94-.62A6.28,6.28,0,0,1,364.11,13.91Z"/><path class="cls-2" d="M364.3,19.58h0l-.19,0,.05.12.13-.13Z"/><path class="cls-2" d="M349.78,20.05v-.12l-.15.13Z"/><path class="cls-2" d="M355.69,14l.06,0v0Z"/><path class="cls-2" d="M349.8,26.57v-.2h-.19Z"/><path class="cls-2" d="M364.14,13.84l0,.07.13,0Z"/><path class="cls-2" d="M146.66,287c-.13-2.1-1.06-2.89-3.09-2.75-1.81.13-2.7,1.09-3,3.19-.24,1.76.31,3.19,1.9,3.28,2.32.12,3.31,1.81,4.77,3.39l3.15-2.88-4-1.77A16.87,16.87,0,0,0,146.66,287Z"/><path class="cls-2" d="M336.8,26.76H337l-.19-.19Z"/><path class="cls-2" d="M329.88,27.09a6.79,6.79,0,0,0,.54,5.88c1.78.27,3.67.85,5.58-.5.27-2,.54-3.83.8-5.71C334.56,26.69,332.3,26.19,329.88,27.09Z"/><path class="cls-2" d="M367.71,6.33a5.22,5.22,0,0,0-3.87.64,11.32,11.32,0,0,0,.35,6.85l3.52-.79Z"/><path class="cls-2" d="M364.13,13.83l.11.12s0-.09-.05-.13Z"/><path class="cls-2" d="M282.71,122.14s0,.07,0,.1l.14,0Z"/><path class="cls-2" d="M280.81,128.89l.09-.06h-.06Z"/><path class="cls-2" d="M282.69,122.24a14.57,14.57,0,0,0-2.47-.6c-4.4-.37-5.44.86-4.56,5.37.06.33.37.61.56.9l4.62.91c.45-1.24,1-2.46,1.32-3.72A24.84,24.84,0,0,0,282.69,122.24Z"/><path class="cls-2" d="M295.47,121.89l.12.12v-.14Z"/><path class="cls-2" d="M302.26,117.25c-.1-1.87-1.12-2.58-3.28-2.6s-3.14.7-3.28,2.59c-.11,1.54-.08,3.09-.11,4.63l6.31-.79A25.3,25.3,0,0,0,302.26,117.25Z"/><path class="cls-2" d="M366.31,33.39c-2.09.08-2.71.84-2.79,3-.1,2.93.73,3.82,3.7,3.78l.49-.05V33.48A8.64,8.64,0,0,0,366.31,33.39Z"/><path class="cls-2" d="M362.63,27.1a6.68,6.68,0,0,0-5.16-.06,4.5,4.5,0,0,0-.6,4.44,2.89,2.89,0,0,0,1.81,1.62c1.49.25,3.19.76,4.55-1.08C363.33,30.51,364,28.77,362.63,27.1Z"/><path class="cls-2" d="M339.88,33.39a15.29,15.29,0,0,0-3.1.64,19.48,19.48,0,0,0-.34,2.8c0,2.58,1.12,3.56,3.59,3.38,2.12-.16,3.1-1.28,3.07-3.53S342.16,33.38,339.88,33.39Z"/><path class="cls-2" d="M169.65,162.17a3,3,0,0,0-2.7,3.33c.05,1.82,1.17,3.22,2.85,3.2a41.38,41.38,0,0,0,4.57-.47c-.35-1.82-.69-3.64-1.06-5.69A21.63,21.63,0,0,0,169.65,162.17Z"/><path class="cls-2" d="M174.55,168.2l-.18,0,0,.11h0Z"/><path class="cls-2" d="M174.4,168.33h0l.15-.13Z"/><path class="cls-2" d="M282.83,122.28l0-.18-.1,0h0Z"/><path class="cls-2" d="M288.89,117.56a9.74,9.74,0,0,0-.31-1.93,4.7,4.7,0,0,0-1-.69,4.92,4.92,0,0,0-1.56-.27c-2.59,0-3.73,1-3.72,3.41a29.13,29.13,0,0,0,.53,4c.8-.19,1.59-.43,2.4-.55C288.39,121.09,288.88,120.61,288.89,117.56Z"/><path class="cls-2" d="M282.71,122.14h0l.12.14Z"/><path class="cls-2" d="M332.48,101.17c2.44.07,3.69-.82,3.84-2.76.2-2.41-1.05-3.87-3.33-3.9s-3.51,1.18-3.49,3.71C329.51,100.23,330.4,101.1,332.48,101.17Z"/><path class="cls-2" d="M356.5,36.85a19,19,0,0,0-.35-2.38,4.29,4.29,0,0,0-4.2-1,2.27,2.27,0,0,0-2,2.15c-.09,1.4-.45,3,1,3.91a4.14,4.14,0,0,0,4.54.14C356.54,39.06,356.54,37.91,356.5,36.85Z"/><path class="cls-2" d="M231.52,121.52c2.27,0,3.19-1,3.2-3.33s-1.31-3.6-3.69-3.51a3,3,0,0,0-3,3.14C228,120.33,229.06,121.52,231.52,121.52Z"/><path class="cls-2" d="M169.81,155.32a23.42,23.42,0,0,0,3.31-.21,15.27,15.27,0,0,0,.62-3.11c-.08-2.52-1.58-3.6-4.32-3.32-1.8.18-2.75,1.77-2.37,4A2.74,2.74,0,0,0,169.81,155.32Z"/><path class="cls-2" d="M245.64,114.73c-2.32-.31-3.9.76-4.12,3a16,16,0,0,0,.33,3.18l5.61,1.28c.21-1.7.53-3.4.57-5.1C248.05,115.73,247.06,114.92,245.64,114.73Z"/><path class="cls-2" d="M247.44,122.33a1,1,0,0,1,.1-.11l-.08,0A.51.51,0,0,0,247.44,122.33Z"/><path class="cls-2" d="M272.69,114.69a4.39,4.39,0,0,0-4.11,1.68c.07,1.29.14,2.85.21,4.23,2,1.28,3.7,1.14,6,.21.17-.82.37-1.51.46-2.21a6.68,6.68,0,0,0,0-1.61A2.34,2.34,0,0,0,272.69,114.69Z"/><path class="cls-2" d="M339.75,94.41c2.18.12,3.29-.91,3.35-3.11.07-2.37-1.22-3.74-3.46-3.69a3.08,3.08,0,0,0-3.17,2.9C336.29,92.89,337.47,94.28,339.75,94.41Z"/><path class="cls-2" d="M242.38,93.67A4.64,4.64,0,0,0,247,94c1.08-.63,1.17-1.73,1.17-2.82,0-.88-.1-1.76-.2-3.27a29.93,29.93,0,0,0-4.1-.2,2.27,2.27,0,0,0-2.25,1.94C241.39,91.07,241.12,92.55,242.38,93.67Z"/><path class="cls-2" d="M181.14,143.15l-.08-.12,0,.08Z"/><path class="cls-2" d="M173.88,145.38c.12,2.52,1.18,3.46,3.78,3.15a13,13,0,0,0,2.43-.75c.34-1.66.65-3.17.95-4.67a13,13,0,0,0-3.28-1.3C175,141.43,173.75,142.65,173.88,145.38Z"/><path class="cls-2" d="M251.09,87.48c2.68.09,3.86-.88,4-3.26s-.94-3.42-3.13-3.41c-2.47,0-3.64,1.15-3.71,3.59C248.16,86.46,249.05,87.41,251.09,87.48Z"/><path class="cls-2" d="M366.07,60.5a12.11,12.11,0,0,0-2.2.7c-.09,1.25-.2,2.45-.24,3.66a2.05,2.05,0,0,0,.31,1,2.91,2.91,0,0,0,3.17,1.43l.6-.08V60.49A6.93,6.93,0,0,0,366.07,60.5Z"/><path class="cls-2" d="M279.28,74.07c1.92,0,2.87-1,2.87-3.06,0-2.42-1.22-3.6-3.68-3.61-2.07,0-3.07.88-3.16,2.82C275.18,72.86,276.4,74,279.28,74.07Z"/><path class="cls-2" d="M364.17,19.71h.07a.84.84,0,0,1,.06-.14Z"/><path class="cls-2" d="M364.24,19.72a6.46,6.46,0,0,0,.27,6.69h3.2V20Z"/><path class="cls-2" d="M364.3,19.58h0l-.13.13Z"/><path class="cls-2" d="M276,114a6.42,6.42,0,0,0,5.47,0c.82-1.79,1.22-3.64-.37-5.28-1-1-3.45-1.22-4.44-.34C275,109.87,275,111.71,276,114Z"/><path class="cls-2" d="M138.88,195l.07.08,0,0Z"/><path class="cls-2" d="M144,195.64a3.26,3.26,0,0,0,2.59-3.48,3.33,3.33,0,0,0-3.21-2.93,3.1,3.1,0,0,0-3.52,2.47c-.3,1.13.32,2.5-.9,3.37A6.81,6.81,0,0,0,144,195.64Z"/><path class="cls-2" d="M363.33,42.37A2.23,2.23,0,0,0,362.6,41a4.56,4.56,0,0,0-4.58-.32c-1.3.57-1.46,1.9-1.41,3.2a2.79,2.79,0,0,0,2.48,3,20.6,20.6,0,0,0,3.47-.15A5.21,5.21,0,0,0,363.33,42.37Z"/><path class="cls-2" d="M327.4,40.11a2.38,2.38,0,0,0,1.59-1.2c1.09-3.9.22-6-3.58-5.51a22.44,22.44,0,0,0-2.63.7,21.58,21.58,0,0,0,0,2.94C323.17,39.48,324.93,40.67,327.4,40.11Z"/><path class="cls-2" d="M343.5,32.9c2.18.32,4.17,1,6.11-.85V26.57h-6.3A18.2,18.2,0,0,0,343.5,32.9Z"/><path class="cls-2" d="M343.15,26.56h.16c0-.06,0-.12,0-.17Z"/><path class="cls-2" d="M349.61,26.57h.19l-.19-.21Z"/><path class="cls-2" d="M241.1,122.08a9.61,9.61,0,0,0-5.85-.11,7.7,7.7,0,0,0-.44,1.69c0,1.56.06,3.11.1,4.67h6.36A19.29,19.29,0,0,0,241.1,122.08Z"/><path class="cls-2" d="M234.91,128.33h-.13l.07.06.07.07A.62.62,0,0,1,234.91,128.33Z"/><path class="cls-2" d="M241.4,128.32h-.13a.53.53,0,0,1,0,.13Z"/><path class="cls-2" d="M258.82,80.73a21.15,21.15,0,0,0,2.67-.43c.26-2.27.92-4.15-.64-5.88-1.79-.36-3.54-.75-5.3.62-.42,1.81-1,3.69.65,5.51C257.05,80.61,257.93,80.75,258.82,80.73Z"/><path class="cls-2" d="M305.88,114.58c2.18,0,3.38-1.16,3.33-3.22a3.3,3.3,0,0,0-3.3-3.44c-2.37-.12-3.59,1.14-3.51,3.61C302.47,113.7,303.47,114.58,305.88,114.58Z"/><path class="cls-2" d="M258.35,87.56c-2.21,0-3.23,1-3.21,3.27s1.15,3.54,3.07,3.55a3.39,3.39,0,0,0,3.59-3.71C261.77,88.59,260.66,87.59,258.35,87.56Z"/><path class="cls-2" d="M226.92,114.25c1.23-3.41,1.15-5.17-.31-5.9a3.76,3.76,0,0,0-4.05.24,3.57,3.57,0,0,0-1.15,4.33C222.71,115.6,225,114.46,226.92,114.25Z"/><path class="cls-2" d="M340.7,19.92c-3.77.14-4.48.94-4.22,4.84a7.92,7.92,0,0,0,.47,1.81l6.2-.18V20.05A22.21,22.21,0,0,0,340.7,19.92Z"/><path class="cls-2" d="M336.82,26.58h0l.19.19-.06-.2h-.13Z"/><path class="cls-2" d="M343.15,19.92v.13h.16Z"/><path class="cls-2" d="M343.15,26.39v.17l.17-.17Z"/><path class="cls-2" d="M336.82,26.58l.19.19-.19-.19Z"/><path class="cls-2" d="M364.34,47.58a4.8,4.8,0,0,0-.57,1,6.11,6.11,0,0,0-.23,1.59c0,2.72.86,3.53,3.57,3.44l.6,0V47A5.16,5.16,0,0,0,364.34,47.58Z"/><path class="cls-2" d="M176.3,128.55c-1.62.22-2.49,1.78-2.37,3.66a2.61,2.61,0,0,0,2.78,2.66c1.35.06,2.71-.1,4.06-.17-.2-1.85-.41-3.71-.64-5.82A18,18,0,0,0,176.3,128.55Z"/><path class="cls-2" d="M180.77,134.7l0,.15.15-.13,0,0Z"/><path class="cls-2" d="M180.94,134.72l0,0Z"/><path class="cls-2" d="M189.7,134.89a28.85,28.85,0,0,0,3.64-.31c.78-2.2.9-4-.28-5.79a7,7,0,0,0-5.54.13,29.52,29.52,0,0,0-.18,3.63A2.17,2.17,0,0,0,189.7,134.89Z"/><path class="cls-2" d="M285.51,67.26a3.28,3.28,0,0,0,3.39-3.37,3.14,3.14,0,0,0-3.3-3.4,3,3,0,0,0-3.33,3.32C282.29,65.92,283.66,67.38,285.51,67.26Z"/><path class="cls-2" d="M363.93,75.63c-1.34,2.8-.05,5.08,2.95,5.11.28,0,.55,0,.83,0V74.16C365.93,73.94,364.49,74.49,363.93,75.63Z"/><path class="cls-2" d="M345.92,40.34c-2,.11-2.76,1-2.74,3.14s1,3.37,3.15,3.47,3.26-.86,3.43-3.13a25.47,25.47,0,0,0-.24-3.15A26.37,26.37,0,0,0,345.92,40.34Z"/><path class="cls-2" d="M265.48,87.47c2.22,0,3-1,3-3.49,0-2.25-.75-3.13-2.69-3.17-2.9,0-4,1-3.94,3.8C261.94,86.76,262.9,87.53,265.48,87.47Z"/><path class="cls-2" d="M346.37,87.46a25.84,25.84,0,0,0,3.29-.3,38.81,38.81,0,0,0,0-4.1A2.55,2.55,0,0,0,347.49,81a3.25,3.25,0,0,0-4.3,2.76C342.86,86.25,343.73,87.31,346.37,87.46Z"/><path class="cls-2" d="M359.91,67.4a3,3,0,0,0-3.27,3.36,3.3,3.3,0,0,0,3.52,3.29,3.16,3.16,0,0,0,3.26-3.48C363.41,68.52,362.15,67.38,359.91,67.4Z"/><path class="cls-2" d="M162.33,175.33a3.13,3.13,0,0,0,4.43-2.35c.4-2.77-1.07-4.2-4.65-4-.32.28-1.2.7-1.54,1.39A3.75,3.75,0,0,0,162.33,175.33Z"/><path class="cls-2" d="M360.21,53.73c-2.25-.11-3.63,1.28-3.61,3.63,0,2.11,1.09,3,3.51,3s3.35-1,3.32-3.19S362.27,53.83,360.21,53.73Z"/><path class="cls-2" d="M231,94.38a3.38,3.38,0,0,0,3.68-3.59,3.15,3.15,0,0,0-3.48-3.18,3.29,3.29,0,0,0-3.1,3.58A3.08,3.08,0,0,0,231,94.38Z"/><path class="cls-2" d="M326.2,87.63A3.47,3.47,0,0,0,322.76,91a3.3,3.3,0,0,0,3.43,3.35c2.05.1,3.21-1.11,3.22-3.35S328.3,87.56,326.2,87.63Z"/><path class="cls-2" d="M198.11,128.24c1.8-.09,2.82-1.35,2.67-3.29a3.39,3.39,0,0,0-4-3.28A3,3,0,0,0,194,125C194.15,127.17,195.65,128.35,198.11,128.24Z"/><path class="cls-2" d="M238.22,101.16c2.22.09,3.18-.9,3.17-3.26s-.84-3.36-3.07-3.4c-2.46,0-3.49.8-3.54,2.92C234.72,100,235.74,101.06,238.22,101.16Z"/><path class="cls-2" d="M251.64,101.15A3.38,3.38,0,0,0,255,97.31c-.11-1.86-1.44-2.86-3.72-2.81-2,0-3.15,1.3-3,3.42A3.14,3.14,0,0,0,251.64,101.15Z"/><path class="cls-2" d="M305.65,101.14A3.2,3.2,0,0,0,309.2,98,3.1,3.1,0,0,0,306,94.51c-2.17-.09-3.48,1-3.55,3.08A3.26,3.26,0,0,0,305.65,101.14Z"/><path class="cls-2" d="M244.61,101.23c-2.29,0-3.23,1-3.14,3.28.09,2.48,1.24,3.5,3.74,3.33,2.11-.14,3-1.28,2.91-3.58C248,102.13,247,101.22,244.61,101.23Z"/><path class="cls-2" d="M272,101.25a3.2,3.2,0,0,0-3.38,3.31,3.23,3.23,0,0,0,3.44,3.26q3.27.06,3.18-3.31C275.15,102.21,274.09,101.15,272,101.25Z"/><path class="cls-2" d="M353.1,60.49A3.2,3.2,0,0,0,349.88,64a3.53,3.53,0,0,0,3.65,3.25c1.9.1,3-1.23,3-3.62A2.9,2.9,0,0,0,353.1,60.49Z"/><path class="cls-2" d="M282.52,106.13c.48,1.42,1.66,1.8,3,1.71.87,0,1.72-.2,2.39-.28a4.69,4.69,0,0,0,.74-4.38,3.06,3.06,0,0,0-1.33-1.58,3.5,3.5,0,0,0-4,.52A3.73,3.73,0,0,0,282.52,106.13Z"/><path class="cls-2" d="M333.16,40.34a12.88,12.88,0,0,0-2.52.27,9.8,9.8,0,0,0-.84,1.55,4,4,0,0,0-.23,1.56A3.22,3.22,0,0,0,333,47c2.2,0,3.34-1.36,3.31-3.91C336.32,41.25,335.5,40.48,333.16,40.34Z"/><path class="cls-2" d="M299.28,107.84c2.13-.1,3.09-1.2,3-3.46s-1.11-3.26-3.3-3.14c-2.41.13-3.5,1.36-3.34,3.77C295.8,107.06,296.94,108,299.28,107.84Z"/><path class="cls-2" d="M251.58,114.58c2.26,0,3.51-1.17,3.44-3.12-.09-2.33-1.51-3.69-3.69-3.53s-3.08,1.34-3.11,3.53S249.32,114.62,251.58,114.58Z"/><path class="cls-2" d="M261.9,111c-.16,2.28.68,3.34,3,3.54a23.37,23.37,0,0,0,3.26-.21,27.86,27.86,0,0,0,.36-3.5c-.07-2-1.1-2.87-3-2.92C263.24,107.87,262,108.91,261.9,111Z"/><path class="cls-2" d="M292.2,114.57a2.72,2.72,0,0,0,1.55-.18,5,5,0,0,0,1.71-1.79,4.24,4.24,0,0,0,.09-2.08c-.12-1.75-.93-2.51-2.69-2.6-2.72-.14-3.77.83-3.88,3.69a22,22,0,0,0,.25,2.59C290.5,114.37,291.35,114.52,292.2,114.57Z"/><path class="cls-2" d="M319.5,114.57c.86,0,1.72-.22,2.95-.39.11-1.28.19-2,.24-2.7,0-.36,0-.72-.05-1.07a2.46,2.46,0,0,0-1.94-2.29,3.66,3.66,0,0,0-4,.85,4.38,4.38,0,0,0-.34,4.11C316.91,114.56,318.23,114.62,319.5,114.57Z"/><path class="cls-2" d="M353.44,74.15a3.13,3.13,0,0,0-3.58,3.58,2.88,2.88,0,0,0,3,3c2.3,0,3.58-1.25,3.59-3.63C356.49,75.29,355.42,74.25,353.44,74.15Z"/><path class="cls-2" d="M305.83,60.34A3.35,3.35,0,0,0,309.2,57a3.11,3.11,0,0,0-2.88-3.22,3.25,3.25,0,0,0-3.87,3.33A3.12,3.12,0,0,0,305.83,60.34Z"/><path class="cls-2" d="M299.29,67.25a3.1,3.1,0,0,0,3-3.63,3.17,3.17,0,0,0-3.51-3.13,3.28,3.28,0,0,0-3.06,3.61A3.44,3.44,0,0,0,299.29,67.25Z"/><path class="cls-2" d="M271.82,80.73c2.24,0,3.34-1.09,3.39-3.28s-.82-3.2-2.66-3.3c-2.57-.15-3.83.89-4,3.26C268.44,79.58,269.59,80.76,271.82,80.73Z"/><path class="cls-2" d="M116.7,209.55c1.88,0,2.79-1,2.87-3.09s-1-3.31-3.23-3.44a2.9,2.9,0,0,0-3.25,2.81A3.35,3.35,0,0,0,116.7,209.55Z"/><path class="cls-2" d="M319.25,46.93c2.14.06,3.48-1.43,3.42-3.8-.05-1.91-1.41-2.94-3.69-2.82a2.83,2.83,0,0,0-2.88,3.11A3.19,3.19,0,0,0,319.25,46.93Z"/><path class="cls-2" d="M339.5,47c-2.22,0-3.16,1-3.06,3.4.09,2.16,1.29,3.27,3.42,3.15a3.08,3.08,0,0,0,3.21-3.45C343,48.09,341.73,47,339.5,47Z"/><path class="cls-2" d="M353.12,53.61c2.09.15,3.35-1,3.37-3.23s-.93-3.26-3.22-3.35-3.27.83-3.41,3.15C349.75,52.21,350.93,53.45,353.12,53.61Z"/><path class="cls-2" d="M161.57,161.47a6.7,6.7,0,0,0,4.09.11c1.13-.27,1.24-1.62,1.13-2.71a25.31,25.31,0,0,0-.56-2.78c-1.84-.66-3.17-.76-4.54,0C159.43,157.36,160.05,160.76,161.57,161.47Z"/><path class="cls-2" d="M313.68,60.54a3.51,3.51,0,0,0-4.27,3A2.9,2.9,0,0,0,311.94,67a3.27,3.27,0,0,0,4-2.62C316.13,62.77,315,60.79,313.68,60.54Z"/><path class="cls-2" d="M265.19,94.52c-2.18,0-3.4,1.16-3.28,3.18s1.41,3.43,3.25,3.4a3.18,3.18,0,0,0,3.31-3.31A3,3,0,0,0,265.19,94.52Z"/><path class="cls-2" d="M278.57,101.15A3.3,3.3,0,0,0,282.1,98a3.13,3.13,0,0,0-3.2-3.44,3.3,3.3,0,0,0-3.53,3.19A3.13,3.13,0,0,0,278.57,101.15Z"/><path class="cls-2" d="M291.73,101.14c2.39.16,3.79-1.07,3.84-3.39,0-2-.88-3.12-2.75-3.24-2.46-.15-3.75,1-3.84,3.39C288.91,99.88,289.87,101,291.73,101.14Z"/><path class="cls-2" d="M319.49,101.15c2.24-.05,3.28-1.15,3.19-3.37a3.06,3.06,0,0,0-3.41-3.25c-2.14,0-3.23,1.19-3.19,3.42S317.25,101.21,319.49,101.15Z"/><path class="cls-2" d="M231.09,107.84c2.46.19,3.51-.59,3.62-2.68.14-2.64-.79-3.8-3.11-3.91a3.31,3.31,0,0,0-.51,6.59Z"/><path class="cls-2" d="M239.65,87.25a1.84,1.84,0,0,0,1.29-.85,4.39,4.39,0,0,0,0-4.12,3.15,3.15,0,0,0-3.26-1.37,3.2,3.2,0,0,0-2.83,2.82A23.4,23.4,0,0,0,235,87.1C236.88,87.18,238.27,87.31,239.65,87.25Z"/><path class="cls-2" d="M312.67,94.34A3.39,3.39,0,0,0,316,90.82a3.5,3.5,0,0,0-3.64-3.2,3.37,3.37,0,0,0-2.9,3.85A3,3,0,0,0,312.67,94.34Z"/><path class="cls-2" d="M264.53,74.05c2.77.16,3.87-.72,4-3.16.07-1.91-.71-3.25-1.95-3.38-2.4-.25-4.55,1.29-4.66,3.32C261.77,73,262.52,73.93,264.53,74.05Z"/><path class="cls-2" d="M312.43,107.83c2.09.09,3.34-.81,3.53-2.5.28-2.49-.81-3.93-3.09-4.1s-3.27.64-3.48,2.47C309.11,106.26,310.2,107.74,312.43,107.83Z"/><path class="cls-2" d="M322.77,104.5c-.08,2.1,1.12,3.31,3.3,3.34s3.27-1,3.33-3.3-1-3.34-3.21-3.31S322.85,102.37,322.77,104.5Z"/><path class="cls-2" d="M329.57,85c.19,1.73,1.82,2.73,4,2.48A3.14,3.14,0,0,0,336.22,84a3.23,3.23,0,0,0-3.53-3.18A3.45,3.45,0,0,0,329.57,85Z"/><path class="cls-2" d="M136.73,189.14a14.76,14.76,0,0,0,2.2-.3,17.91,17.91,0,0,0,.67-2,4.05,4.05,0,0,0,0-1.59c-.29-1.62-1.59-2.56-3.53-2.65-1.53-.08-2.5.82-2.83,2.6C132.77,187.75,133.93,189.09,136.73,189.14Z"/><path class="cls-2" d="M272.07,94.35a3.27,3.27,0,0,0,3.1-3.6,3.09,3.09,0,0,0-3.47-3.16,3.17,3.17,0,0,0-3.11,3.56A3.22,3.22,0,0,0,272.07,94.35Z"/><path class="cls-2" d="M343.19,70.57A3.36,3.36,0,0,0,347,74a2.85,2.85,0,0,0,2.78-3.19c0-2.21-1.1-3.39-3.15-3.43S343.18,68.57,343.19,70.57Z"/><path class="cls-2" d="M299.22,94.36a3.15,3.15,0,0,0,3.07-3.12,3.31,3.31,0,1,0-6.61-.19A3.45,3.45,0,0,0,299.22,94.36Z"/><path class="cls-2" d="M306,74a3.61,3.61,0,0,0,3.08-3.2,3.28,3.28,0,0,0-6.56-.17A3.61,3.61,0,0,0,306,74Z"/><path class="cls-2" d="M326.6,67.21a3.24,3.24,0,0,0,2.74-3.37,3.4,3.4,0,0,0-3.43-3.32,3.48,3.48,0,0,0-3,3.7A3.44,3.44,0,0,0,326.6,67.21Z"/><path class="cls-2" d="M312.32,53.64c2.16.08,3.54-1,3.65-3A3.21,3.21,0,0,0,313,47c-2.13-.13-3.49,1-3.6,3C309.26,52.22,310.35,53.56,312.32,53.64Z"/><path class="cls-2" d="M326.18,47.05a3.07,3.07,0,0,0-3.4,3.3,3.16,3.16,0,0,0,3.48,3.27c1.93-.06,3.15-1.48,3.11-3.64A3,3,0,0,0,326.18,47.05Z"/><path class="cls-2" d="M292,60.34a3,3,0,0,0,3.54-3c.15-2.14-1.3-3.58-3.59-3.57a3.07,3.07,0,0,0-3,3.1A3,3,0,0,0,292,60.34Z"/><path class="cls-2" d="M336.47,77.64a3.3,3.3,0,1,0,3.21-3.5A3.08,3.08,0,0,0,336.47,77.64Z"/><path class="cls-2" d="M319.21,53.75a3.24,3.24,0,0,0-3.08,3.61,3.21,3.21,0,0,0,3.21,3A3.15,3.15,0,0,0,322.67,57,3.19,3.19,0,0,0,319.21,53.75Z"/><path class="cls-2" d="M326.49,80.73a3,3,0,0,0,2.88-3.27,3.12,3.12,0,0,0-3.4-3.32,3.15,3.15,0,0,0-3.19,3.52C322.81,79.48,324.39,80.78,326.49,80.73Z"/><path class="cls-2" d="M333,53.72a3.14,3.14,0,0,0-3.32,3.45,3.25,3.25,0,0,0,3.6,3.16,3,3,0,0,0,3-3.13A3.31,3.31,0,0,0,333,53.72Z"/><path class="cls-2" d="M346.57,53.73A3.21,3.21,0,0,0,343.2,57a3.29,3.29,0,1,0,6.57,0A3,3,0,0,0,346.57,53.73Z"/><path class="cls-2" d="M312.34,74.25a3,3,0,0,0-2.86,3.26c.06,2,1.2,3.22,2.89,3.21a3.31,3.31,0,0,0,3.57-3.23A3.38,3.38,0,0,0,312.34,74.25Z"/><path class="cls-2" d="M292.36,67.44A3,3,0,0,0,289,70.21a3.34,3.34,0,0,0,3,3.8,3.26,3.26,0,0,0,3.6-3.08A3.14,3.14,0,0,0,292.36,67.44Z"/><path class="cls-2" d="M258.41,101.29a3.39,3.39,0,0,0-3.21,3.57c.07,1.92,1.56,3.13,3.66,3a3,3,0,0,0,2.91-3.16A3.26,3.26,0,0,0,258.41,101.29Z"/><path class="cls-2" d="M285,80.67a3.54,3.54,0,0,0,3.84-3.61c0-1.64-1.21-2.76-3.22-2.9-2.22-.15-3.35.91-3.37,3.16C282.25,79.28,283.29,80.55,285,80.67Z"/><path class="cls-2" d="M184.28,128.25c1.9,0,2.87-.94,2.92-2.91.07-2.27-.91-3.46-2.92-3.59a3.25,3.25,0,0,0-3.63,3.55C180.64,127.07,182.06,128.22,184.28,128.25Z"/><path class="cls-2" d="M238.47,107.91c-2.48,0-3.74,1.18-3.68,3.55a2.92,2.92,0,0,0,3,3.09c2.35.09,3.6-1.18,3.59-3.64C241.39,108.86,240.5,108,238.47,107.91Z"/><path class="cls-2" d="M339.69,60.51a3.38,3.38,0,0,0-3.2,3.63,3.15,3.15,0,0,0,3.09,3.1,3.37,3.37,0,1,0,.11-6.73Z"/><path class="cls-2" d="M279.24,87.42c1.71-.1,2.71-1.31,2.7-3.27a3.15,3.15,0,0,0-2.9-3.24A3.37,3.37,0,0,0,275.39,84,3.44,3.44,0,0,0,279.24,87.42Z"/><path class="cls-2" d="M305.86,87.45A3.27,3.27,0,0,0,309.15,84a3.15,3.15,0,0,0-3-3.12,3.55,3.55,0,0,0-3.6,3.78A3.14,3.14,0,0,0,305.86,87.45Z"/><path class="cls-2" d="M225,101.07a3.25,3.25,0,1,0-.64-6.46,3,3,0,0,0-3,3.14A3.64,3.64,0,0,0,225,101.07Z"/><path class="cls-2" d="M333,67.44a3.32,3.32,0,0,0-3.32,2.82A3.69,3.69,0,0,0,333.3,74a3.31,3.31,0,0,0,3-3.16A3.39,3.39,0,0,0,333,67.44Z"/><path class="cls-2" d="M191,121.46a3.27,3.27,0,0,0,2.89-3.76,2.91,2.91,0,0,0-3.2-2.78,3.28,3.28,0,0,0-3.29,3.4A3.43,3.43,0,0,0,191,121.46Z"/><path class="cls-2" d="M163.9,148.55a2.92,2.92,0,0,0,2.89-3.17c0-2-1.1-3.07-3.48-3.15a3,3,0,0,0-3,3C160.27,146.93,162,148.46,163.9,148.55Z"/><path class="cls-2" d="M316.14,84.7a3.29,3.29,0,0,0,6.52-.81,3.31,3.31,0,0,0-3.63-3A3.4,3.4,0,0,0,316.14,84.7Z"/><path class="cls-2" d="M170.54,141.61c2.15,0,3.32-1.14,3.21-3.23a3.34,3.34,0,0,0-3.47-3.21,3.09,3.09,0,0,0-2.92,3.12Q167.34,141.53,170.54,141.61Z"/><path class="cls-2" d="M183.64,114.46a3.34,3.34,0,0,0,3.43-2.75c.15-1.89-1.32-3.74-3-3.75a3.23,3.23,0,0,0-3.39,3.34A3,3,0,0,0,183.64,114.46Z"/><path class="cls-2" d="M197.76,114.44a3,3,0,0,0,2.79-3.28,3,3,0,0,0-3.14-3,3.15,3.15,0,1,0,.35,6.27Z"/><path class="cls-2" d="M288.87,91.3a3.33,3.33,0,0,0-3.19-3.51,3.26,3.26,0,0,0-3.35,3.31,3.2,3.2,0,0,0,2.89,3.23A3.39,3.39,0,0,0,288.87,91.3Z"/><path class="cls-2" d="M143.89,182.42c1.45,0,2.7-1.67,2.65-3.42a3.34,3.34,0,0,0-3.6-3.1A3.09,3.09,0,0,0,140,179,3.52,3.52,0,0,0,143.89,182.42Z"/><path class="cls-2" d="M301.24,52.9a3.46,3.46,0,0,0,.19-4.8,6.89,6.89,0,0,0-1.62-1c-1.87.47-3.28,1.24-3.9,2.87a2.72,2.72,0,0,0,.21,2A3.48,3.48,0,0,0,301.24,52.9Z"/><path class="cls-2" d="M95.44,216.17A3.5,3.5,0,0,0,99.05,213a3.14,3.14,0,0,0-2.84-3.21c-2.18,0-3.36,1.05-3.46,3.14C92.66,214.84,93.69,216.08,95.44,216.17Z"/><path class="cls-2" d="M157,168.73a2.94,2.94,0,0,0,3.1-3,3.22,3.22,0,1,0-6.43-.36A3.09,3.09,0,0,0,157,168.73Z"/><path class="cls-2" d="M137,175.42a3,3,0,0,0,2.67-3.38,2.75,2.75,0,0,0-3.07-2.89,3.4,3.4,0,0,0-3.4,3.39C133.19,174.21,135,175.59,137,175.42Z"/><path class="cls-2" d="M163.44,182.56a3.27,3.27,0,0,0-3.12,3.53,3.58,3.58,0,0,0,3.75,3,3.28,3.28,0,0,0-.63-6.51Z"/><path class="cls-2" d="M129.92,182.35a3.07,3.07,0,0,0,3-3.06,3.3,3.3,0,0,0-3.36-3.41,3,3,0,0,0-3.07,3A3.54,3.54,0,0,0,129.92,182.35Z"/><path class="cls-2" d="M68.72,243.12a3.17,3.17,0,0,0,3.33-2.78,3.43,3.43,0,0,0-3.34-3.42,3,3,0,0,0-2.91,3.14A2.82,2.82,0,0,0,68.72,243.12Z"/><path class="cls-2" d="M217.49,107.69a3.18,3.18,0,0,0,3.42-3.2,3.13,3.13,0,0,0-3.07-3,3.22,3.22,0,0,0-3.17,2.94A3.14,3.14,0,0,0,217.49,107.69Z"/><path class="cls-2" d="M299.3,74.18A3.24,3.24,0,0,0,295.94,77a3.37,3.37,0,0,0,3.19,3.6c1.65.06,2.86-1.22,3-3.15A3,3,0,0,0,299.3,74.18Z"/><path class="cls-2" d="M292.13,81a3.4,3.4,0,0,0-3.09,3.6,3.08,3.08,0,0,0,3.3,2.73,3.16,3.16,0,0,0,3.14-2.94A3.47,3.47,0,0,0,292.13,81Z"/><path class="cls-2" d="M177.3,121.08a2.94,2.94,0,0,0,3.08-3,3.28,3.28,0,0,0-3-3.15,3,3,0,0,0-3.28,3.33A2.93,2.93,0,0,0,177.3,121.08Z"/><path class="cls-2" d="M156.36,155.14A3.51,3.51,0,0,0,160,152a2.88,2.88,0,0,0-3-3.05c-2-.08-3.35,1-3.31,2.63A3.56,3.56,0,0,0,156.36,155.14Z"/><path class="cls-2" d="M143.53,168.68a3,3,0,0,0,2.79-3.3,3,3,0,0,0-3-3,3,3,0,0,0-3.08,3C140.39,167.56,141.69,168.86,143.53,168.68Z"/><path class="cls-2" d="M157.31,175.87a3.27,3.27,0,0,0-3.63,3,3.67,3.67,0,0,0,2.72,3.49,3.53,3.53,0,0,0,3.63-3.13A3.18,3.18,0,0,0,157.31,175.87Z"/><path class="cls-2" d="M149.64,189a3.85,3.85,0,0,0,3.68-3.19,3.2,3.2,0,0,0-2.94-3.16c-2.12-.18-3.52,1-3.5,3C146.91,187.46,148.17,189,149.64,189Z"/><path class="cls-2" d="M88.81,209.44c1.68,0,3.42-1.36,3.46-2.75a3.28,3.28,0,0,0-3.17-3.58,3.06,3.06,0,0,0-3.13,3A3.25,3.25,0,0,0,88.81,209.44Z"/><path class="cls-2" d="M102.87,209.26a3,3,0,0,0,2.9-3.19,3,3,0,0,0-3.23-2.88,3.15,3.15,0,0,0-2.92,3.21A3,3,0,0,0,102.87,209.26Z"/><path class="cls-2" d="M322.61,71a3.39,3.39,0,0,0-3.23-3.52,3.07,3.07,0,0,0-3.2,2.89A3.45,3.45,0,0,0,319.39,74,3.27,3.27,0,0,0,322.61,71Z"/><path class="cls-2" d="M211.17,101.05a3.48,3.48,0,0,0,3-3.77,2.93,2.93,0,0,0-3.35-2.65,3.11,3.11,0,0,0-3.06,3.07A3.43,3.43,0,0,0,211.17,101.05Z"/><path class="cls-2" d="M156.5,189.46a3.14,3.14,0,0,0-2.49,3.08,3.21,3.21,0,0,0,3.16,3,3.06,3.06,0,0,0,2.77-3.34A3.44,3.44,0,0,0,156.5,189.46Z"/><path class="cls-2" d="M49.26,263.73c1.62,0,2.52-1.08,2.45-2.85-.08-1.94-1.19-3.36-2.7-3.47a3.77,3.77,0,0,0-3.58,3.37C45.39,262.36,47.21,263.77,49.26,263.73Z"/><path class="cls-2" d="M122.92,189c1.42.19,3-1.31,3.16-3,.14-1.42-1.27-3-3-3.26-1.48-.24-3,1.19-3.09,3A3.31,3.31,0,0,0,122.92,189Z"/><path class="cls-2" d="M89.23,216.57a3,3,0,0,0-3.11,3,3,3,0,0,0,2.71,3.32,3,3,0,0,0,3.36-3.23A2.86,2.86,0,0,0,89.23,216.57Z"/><path class="cls-2" d="M149.85,161.93a3.54,3.54,0,0,0,3.38-2.78A3.43,3.43,0,0,0,150,155.7a3,3,0,0,0-3,3A3.2,3.2,0,0,0,149.85,161.93Z"/><path class="cls-2" d="M204.11,115.1a3,3,0,0,0-3,3.13,3.11,3.11,0,0,0,3,3.07,3.54,3.54,0,0,0,3.27-3.5A3.07,3.07,0,0,0,204.11,115.1Z"/><path class="cls-2" d="M207.9,111.16a3,3,0,0,0,3,3.15,2.92,2.92,0,0,0,3.23-2.83,3.26,3.26,0,0,0-3-3.24A3.13,3.13,0,0,0,207.9,111.16Z"/><path class="cls-2" d="M204.4,107.73a3.49,3.49,0,0,0,3-3.31,3.39,3.39,0,0,0-3.7-3.06,3.09,3.09,0,0,0-2.57,3.52A3.14,3.14,0,0,0,204.4,107.73Z"/><path class="cls-2" d="M143.69,263.54a3.18,3.18,0,0,0,2.82-3.22,3,3,0,0,0-3.13-2.88,3.14,3.14,0,0,0-2.86,3.2A3.29,3.29,0,0,0,143.69,263.54Z"/><path class="cls-2" d="M156.64,141.29c1.72,0,3.11-.92,3.21-2.2a3.26,3.26,0,0,0-2.6-3.46,3,3,0,0,0-3.44,3.09A2.71,2.71,0,0,0,156.64,141.29Z"/><path class="cls-2" d="M150.26,175.29a3.25,3.25,0,0,0,3.07-3,3.16,3.16,0,0,0-3.14-2.92,3,3,0,0,0-3.25,3.31A3,3,0,0,0,150.26,175.29Z"/><path class="cls-2" d="M170.29,127.88a2.94,2.94,0,0,0,3.17-2.86c0-1.83-1.22-3.35-2.7-3.31a3.12,3.12,0,0,0-3.2,3.44A2.87,2.87,0,0,0,170.29,127.88Z"/><path class="cls-2" d="M303.53,46.12a3.56,3.56,0,0,0,4.83-.34c1.3-1.26,1.12-2.76-.92-5.4-1.62,1.14-3,2-4.19,3A1.74,1.74,0,0,0,303.53,46.12Z"/><path class="cls-2" d="M156.72,209.47a3.65,3.65,0,0,0,3.33-3.53c0-1.64-1.23-2.76-3.2-2.81a2.84,2.84,0,0,0-3,3A3.2,3.2,0,0,0,156.72,209.47Z"/><path class="cls-2" d="M343.28,19.92h-.13l.16.14A.58.58,0,0,1,343.28,19.92Z"/><path class="cls-2" d="M349.25,14.08c-1.33.49-2.45.93-3.59,1.33-2.23.78-2.85,2.37-2.38,4.51h6.37A11.62,11.62,0,0,0,349.25,14.08Z"/><path class="cls-2" d="M349.78,19.93h-.13a.59.59,0,0,1,0,.13Z"/><polygon class="cls-2" points="349.63 20.06 349.63 20.06 349.78 19.93 349.63 20.06 349.63 20.06"/><path class="cls-2" d="M242.76,80.3c3,1.51,5.27.1,5.33-3.31a6,6,0,0,0-.46-1.6,5.33,5.33,0,0,0-5.36,1.68A2.06,2.06,0,0,0,242.76,80.3Z"/><path class="cls-2" d="M76,236.3a3,3,0,0,0,2.63-2.89,3.3,3.3,0,0,0-3.16-3,3,3,0,0,0-2.88,3.16A3.26,3.26,0,0,0,76,236.3Z"/><path class="cls-2" d="M55.3,256.91A2.91,2.91,0,0,0,58.36,254a3,3,0,0,0-3-3.07,3.1,3.1,0,0,0-3.14,2.87A3.34,3.34,0,0,0,55.3,256.91Z"/><path class="cls-2" d="M143.22,208.8a3,3,0,0,0,2.7-2.78c0-2.06-1.66-3.27-4.11-3a2.09,2.09,0,0,0-1.8,2.23C140.1,207.37,141.52,208.91,143.22,208.8Z"/><path class="cls-2" d="M163.92,134.82a3.18,3.18,0,0,0,2.62-3.42c-.15-1.3-1.72-2.89-2.77-2.8a3.6,3.6,0,0,0-2.9,3.27A3,3,0,0,0,163.92,134.82Z"/><path class="cls-2" d="M82.8,215.69a2.89,2.89,0,0,0,2.47-3c-.21-1.41-1.69-2.83-2.88-2.77a2.91,2.91,0,1,0,.41,5.8Z"/><path class="cls-2" d="M62.12,250A2.8,2.8,0,0,0,65,247.36a3.15,3.15,0,0,0-2.71-3.4,3,3,0,0,0-3.14,2.94A3,3,0,0,0,62.12,250Z"/><path class="cls-2" d="M150.08,148.24c1.47,0,3-1.65,2.91-3.31a2.93,2.93,0,0,0-2.94-2.62,3,3,0,0,0-2.94,2.65A3.4,3.4,0,0,0,150.08,148.24Z"/><path class="cls-2" d="M137.19,161.7c1.2-.12,2.29-1.68,2.24-3.2a2.81,2.81,0,1,0-5.6.5A3.26,3.26,0,0,0,137.19,161.7Z"/><path class="cls-2" d="M130.2,168.43a2.93,2.93,0,0,0,2.44-3,3,3,0,0,0-3.25-2.76,3.38,3.38,0,0,0-2.53,3A3.18,3.18,0,0,0,130.2,168.43Z"/><path class="cls-2" d="M116.68,189.76a2.81,2.81,0,0,0-3.25,2.73,3.4,3.4,0,0,0,3.1,3.14c1.33.09,2.48-1.2,2.56-2.88A2.65,2.65,0,0,0,116.68,189.76Z"/><path class="cls-2" d="M150.41,243.1c1.87-.17,3.17-1.59,2.89-3.16a2.86,2.86,0,0,0-2.88-2.62c-1.77.17-3.24,1.74-3,3.16A3.13,3.13,0,0,0,150.41,243.1Z"/><path class="cls-2" d="M116.28,182a2.64,2.64,0,0,0,2.66-2.73c.07-1.76-.85-2.88-2.41-2.92a3,3,0,0,0-3.12,2.37A3.1,3.1,0,0,0,116.28,182Z"/><path class="cls-2" d="M122.68,175.2a2.93,2.93,0,0,0,3.34-2.64,3.24,3.24,0,0,0-3-3.09,2.83,2.83,0,0,0-2.69,2.76A2.7,2.7,0,0,0,122.68,175.2Z"/><path class="cls-2" d="M82.43,223.58a2.77,2.77,0,0,0-2.68,2.73,3,3,0,0,0,2.93,3.13,2.68,2.68,0,0,0,2.64-2.73A3,3,0,0,0,82.43,223.58Z"/><path class="cls-2" d="M143.07,154.75a2.73,2.73,0,0,0,2.89-3,2.9,2.9,0,0,0-2.82-2.64,2.79,2.79,0,0,0-2.59,2.83A2.66,2.66,0,0,0,143.07,154.75Z"/><path class="cls-2" d="M95.68,202.26a2.73,2.73,0,0,0,2.77-2.63,2.56,2.56,0,0,0-2.38-2.91,3,3,0,0,0-3.14,2.87A2.82,2.82,0,0,0,95.68,202.26Z"/><path class="cls-2" d="M102.67,195.41a3,3,0,0,0,2.83-2.75,2.92,2.92,0,0,0-2.79-2.75,2.75,2.75,0,0,0,0,5.5Z"/><path class="cls-2" d="M150.07,196.68a2.64,2.64,0,0,0-2.9,2.4c-.14,1.58,1.14,2.84,3,2.93a2.33,2.33,0,0,0,2.57-2.06A2.92,2.92,0,0,0,150.07,196.68Z"/><path class="cls-2" d="M109.38,196.55a3,3,0,0,0-2.59,3.41,2.42,2.42,0,0,0,2.34,2.41,2.79,2.79,0,0,0,3.18-2.76A2.87,2.87,0,0,0,109.38,196.55Z"/><path class="cls-2" d="M58.17,283.34l-.15,0a.77.77,0,0,1,0,.15l.12-.12Z"/><path class="cls-2" d="M56.17,278.41a2.28,2.28,0,0,0-2.73,1,3.31,3.31,0,0,0-.07,2.42c.73,1.93,1.21,2,4.65,1.5a18.65,18.65,0,0,0,.29-2.95C58.24,279.18,57.2,278.7,56.17,278.41Z"/><path class="cls-2" d="M58.12,283.4l-.12.12h0Z"/><path class="cls-2" d="M189.62,107.62a3.21,3.21,0,0,0,3.38-1,2.91,2.91,0,0,0,.17-4,5.62,5.62,0,0,0-4.68,1.87,2.13,2.13,0,0,0-.33,1.86A2.39,2.39,0,0,0,189.62,107.62Z"/><path class="cls-2" d="M136.82,264.6a2.66,2.66,0,0,0-2.68,2.76,2.87,2.87,0,0,0,3,2.5,2.79,2.79,0,0,0,2.34-3.12A2.43,2.43,0,0,0,136.82,264.6Z"/><path class="cls-2" d="M143.56,249.59a2.38,2.38,0,0,0,2.48-2.23c0-1.84-.88-3-2.31-3s-3,1.27-3,2.49A3.16,3.16,0,0,0,143.56,249.59Z"/><path class="cls-2" d="M109.7,188.62a3,3,0,0,0,2.51-3,2.94,2.94,0,0,0-2.71-2.73,3.11,3.11,0,0,0-2.77,3.29A2.94,2.94,0,0,0,109.7,188.62Z"/><path class="cls-2" d="M156.37,127.74c2,0,3.23-1,3.33-2.54a3.63,3.63,0,0,0-.87-2.34c-.7-.83-1.63-.39-2.35.19a5.7,5.7,0,0,0-1.49,1.49c-.31.56-.61,1.52-.35,1.92A5.18,5.18,0,0,0,156.37,127.74Z"/><path class="cls-2" d="M314.83,39.43c1.61-1.07,1.42-2.59.64-4.12-3.47,1-3.47,1-5.35,3.76C311.58,40.68,313.26,40.48,314.83,39.43Z"/><path class="cls-2" d="M151.43,134.31a2.93,2.93,0,0,0,1.6-3.12,2.46,2.46,0,0,0-1.09-1.69,2.41,2.41,0,0,0-1.94.14,4.11,4.11,0,0,0-2.15,3.68C149,134.7,150.14,135,151.43,134.31Z"/><path class="cls-2" d="M162.8,121.09c2.68.09,4.08-1.37,3.86-3.68a1.66,1.66,0,0,0-2.76-1.22,12.36,12.36,0,0,0-2.21,2.3,1.65,1.65,0,0,0-.19,1.48A4.9,4.9,0,0,0,162.8,121.09Z"/><path class="cls-2" d="M139.12,280.56a3.14,3.14,0,0,0-2.92-2.6c-1.23-.08-2.38,1.39-2.33,3a2.26,2.26,0,0,0,2.41,2.25C137.9,283,139.23,281.78,139.12,280.56Z"/><path class="cls-2" d="M136.74,251.14a2.67,2.67,0,0,0-2.61,2.17,2.32,2.32,0,0,0,2,2.65,3,3,0,0,0,3-2.39C139.28,252.62,138,251.27,136.74,251.14Z"/><path class="cls-2" d="M75.74,222.48a2.89,2.89,0,0,0,2.55-2.82,2.68,2.68,0,0,0-3-2.34,2.54,2.54,0,0,0-2.16,3A2.49,2.49,0,0,0,75.74,222.48Z"/><path class="cls-2" d="M144.8,141c1.55-.85,1.65-2,.45-4.82-2.67,1.53-2.66,1.54-4,3.74C142,141.54,143.33,141.77,144.8,141Z"/><path class="cls-2" d="M219.61,93.58c1.29-.92,1.37-1.52.52-4.13-2.13-.15-3.58,1-5.14,2.77C217.41,94.45,218.14,94.63,219.61,93.58Z"/><path class="cls-2" d="M56,345.84c-1.12-.25-2.36.82-2,1.83a43.33,43.33,0,0,0,2.11,4.13c1-1.42,1.74-2,2-2.81A2.44,2.44,0,0,0,56,345.84Z"/><path class="cls-2" d="M150.89,210.71a2.57,2.57,0,0,0-2.91,1.84,2.41,2.41,0,0,0,2.16,2.61,2.28,2.28,0,0,0,2.54-2.18A2,2,0,0,0,150.89,210.71Z"/><path class="cls-2" d="M143.15,217.15a2.51,2.51,0,0,0-2.34,2.49,2.18,2.18,0,0,0,2.05,2.09,2.37,2.37,0,0,0,2.66-2A2.83,2.83,0,0,0,143.15,217.15Z"/><path class="cls-2" d="M137.31,147.89a2.54,2.54,0,0,0,2.1-2.65,2.65,2.65,0,0,0-1.1-1.61,1.51,1.51,0,0,0-1.42.13,31.22,31.22,0,0,0-2.43,2.48C134.84,148.16,136,148.24,137.31,147.89Z"/><path class="cls-2" d="M132.34,152.68c.25-.89.19-1.93-.79-2.28a2.27,2.27,0,0,0-1.84.59,24.31,24.31,0,0,0-2.29,2.92C130.93,154.81,131.81,154.54,132.34,152.68Z"/><path class="cls-2" d="M48.52,289.6a2.43,2.43,0,0,0,2.27-2.49,2.5,2.5,0,0,0-2.55-2.24,1.67,1.67,0,0,0-1.53,1.83C46.82,288.4,47.52,289.54,48.52,289.6Z"/><path class="cls-2" d="M273.85,66.74a2.1,2.1,0,0,0,.7-3.29c-2.13-.11-3.58,1.08-5.05,2.65A3.16,3.16,0,0,0,273.85,66.74Z"/><path class="cls-2" d="M123,161.64a5.22,5.22,0,0,0,2.52-1.64c.79-1.15.58-2.32-1.41-2.89l-3.29,3.59C121.89,161.18,122.59,161.79,123,161.64Z"/><path class="cls-2" d="M149.82,224.32a2.08,2.08,0,0,0-1.74,2.2,2.14,2.14,0,0,0,2.52,2,1.81,1.81,0,0,0,1.81-1.54A2.55,2.55,0,0,0,149.82,224.32Z"/><path class="cls-2" d="M14.7,283.39a2.73,2.73,0,0,0,2.92-3c0-.85-1.2-1.7-1.88-1.25a9.7,9.7,0,0,0-2.32,2A1.45,1.45,0,0,0,14.7,283.39Z"/><path class="cls-2" d="M23.94,273.9c-.12-.44-.75-1.14-.93-1.08A5,5,0,0,0,20.82,274a10.47,10.47,0,0,0-1.13,2.78c1.34-.12,2.25,0,2.93-.31A2.16,2.16,0,0,0,23.94,273.9Z"/><path class="cls-2" d="M48.53,302.84a2.25,2.25,0,0,0,1.89-.35,1.63,1.63,0,0,0,.32-2.38A14.9,14.9,0,0,0,48,298.3a11.75,11.75,0,0,0-.44,2.91A2.36,2.36,0,0,0,48.53,302.84Z"/><path class="cls-2" d="M143.24,231.24a2,2,0,0,0-2.1,1.9,2.1,2.1,0,0,0,1.87,2.17,2,2,0,0,0,2-2A1.85,1.85,0,0,0,143.24,231.24Z"/><path class="cls-2" d="M51.28,314.43c-.28-.83-1.09-1.47-2.09-2.72-.61,1.49-1.19,2.34-1.23,3.22a1.47,1.47,0,0,0,1.58,1.65C50.54,316.53,51.6,315.38,51.28,314.43Z"/><path class="cls-2" d="M69.48,229c1.71-.46,2-1.51,1.06-4.12-1.74.09-2.25,1.42-2.71,2.75a1,1,0,0,0,.25.93A2,2,0,0,0,69.48,229Z"/><path class="cls-2" d="M44.27,254.65a1.13,1.13,0,0,0-.08-1,1.1,1.1,0,0,0-.9-.38c-1.8.4-2.09,1-1.76,3.4C43,256.79,43.74,255.82,44.27,254.65Z"/><path class="cls-2" d="M355.53,10.23c-1.57,0-2.78.58-3.19,2.33l3.37,1.37c.19-1,.42-1.93.54-2.91C356.27,10.82,355.84,10.56,355.53,10.23Z"/><path class="cls-2" d="M355.7,14l.05,0h0Z"/><path class="cls-2" d="M116.64,168.29c2-.43,2.39-1.36,1.73-3.84a2.89,2.89,0,0,0-2.88,2.5C115.36,167.64,116,168.43,116.64,168.29Z"/><path class="cls-2" d="M322.07,30.05c-1.43.52-3.31.41-3.49,2.61C322,33.34,322.51,33,322.07,30.05Z"/><path class="cls-2" d="M30.55,268a1.46,1.46,0,0,0-.24-1.38c-1.2-.78-1.95.13-2.65,1a11.36,11.36,0,0,0-.79,1.33C29.33,269.69,29.81,269.58,30.55,268Z"/><path class="cls-2" d="M173,111.33c-2,.32-3.53.62-3.8,2.67C172.42,114.24,172.43,114.25,173,111.33Z"/><path class="cls-2" d="M37.44,260.38c-.07-.29-1.06-.69-1.2-.56a23.44,23.44,0,0,0-2,2.35C36.49,262.87,37.84,262,37.44,260.38Z"/><path class="cls-2" d="M57.66,240.59a1.17,1.17,0,0,0-.45-.87.9.9,0,0,0-.89.05c-.5.65-.9,1.38-1.42,2.21C57.1,242.21,57.61,241.91,57.66,240.59Z"/><path class="cls-2" d="M254.83,72.55c-1.71-1-2.79-.47-3.78,1.14C252.68,74.19,254,74.44,254.83,72.55Z"/><path class="cls-2" d="M49.37,326.1a5.44,5.44,0,0,0-.1,1.4,22.37,22.37,0,0,0,.81,2.56c.69-1.18,1.38-1.82,1.34-2.4C51.35,326.71,51,325.58,49.37,326.1Z"/><path class="cls-2" d="M64.65,233.86c.12-.36-.22-1.23-.47-1.29a2,2,0,0,0-2.38,1.5,5,5,0,0,0-.19,1C63.39,235.58,64.19,235.31,64.65,233.86Z"/><path class="cls-2" d="M137.91,291.5a3.82,3.82,0,0,0-1.41.09c.13.45.12,1.05.41,1.32.79.71,2,.65,2.22,0,0-.12.08-.38,0-.46A3.64,3.64,0,0,0,137.91,291.5Z"/><path class="cls-2" d="M9.09,289.66c1.13-.66,1.84-1.58,1-2.94-1.67,0-1.93,1.21-2.12,2.41C7.91,289.26,8.86,289.79,9.09,289.66Z"/><path class="cls-2" d="M49,249.43a1.68,1.68,0,0,0,1.78-1.57,4.93,4.93,0,0,0-.1-.94c-.47,0-.68,0-.82.07-.78.46-1.45,1-1.21,2.07C48.66,249.21,48.85,249.43,49,249.43Z"/><path class="cls-2" d="M227,85.65c-.44-.09-1-.39-1.29-.24a12.09,12.09,0,0,0-2,1.8,10.85,10.85,0,0,0,2.6-.38C226.56,86.66,226.71,86.06,227,85.65Z"/><path class="cls-2" d="M111.23,174.39a1.62,1.62,0,0,0,.47-2.48,21.17,21.17,0,0,0-1.61,1.77.9.9,0,0,0,.24.85A1,1,0,0,0,111.23,174.39Z"/><path class="cls-2" d="M104.81,339.75c-.13,0-.3.05-.45.08.22.64.43,1.27.64,1.91C105.62,340.87,106,340.1,104.81,339.75Z"/><path class="cls-2" d="M199.79,99.57c-1.21-.62-1.88-.11-2.27,1.05C198.79,101.36,199.32,100.55,199.79,99.57Z"/></svg>