<svg width="24" height="24" viewBox="0 0 24 24" fill="none" xmlns="http://www.w3.org/2000/svg">
<path d="M19.5938 2.70934C17.5712 1.05927 15.0638 0.117226 12.455 0.0273438C12.7086 1.5238 12.6435 3.05692 12.2641 4.52651C11.8846 5.99611 11.1994 7.36909 10.253 8.55574L12.0002 10.3029L19.5938 2.70934ZM6.84143 8.53774L2.70983 4.40614C1.38311 6.03199 0.508879 7.97914 0.175432 10.0509C1.33056 10.2795 2.52082 10.263 3.66914 10.0023C4.81745 9.74162 5.89822 9.24267 6.84143 8.53774V8.53774ZM21.2906 4.40614L13.697 11.9997L15.4442 13.7469C16.631 12.8008 18.004 12.1157 19.4735 11.7362C20.9431 11.3568 22.4762 11.2916 23.9726 11.5449C23.8827 8.9362 22.9407 6.42873 21.2906 4.40614V4.40614ZM23.825 13.9485C22.6699 13.7199 21.4796 13.7365 20.3313 13.9972C19.183 14.2579 18.1022 14.7568 17.159 15.4617L21.2906 19.5933C22.618 17.9679 23.4924 16.0206 23.825 13.9485V13.9485ZM8.53823 6.84094C9.24316 5.89773 9.74211 4.81697 10.0028 3.66865C10.2635 2.52034 10.28 1.33007 10.0514 0.174944C7.97946 0.507842 6.03218 1.38213 4.40663 2.70934L8.53823 6.84094V6.84094ZM13.949 23.8245C16.0208 23.4916 17.9679 22.6177 19.5938 21.2913L15.4622 17.1597C14.7572 18.1027 14.2582 19.1832 13.9975 20.3314C13.7368 21.4795 13.7203 22.6696 13.949 23.8245V23.8245ZM12.0002 13.6965L4.40663 21.2901C6.42922 22.9402 8.93669 23.8823 11.5454 23.9721C11.2919 22.4757 11.3569 20.9426 11.7364 19.473C12.1158 18.0034 12.8011 16.6304 13.7474 15.4437L12.0002 13.6965ZM2.70983 19.5933L10.3034 11.9997L8.55623 10.2525C7.36947 11.1987 5.99647 11.8838 4.52692 12.2633C3.05736 12.6427 1.52429 12.7079 0.027832 12.4545C0.117715 15.0633 1.05975 17.5708 2.70983 19.5933V19.5933Z" fill="#272D7E"/>
</svg>
