<svg width="24" height="24" viewBox="0 0 24 24" fill="none" xmlns="http://www.w3.org/2000/svg">
<path d="M20.4 2.3H19.25V0H16.95V2.3H7.75V0H5.45V2.3H4.3C3.0235 2.3 2.0115 3.335 2.0115 4.6L2 20.7C2 21.965 3.0235 23 4.3 23H20.4C21.665 23 22.7 21.965 22.7 20.7V4.6C22.7 3.335 21.665 2.3 20.4 2.3ZM20.4 20.7H4.3V9.2H20.4V20.7ZM20.4 6.9H4.3V4.6H20.4V6.9ZM8.9 13.8H6.6V11.5H8.9V13.8ZM13.5 13.8H11.2V11.5H13.5V13.8ZM18.1 13.8H15.8V11.5H18.1V13.8ZM8.9 18.4H6.6V16.1H8.9V18.4ZM13.5 18.4H11.2V16.1H13.5V18.4ZM18.1 18.4H15.8V16.1H18.1V18.4Z" fill="#272D7E"/>
</svg>
