<svg width="18" height="24" viewBox="0 0 18 24" fill="none" xmlns="http://www.w3.org/2000/svg">
<path d="M15.6002 5.44844C16.9257 5.44844 18.0002 4.37392 18.0002 3.04844C18.0002 1.72295 16.9257 0.648438 15.6002 0.648438C14.2747 0.648438 13.2002 1.72295 13.2002 3.04844C13.2002 4.37392 14.2747 5.44844 15.6002 5.44844Z" fill="#272D7E"/>
<path d="M12 18H9.6C9.6 19.98 7.98 21.6 6 21.6C4.02 21.6 2.4 19.98 2.4 18C2.4 16.02 4.02 14.4 6 14.4V12C2.688 12 0 14.688 0 18C0 21.312 2.688 24 6 24C9.312 24 12 21.312 12 18ZM15.6 13.8H13.368L15.372 9.396C16.104 7.8 14.928 6 13.152 6H6.912C5.94 6 5.064 6.564 4.668 7.44L3.864 9.6L6.168 10.236L6.948 8.4H9.6L7.404 13.32C6.684 14.916 7.872 16.8 9.624 16.8H15.6V22.8H18V16.2C18 14.88 16.92 13.8 15.6 13.8Z" fill="#272D7E"/>
</svg>
