<svg width="25" height="24" viewBox="0 0 25 24" fill="none" xmlns="http://www.w3.org/2000/svg">
<path d="M13 6.0002C16.79 6.0002 20.17 8.1302 21.82 11.5002C21.23 12.7202 20.4 13.7702 19.41 14.6202L20.82 16.0302C22.21 14.8002 23.31 13.2602 24 11.5002C22.27 7.1102 18 4.0002 13 4.0002C11.73 4.0002 10.51 4.2002 9.36 4.5702L11.01 6.2202C11.66 6.0902 12.32 6.0002 13 6.0002ZM11.93 7.14019L14 9.2102C14.57 9.4602 15.03 9.9202 15.28 10.4902L17.35 12.5602C17.43 12.2202 17.49 11.8602 17.49 11.4902C17.5 9.0102 15.48 7.0002 13 7.0002C12.63 7.0002 12.28 7.05019 11.93 7.14019ZM3.01 3.8702L5.69 6.5502C4.06 7.8302 2.77 9.5302 2 11.5002C3.73 15.8902 8 19.0002 13 19.0002C14.52 19.0002 15.98 18.7102 17.32 18.1802L20.74 21.6002L22.15 20.1902L4.42 2.4502L3.01 3.8702ZM10.51 11.3702L13.12 13.9802C13.08 13.9902 13.04 14.0002 13 14.0002C11.62 14.0002 10.5 12.8802 10.5 11.5002C10.5 11.4502 10.51 11.4202 10.51 11.3702ZM7.11 7.97019L8.86 9.7202C8.63 10.2702 8.5 10.8702 8.5 11.5002C8.5 13.9802 10.52 16.0002 13 16.0002C13.63 16.0002 14.23 15.8702 14.77 15.6402L15.75 16.6202C14.87 16.8602 13.95 17.0002 13 17.0002C9.21 17.0002 5.83 14.8702 4.18 11.5002C4.88 10.0702 5.9 8.89019 7.11 7.97019Z" fill="#272D7E"/>
</svg>
