<svg width="24" height="24" viewBox="0 0 24 24" fill="none" xmlns="http://www.w3.org/2000/svg">
<path d="M6.03014 3.19973C7.15014 2.43973 8.51014 1.99973 10.0001 1.99973C13.9301 1.99973 17.0001 5.06973 17.0001 8.99973C17.0001 10.2597 16.6201 11.6497 15.9301 12.8997C15.9101 12.9397 15.8801 12.9797 15.8501 13.0297L14.3701 11.5497C14.7701 10.6897 15.0001 9.79973 15.0001 8.99973C15.0001 6.19973 12.8001 3.99973 10.0001 3.99973C9.08014 3.99973 8.24014 4.25973 7.50014 4.66973L6.03014 3.19973ZM17.2101 14.3797L18.6401 15.8097C20.1101 13.9297 21.0001 11.5697 21.0001 8.99973C21.0001 5.95973 19.7701 3.20973 17.7801 1.21973L16.3601 2.63973C17.9901 4.25973 19.0001 6.50973 19.0001 8.99973C19.0001 11.0197 18.3301 12.8797 17.2101 14.3797ZM10.0001 6.49973C9.79014 6.49973 9.60014 6.52973 9.41014 6.57973L12.4201 9.58973C12.4701 9.39973 12.5001 9.20973 12.5001 8.99973C12.5001 7.61973 11.3801 6.49973 10.0001 6.49973ZM21.1901 21.1897L2.81014 2.80973L1.39014 4.21973L3.52014 6.34973C3.19014 7.15973 3.00014 8.04973 3.00014 8.99973H5.00014C5.00014 8.63973 5.05014 8.28973 5.12014 7.94973L11.7301 14.5597C10.8501 15.2397 9.95014 15.9697 9.46014 17.4597C8.96014 18.9597 8.46014 19.4697 7.75014 19.8397C7.56014 19.9397 7.29014 19.9997 7.00014 19.9997C5.90014 19.9997 5.00014 19.0997 5.00014 17.9997H3.00014C3.00014 20.2097 4.79014 21.9997 7.00014 21.9997C7.57014 21.9997 8.13014 21.8797 8.64014 21.6497C10.0001 20.9397 10.7701 19.9197 11.3701 18.0997C11.6901 17.1197 12.2701 16.6697 13.0801 16.0497C13.1101 16.0297 13.1301 16.0097 13.1601 15.9897L19.7801 22.6097L21.1901 21.1897Z" fill="#272D7E"/>
</svg>
