<svg width="24" height="24" viewBox="0 0 24 24" fill="none" xmlns="http://www.w3.org/2000/svg">
<g clip-path="url(#clip0_64_2215)">
<path d="M10 7.00016L6.75 10.2502C7.06 10.3702 7.31 10.5202 7.52 10.6402C7.89 10.8702 8.11 11.0002 8.67 11.0002C9.23 11.0002 9.45 10.8702 9.82 10.6402C10.28 10.3702 10.9 10.0002 12.01 10.0002C13.12 10.0002 13.74 10.3702 14.19 10.6402C14.56 10.8602 14.79 11.0002 15.34 11.0002C15.89 11.0002 16.12 10.8702 16.49 10.6402C16.61 10.5702 16.75 10.4902 16.9 10.4102L10.48 4.00016C8.93 2.45016 7.5 1.99016 5 2.00016V4.50016C6.82 4.49016 7.89 4.89016 9 6.00016L10 7.00016ZM22 15.5002H21.98H22ZM5.35 14.5002C5.9 14.5002 6.13 14.6402 6.5 14.8602C6.95 15.1302 7.57 15.5002 8.68 15.5002C9.79 15.5002 10.41 15.1302 10.86 14.8602C11.23 14.6302 11.45 14.5002 12.01 14.5002C12.56 14.5002 12.79 14.6402 13.16 14.8602C13.61 15.1302 14.23 15.5002 15.34 15.5002C16.45 15.5002 17.07 15.1302 17.52 14.8602C17.89 14.6302 18.11 14.5002 18.67 14.5002C19.22 14.5002 19.45 14.6402 19.82 14.8602C20.27 15.1302 20.88 15.4902 21.98 15.5002V13.5002C21.43 13.5002 21.2 13.3602 20.83 13.1402C20.38 12.8702 19.76 12.5002 18.65 12.5002C17.54 12.5002 16.92 12.8702 16.47 13.1402C16.1 13.3702 15.87 13.5002 15.32 13.5002C14.77 13.5002 14.54 13.3602 14.17 13.1402C13.72 12.8702 13.1 12.5002 11.99 12.5002C10.88 12.5002 10.26 12.8702 9.81 13.1402C9.44 13.3702 9.22 13.5002 8.66 13.5002C8.11 13.5002 7.88 13.3602 7.51 13.1402C7.06 12.8702 6.44 12.5002 5.33 12.5002C4.22 12.5002 3.6 12.8702 3.15 13.1402C2.78 13.3702 2.56 13.5002 2 13.5002V15.5002C3.11 15.5002 3.73 15.1302 4.2 14.8602C4.57 14.6302 4.8 14.5002 5.35 14.5002ZM18.67 17.0002C17.56 17.0002 16.94 17.3702 16.49 17.6402C16.12 17.8702 15.89 18.0002 15.34 18.0002C14.79 18.0002 14.56 17.8602 14.19 17.6402C13.74 17.3702 13.12 17.0002 12.01 17.0002C10.9 17.0002 10.28 17.3702 9.82 17.6402C9.45 17.8702 9.23 18.0002 8.67 18.0002C8.11 18.0002 7.89 17.8702 7.52 17.6402C7.07 17.3702 6.45 17.0002 5.34 17.0002C4.23 17.0002 3.61 17.3702 3.15 17.6402C2.78 17.8702 2.56 18.0002 2 18.0002V20.0002C3.11 20.0002 3.73 19.6302 4.19 19.3602C4.56 19.1302 4.79 19.0002 5.34 19.0002C5.89 19.0002 6.12 19.1302 6.49 19.3602C6.94 19.6302 7.56 20.0002 8.67 20.0002C9.78 20.0002 10.4 19.6302 10.86 19.3602C11.23 19.1302 11.45 19.0002 12.01 19.0002C12.56 19.0002 12.79 19.1402 13.16 19.3602C13.61 19.6302 14.23 20.0002 15.34 20.0002C16.45 20.0002 17.06 19.6302 17.52 19.3602C17.89 19.1302 18.11 19.0002 18.67 19.0002C19.22 19.0002 19.45 19.1402 19.82 19.3602C20.27 19.6302 20.89 20.0002 22 20.0002V18.0002C21.44 18.0002 21.22 17.8702 20.85 17.6402C20.4 17.3702 19.78 17.0002 18.67 17.0002Z" fill="#272D7E"/>
<path d="M16.5 7C17.8807 7 19 5.88071 19 4.5C19 3.11929 17.8807 2 16.5 2C15.1193 2 14 3.11929 14 4.5C14 5.88071 15.1193 7 16.5 7Z" fill="#272D7E"/>
</g>
<defs>
<clipPath id="clip0_64_2215">
<rect width="24" height="24" fill="white"/>
</clipPath>
</defs>
</svg>
