<svg width="24" height="24" viewBox="0 0 24 24" fill="none" xmlns="http://www.w3.org/2000/svg">
<g clip-path="url(#clip0_20_1585)">
<path d="M11.5199 2.87988C6.22072 2.87988 1.91992 7.18068 1.91992 12.4799C1.91992 17.7791 6.22072 22.0799 11.5199 22.0799C16.8191 22.0799 21.1199 17.7791 21.1199 12.4799C21.1199 7.18068 16.8191 2.87988 11.5199 2.87988ZM6.78712 18.5087C7.19992 17.6447 9.71512 16.7999 11.5199 16.7999C13.3247 16.7999 15.8495 17.6447 16.2527 18.5087C14.9471 19.5455 13.3055 20.1599 11.5199 20.1599C9.73432 20.1599 8.09272 19.5455 6.78712 18.5087ZM17.6255 17.1167C16.2527 15.4463 12.9215 14.8799 11.5199 14.8799C10.1183 14.8799 6.78712 15.4463 5.41432 17.1167C4.43512 15.8303 3.83992 14.2271 3.83992 12.4799C3.83992 8.24628 7.28632 4.79988 11.5199 4.79988C15.7535 4.79988 19.1999 8.24628 19.1999 12.4799C19.1999 14.2271 18.6047 15.8303 17.6255 17.1167V17.1167ZM11.5199 6.71988C9.65752 6.71988 8.15992 8.21748 8.15992 10.0799C8.15992 11.9423 9.65752 13.4399 11.5199 13.4399C13.3823 13.4399 14.8799 11.9423 14.8799 10.0799C14.8799 8.21748 13.3823 6.71988 11.5199 6.71988ZM11.5199 11.5199C10.7231 11.5199 10.0799 10.8767 10.0799 10.0799C10.0799 9.28308 10.7231 8.63988 11.5199 8.63988C12.3167 8.63988 12.9599 9.28308 12.9599 10.0799C12.9599 10.8767 12.3167 11.5199 11.5199 11.5199Z" fill="#272D7E"/>
</g>
<defs>
<clipPath id="clip0_20_1585">
<rect width="24" height="24" fill="white"/>
</clipPath>
</defs>
</svg>
