<svg width="32" height="32" viewBox="0 0 32 32" fill="none" xmlns="http://www.w3.org/2000/svg">
<path d="M25.3333 5.33366H24V2.66699H21.3333V5.33366H10.6667V2.66699H8V5.33366H6.66667C5.18667 5.33366 4.01333 6.53366 4.01333 8.00033L4 26.667C4 28.1337 5.18667 29.3337 6.66667 29.3337H25.3333C26.8 29.3337 28 28.1337 28 26.667V8.00033C28 6.53366 26.8 5.33366 25.3333 5.33366ZM25.3333 26.667H6.66667V13.3337H25.3333V26.667ZM25.3333 10.667H6.66667V8.00033H25.3333V10.667ZM12 18.667H9.33333V16.0003H12V18.667ZM17.3333 18.667H14.6667V16.0003H17.3333V18.667ZM22.6667 18.667H20V16.0003H22.6667V18.667ZM12 24.0003H9.33333V21.3337H12V24.0003ZM17.3333 24.0003H14.6667V21.3337H17.3333V24.0003ZM22.6667 24.0003H20V21.3337H22.6667V24.0003Z" fill="#272D7E"/>
</svg>
