<svg width="32" height="32" viewBox="0 0 32 32" fill="none" xmlns="http://www.w3.org/2000/svg">
<g clip-path="url(#clip0_151_6018)">
<path d="M23.9998 20.333V13.6663C23.9998 9.57301 21.8131 6.14634 17.9998 5.23967V4.33301C17.9998 3.22634 17.0931 2.33301 15.9865 2.33301C14.8798 2.33301 13.9998 3.22634 13.9998 4.33301V5.23967C10.1731 6.14634 7.99981 9.55967 7.99981 13.6663V20.333L6.26647 22.053C5.42647 22.893 6.01314 24.333 7.19981 24.333H24.7598C25.9465 24.333 26.5465 22.893 25.7065 22.053L23.9998 20.333ZM15.9865 28.333C17.4531 28.333 18.6531 27.133 18.6531 25.6663H13.3198C13.3198 27.133 14.5065 28.333 15.9865 28.333ZM9.02647 5.30634C9.58647 4.79967 9.59981 3.93301 9.06647 3.39967C8.55981 2.89301 7.73314 2.87967 7.21314 3.37301C4.93314 5.45301 3.35981 8.27967 2.85314 11.453C2.73314 12.2663 3.35981 12.9997 4.18647 12.9997C4.82647 12.9997 5.38647 12.533 5.49314 11.893C5.89314 9.30634 7.17314 6.99967 9.02647 5.30634V5.30634ZM24.7998 3.37301C24.2665 2.87967 23.4398 2.89301 22.9331 3.39967C22.3998 3.93301 22.4265 4.78634 22.9731 5.29301C24.8131 6.98634 26.1065 9.29301 26.5065 11.8797C26.5998 12.5197 27.1598 12.9863 27.8131 12.9863C28.6265 12.9863 29.2665 12.253 29.1331 11.4397C28.6265 8.27967 27.0665 5.46634 24.7998 3.37301V3.37301Z" fill="#272D7E"/>
</g>
<defs>
<clipPath id="clip0_151_6018">
<rect width="32" height="32" fill="white"/>
</clipPath>
</defs>
</svg>
