<svg width="32" height="32" viewBox="0 0 32 32" fill="none" xmlns="http://www.w3.org/2000/svg">
<g clip-path="url(#clip0_34_1950)">
<path d="M16.3335 19C18.5468 19 20.3335 17.2133 20.3335 15V7C20.3335 4.78667 18.5468 3 16.3335 3C14.1202 3 12.3335 4.78667 12.3335 7V15C12.3335 17.2133 14.1202 19 16.3335 19Z" fill="#272D7E"/>
<path d="M23 15C23 18.68 20.0133 21.6667 16.3333 21.6667C12.6533 21.6667 9.66667 18.68 9.66667 15H7C7 19.7067 10.48 23.5733 15 24.2267V28.3333H17.6667V24.2267C22.1867 23.5733 25.6667 19.7067 25.6667 15H23Z" fill="#272D7E"/>
</g>
<defs>
<clipPath id="clip0_34_1950">
<rect width="32" height="32" fill="white"/>
</clipPath>
</defs>
</svg>
