<svg width="32" height="32" viewBox="0 0 32 32" fill="none" xmlns="http://www.w3.org/2000/svg">
<path d="M30.2292 0C30.7153 0 31.1319 0.173611 31.4792 0.520833C31.8264 0.868056 32 1.28472 32 1.77083V30.2292C32 30.7153 31.8264 31.1319 31.4792 31.4792C31.1319 31.8264 30.7153 32 30.2292 32H22.0833V19.6042H26.2292L26.8542 14.7708H22.0833V11.6875C22.0833 10.9097 22.2465 10.3264 22.5729 9.9375C22.8993 9.54861 23.5347 9.35417 24.4792 9.35417L27.0208 9.33333V5.02083C26.1458 4.89583 24.9097 4.83333 23.3125 4.83333C21.4236 4.83333 19.9132 5.38889 18.7812 6.5C17.6493 7.61111 17.0833 9.18056 17.0833 11.2083V14.7708H12.9167V19.6042H17.0833V32H1.77083C1.28472 32 0.868056 31.8264 0.520833 31.4792C0.173611 31.1319 0 30.7153 0 30.2292V1.77083C0 1.28472 0.173611 0.868056 0.520833 0.520833C0.868056 0.173611 1.28472 0 1.77083 0H30.2292Z" fill="#272D7E"/>
</svg>
