<svg width="32" height="32" viewBox="0 0 32 32" fill="none" xmlns="http://www.w3.org/2000/svg">
<path fill-rule="evenodd" clip-rule="evenodd" d="M16.0003 8.72754C14.0714 8.72754 12.2216 9.49377 10.8577 10.8577C9.49377 12.2216 8.72754 14.0714 8.72754 16.0003C8.72754 17.9291 9.49377 19.779 10.8577 21.1429C12.2216 22.5068 14.0714 23.273 16.0003 23.273C17.9291 23.273 19.779 22.5068 21.1429 21.1429C22.5068 19.779 23.273 17.9291 23.273 16.0003C23.273 14.0714 22.5068 12.2216 21.1429 10.8577C19.779 9.49377 17.9291 8.72754 16.0003 8.72754ZM11.6366 16.0003C11.6366 17.1576 12.0964 18.2675 12.9147 19.0858C13.733 19.9042 14.843 20.3639 16.0003 20.3639C17.1576 20.3639 18.2675 19.9042 19.0858 19.0858C19.9042 18.2675 20.3639 17.1576 20.3639 16.0003C20.3639 14.843 19.9042 13.733 19.0858 12.9147C18.2675 12.0964 17.1576 11.6366 16.0003 11.6366C14.843 11.6366 13.733 12.0964 12.9147 12.9147C12.0964 13.733 11.6366 14.843 11.6366 16.0003Z" fill="#272D7E"/>
<path d="M24.727 5.81836C24.3412 5.81836 23.9713 5.97161 23.6985 6.24439C23.4257 6.51717 23.2725 6.88714 23.2725 7.2729C23.2725 7.65867 23.4257 8.02864 23.6985 8.30142C23.9713 8.5742 24.3412 8.72745 24.727 8.72745C25.1128 8.72745 25.4827 8.5742 25.7555 8.30142C26.0283 8.02864 26.1816 7.65867 26.1816 7.2729C26.1816 6.88714 26.0283 6.51717 25.7555 6.24439C25.4827 5.97161 25.1128 5.81836 24.727 5.81836Z" fill="#272D7E"/>
<path fill-rule="evenodd" clip-rule="evenodd" d="M5.81818 0C4.2751 0 2.79523 0.612985 1.70411 1.70411C0.612985 2.79523 0 4.2751 0 5.81818V26.1818C0 27.7249 0.612985 29.2048 1.70411 30.2959C2.79523 31.387 4.2751 32 5.81818 32H26.1818C27.7249 32 29.2048 31.387 30.2959 30.2959C31.387 29.2048 32 27.7249 32 26.1818V5.81818C32 4.2751 31.387 2.79523 30.2959 1.70411C29.2048 0.612985 27.7249 0 26.1818 0H5.81818ZM26.1818 2.90909H5.81818C5.04664 2.90909 4.3067 3.21558 3.76114 3.76114C3.21558 4.3067 2.90909 5.04664 2.90909 5.81818V26.1818C2.90909 26.9534 3.21558 27.6933 3.76114 28.2389C4.3067 28.7844 5.04664 29.0909 5.81818 29.0909H26.1818C26.9534 29.0909 27.6933 28.7844 28.2389 28.2389C28.7844 27.6933 29.0909 26.9534 29.0909 26.1818V5.81818C29.0909 5.04664 28.7844 4.3067 28.2389 3.76114C27.6933 3.21558 26.9534 2.90909 26.1818 2.90909Z" fill="#272D7E"/>
</svg>
