<svg width="32" height="32" viewBox="0 0 32 32" fill="none" xmlns="http://www.w3.org/2000/svg">
<path d="M29.3332 9.30667V21.3333C29.3332 22.8 28.1332 24 26.6665 24H7.99984L2.6665 29.3333V5.33333C2.6665 3.86667 3.8665 2.66667 5.33317 2.66667H18.7998C18.7198 3.09333 18.6665 3.54667 18.6665 4C18.6665 7.68 21.6532 10.6667 25.3332 10.6667C26.8398 10.6667 28.2132 10.1467 29.3332 9.30667ZM21.3332 4C21.3332 6.21333 23.1198 8 25.3332 8C27.5465 8 29.3332 6.21333 29.3332 4C29.3332 1.78667 27.5465 0 25.3332 0C23.1198 0 21.3332 1.78667 21.3332 4Z" fill="#272D7E"/>
</svg>
