<svg width="32" height="32" viewBox="0 0 32 32" fill="none" xmlns="http://www.w3.org/2000/svg">
<path d="M15.9998 2.66699C8.63984 2.66699 2.6665 8.64033 2.6665 16.0003C2.6665 23.3603 8.63984 29.3337 15.9998 29.3337C23.3598 29.3337 29.3332 23.3603 29.3332 16.0003C29.3332 8.64033 23.3598 2.66699 15.9998 2.66699ZM21.3332 17.3337H17.3332V21.3337C17.3332 22.067 16.7332 22.667 15.9998 22.667C15.2665 22.667 14.6665 22.067 14.6665 21.3337V17.3337H10.6665C9.93317 17.3337 9.33317 16.7337 9.33317 16.0003C9.33317 15.267 9.93317 14.667 10.6665 14.667H14.6665V10.667C14.6665 9.93366 15.2665 9.33366 15.9998 9.33366C16.7332 9.33366 17.3332 9.93366 17.3332 10.667V14.667H21.3332C22.0665 14.667 22.6665 15.267 22.6665 16.0003C22.6665 16.7337 22.0665 17.3337 21.3332 17.3337Z" fill="#272D7E"/>
</svg>
