<svg width="32" height="32" viewBox="0 0 32 32" fill="none" xmlns="http://www.w3.org/2000/svg">
<path d="M16.3601 2.83984C9.29446 2.83984 3.56006 8.57424 3.56006 15.6398C3.56006 22.7054 9.29446 28.4398 16.3601 28.4398C23.4257 28.4398 29.1601 22.7054 29.1601 15.6398C29.1601 8.57424 23.4257 2.83984 16.3601 2.83984ZM10.0497 23.6782C10.6001 22.5262 13.9537 21.3998 16.3601 21.3998C18.7665 21.3998 22.1329 22.5262 22.6705 23.6782C20.9297 25.0606 18.7409 25.8798 16.3601 25.8798C13.9793 25.8798 11.7905 25.0606 10.0497 23.6782ZM24.5009 21.8222C22.6705 19.595 18.2289 18.8398 16.3601 18.8398C14.4913 18.8398 10.0497 19.595 8.21926 21.8222C6.91366 20.107 6.12006 17.9694 6.12006 15.6398C6.12006 9.99504 10.7153 5.39984 16.3601 5.39984C22.0049 5.39984 26.6001 9.99504 26.6001 15.6398C26.6001 17.9694 25.8065 20.107 24.5009 21.8222ZM16.3601 7.95984C13.8769 7.95984 11.8801 9.95664 11.8801 12.4398C11.8801 14.923 13.8769 16.9198 16.3601 16.9198C18.8433 16.9198 20.8401 14.923 20.8401 12.4398C20.8401 9.95664 18.8433 7.95984 16.3601 7.95984ZM16.3601 14.3598C15.2977 14.3598 14.4401 13.5022 14.4401 12.4398C14.4401 11.3774 15.2977 10.5198 16.3601 10.5198C17.4225 10.5198 18.2801 11.3774 18.2801 12.4398C18.2801 13.5022 17.4225 14.3598 16.3601 14.3598Z" fill="#272D7E"/>
</svg>
