<svg width="48" height="48" viewBox="0 0 48 48" fill="none" xmlns="http://www.w3.org/2000/svg">
<path d="M24.5398 4.25977C13.9414 4.25977 5.33984 12.8614 5.33984 23.4598C5.33984 34.0582 13.9414 42.6598 24.5398 42.6598C35.1382 42.6598 43.7398 34.0582 43.7398 23.4598C43.7398 12.8614 35.1382 4.25977 24.5398 4.25977ZM15.0742 35.5174C15.8998 33.7894 20.9302 32.0998 24.5398 32.0998C28.1494 32.0998 33.199 33.7894 34.0054 35.5174C31.3942 37.591 28.111 38.8198 24.5398 38.8198C20.9686 38.8198 17.6854 37.591 15.0742 35.5174ZM36.751 32.7334C34.0054 29.3926 27.343 28.2598 24.5398 28.2598C21.7366 28.2598 15.0742 29.3926 12.3286 32.7334C10.3702 30.1606 9.17984 26.9542 9.17984 23.4598C9.17984 14.9926 16.0726 8.09977 24.5398 8.09977C33.007 8.09977 39.8998 14.9926 39.8998 23.4598C39.8998 26.9542 38.7094 30.1606 36.751 32.7334ZM24.5398 11.9398C20.815 11.9398 17.8198 14.935 17.8198 18.6598C17.8198 22.3846 20.815 25.3798 24.5398 25.3798C28.2646 25.3798 31.2598 22.3846 31.2598 18.6598C31.2598 14.935 28.2646 11.9398 24.5398 11.9398ZM24.5398 21.5398C22.9462 21.5398 21.6598 20.2534 21.6598 18.6598C21.6598 17.0662 22.9462 15.7798 24.5398 15.7798C26.1334 15.7798 27.4198 17.0662 27.4198 18.6598C27.4198 20.2534 26.1334 21.5398 24.5398 21.5398Z" fill="#272D7E"/>
</svg>
